<svg id="Layer_1" data-name="Layer 1" xmlns="http://www.w3.org/2000/svg" viewBox="0 0 474.32 68"><defs><style>.cls-1{fill:none;stroke:#000;stroke-miterlimit:10;}.cls-2{fill:#dbdbdb;}</style></defs><line class="cls-1" y1="44.5" x2="468.35" y2="44.5"/><polygon points="465.54 48.2 467.12 44.5 465.54 40.8 474.32 44.5 465.54 48.2"/><rect class="cls-2" x="4.5" y="22" width="54" height="16"/><path d="M21.71,32.12a2.61,2.61,0,0,1-1.34-.34,2.36,2.36,0,0,1-.88-1,3.46,3.46,0,0,1-.31-1.5,3.12,3.12,0,0,1,.33-1.49,2.31,2.31,0,0,1,.91-1,2.61,2.61,0,0,1,1.35-.35,2.58,2.58,0,0,1,1.32.31,2.24,2.24,0,0,1,.82.94l-.61.33a1.4,1.4,0,0,0-.57-.71,1.72,1.72,0,0,0-1-.25,1.76,1.76,0,0,0-1.65,1,2.67,2.67,0,0,0-.24,1.18,3,3,0,0,0,.21,1.18,1.56,1.56,0,0,0,.63.75,1.88,1.88,0,0,0,1,.26,2.18,2.18,0,0,0,.63-.09,1.54,1.54,0,0,0,.51-.26,1.16,1.16,0,0,0,.34-.44,1.44,1.44,0,0,0,.13-.61v-.19H21.61v-.62H24V32h-.52l0-1,.15,0a1.67,1.67,0,0,1-.68.8A2.25,2.25,0,0,1,21.71,32.12Z"/><path d="M26,26v5a.6.6,0,0,0,.11.43.5.5,0,0,0,.37.12l.28,0,.28-.1-.1.58a1.4,1.4,0,0,1-.29.09,1.73,1.73,0,0,1-.32,0,1,1,0,0,1-.75-.27,1.26,1.26,0,0,1-.24-.84V26Z"/><path d="M29.6,27.82a2.06,2.06,0,0,1,1,.26,1.81,1.81,0,0,1,.71.74A2.44,2.44,0,0,1,31.6,30a2.41,2.41,0,0,1-.25,1.15,1.75,1.75,0,0,1-.71.74,2.19,2.19,0,0,1-2.07,0,1.75,1.75,0,0,1-.71-.74A2.41,2.41,0,0,1,27.61,30a2.44,2.44,0,0,1,.25-1.15,1.81,1.81,0,0,1,.71-.74A2.07,2.07,0,0,1,29.6,27.82Zm0,.57a1.32,1.32,0,0,0-.71.19,1.19,1.19,0,0,0-.46.55,2.29,2.29,0,0,0,0,1.68,1.19,1.19,0,0,0,.46.55,1.23,1.23,0,0,0,.71.19,1.27,1.27,0,0,0,.72-.19,1.25,1.25,0,0,0,.46-.55,2.28,2.28,0,0,0,0-1.68,1.25,1.25,0,0,0-.46-.55A1.35,1.35,0,0,0,29.6,28.39Z"/><path d="M34.87,32.12a1.53,1.53,0,0,1-.64-.13,1.39,1.39,0,0,1-.51-.34,1.54,1.54,0,0,1-.33-.51l.1-.11-.06,1h-.58V26h.66v2.83l-.08-.12a1.33,1.33,0,0,1,.56-.64,1.6,1.6,0,0,1,.89-.26,1.8,1.8,0,0,1,.94.26,1.83,1.83,0,0,1,.69.74A2.38,2.38,0,0,1,36.76,30a2.3,2.3,0,0,1-.26,1.15,1.77,1.77,0,0,1-.69.74A1.8,1.8,0,0,1,34.87,32.12Zm-.06-.58a1.15,1.15,0,0,0,.95-.43,2.08,2.08,0,0,0,0-2.28,1.14,1.14,0,0,0-.94-.43,1.24,1.24,0,0,0-.69.2,1.37,1.37,0,0,0-.45.55,2,2,0,0,0-.17.84,1.91,1.91,0,0,0,.16.82,1.28,1.28,0,0,0,.46.54A1.18,1.18,0,0,0,34.81,31.54Z"/><path d="M40.44,29.37a.87.87,0,0,0-.95-1,1.3,1.3,0,0,0-.73.19,1,1,0,0,0-.43.6l-.54-.33a1.44,1.44,0,0,1,.61-.75,2,2,0,0,1,1.11-.29,2.08,2.08,0,0,1,.8.16,1.21,1.21,0,0,1,.58.46,1.4,1.4,0,0,1,.21.8v2c0,.2.1.3.31.3a1.06,1.06,0,0,0,.31,0l0,.52a.92.92,0,0,1-.43.08,1,1,0,0,1-.43-.09.66.66,0,0,1-.3-.27,1,1,0,0,1-.11-.47v-.08l.17,0a1.13,1.13,0,0,1-.34.53,1.57,1.57,0,0,1-.54.29,1.73,1.73,0,0,1-.58.1,1.68,1.68,0,0,1-.68-.13,1,1,0,0,1-.5-.37,1.11,1.11,0,0,1,.12-1.39,1.69,1.69,0,0,1,.87-.41l1.63-.32v.55l-1.33.27a1.42,1.42,0,0,0-.6.23.5.5,0,0,0-.2.41.53.53,0,0,0,.2.42.91.91,0,0,0,.58.16,1.76,1.76,0,0,0,.46-.06,1.41,1.41,0,0,0,.39-.19,1,1,0,0,0,.27-.32,1,1,0,0,0,.1-.46Z"/><path d="M43.33,26v5a.65.65,0,0,0,.11.43.52.52,0,0,0,.38.12l.27,0,.29-.1-.11.58a1.23,1.23,0,0,1-.29.09,1.66,1.66,0,0,1-.32,0,1,1,0,0,1-.75-.27,1.26,1.26,0,0,1-.24-.84V26Z"/><rect class="cls-2" x="70.25" y="22" width="54" height="16"/><path d="M87.46,32.12a2.61,2.61,0,0,1-1.34-.34,2.36,2.36,0,0,1-.88-1,3.46,3.46,0,0,1-.31-1.5,3.12,3.12,0,0,1,.33-1.49,2.31,2.31,0,0,1,.91-1,2.61,2.61,0,0,1,1.35-.35,2.58,2.58,0,0,1,1.32.31,2.24,2.24,0,0,1,.82.94l-.61.33a1.4,1.4,0,0,0-.57-.71,1.72,1.72,0,0,0-1-.25,1.76,1.76,0,0,0-1.65,1,2.67,2.67,0,0,0-.24,1.18,3,3,0,0,0,.21,1.18,1.56,1.56,0,0,0,.63.75,1.88,1.88,0,0,0,1,.26,2.18,2.18,0,0,0,.63-.09,1.54,1.54,0,0,0,.51-.26,1.16,1.16,0,0,0,.34-.44,1.44,1.44,0,0,0,.13-.61v-.19H87.36v-.62H89.7V32h-.52l0-1,.15,0a1.67,1.67,0,0,1-.68.8A2.25,2.25,0,0,1,87.46,32.12Z"/><path d="M91.75,26v5a.6.6,0,0,0,.11.43.5.5,0,0,0,.37.12l.28,0,.28-.1-.1.58a1.4,1.4,0,0,1-.29.09,1.73,1.73,0,0,1-.32,0,1,1,0,0,1-.75-.27,1.26,1.26,0,0,1-.24-.84V26Z"/><path d="M95.35,27.82a2.06,2.06,0,0,1,1,.26,1.81,1.81,0,0,1,.71.74A2.44,2.44,0,0,1,97.35,30a2.41,2.41,0,0,1-.25,1.15,1.75,1.75,0,0,1-.71.74,2.19,2.19,0,0,1-2.07,0,1.75,1.75,0,0,1-.71-.74A2.41,2.41,0,0,1,93.36,30a2.44,2.44,0,0,1,.25-1.15,1.81,1.81,0,0,1,.71-.74A2.07,2.07,0,0,1,95.35,27.82Zm0,.57a1.32,1.32,0,0,0-.71.19,1.19,1.19,0,0,0-.46.55,2.28,2.28,0,0,0,0,1.68,1.19,1.19,0,0,0,.46.55,1.23,1.23,0,0,0,.71.19,1.27,1.27,0,0,0,.72-.19,1.25,1.25,0,0,0,.46-.55,2.29,2.29,0,0,0,0-1.68,1.25,1.25,0,0,0-.46-.55A1.35,1.35,0,0,0,95.35,28.39Z"/><path d="M100.62,32.12A1.53,1.53,0,0,1,100,32a1.39,1.39,0,0,1-.51-.34,1.54,1.54,0,0,1-.33-.51l.1-.11-.06,1H98.6V26h.66v2.83l-.08-.12a1.33,1.33,0,0,1,.56-.64,1.6,1.6,0,0,1,.89-.26,1.8,1.8,0,0,1,.94.26,1.83,1.83,0,0,1,.69.74,2.38,2.38,0,0,1,.25,1.15,2.3,2.3,0,0,1-.26,1.15,1.77,1.77,0,0,1-.69.74A1.8,1.8,0,0,1,100.62,32.12Zm-.06-.58a1.15,1.15,0,0,0,1-.43,2.08,2.08,0,0,0,0-2.28,1.14,1.14,0,0,0-.94-.43,1.24,1.24,0,0,0-.69.2,1.37,1.37,0,0,0-.45.55,2,2,0,0,0-.17.84,1.91,1.91,0,0,0,.16.82,1.28,1.28,0,0,0,.46.54A1.18,1.18,0,0,0,100.56,31.54Z"/><path d="M106.19,29.37a.87.87,0,0,0-1-1,1.3,1.3,0,0,0-.73.19,1,1,0,0,0-.43.6l-.54-.33a1.44,1.44,0,0,1,.61-.75,2,2,0,0,1,1.11-.29,2.08,2.08,0,0,1,.8.16,1.21,1.21,0,0,1,.58.46,1.4,1.4,0,0,1,.21.8v2c0,.2.1.3.31.3a1.06,1.06,0,0,0,.31,0l0,.52a.92.92,0,0,1-.43.08,1,1,0,0,1-.43-.09.66.66,0,0,1-.3-.27,1,1,0,0,1-.11-.47v-.08l.17,0a1.13,1.13,0,0,1-.34.53,1.57,1.57,0,0,1-.54.29,1.73,1.73,0,0,1-.58.1,1.68,1.68,0,0,1-.68-.13,1,1,0,0,1-.5-.37,1.11,1.11,0,0,1,.12-1.39,1.69,1.69,0,0,1,.87-.41l1.63-.32v.55l-1.33.27a1.42,1.42,0,0,0-.6.23.5.5,0,0,0-.2.41.53.53,0,0,0,.2.42.91.91,0,0,0,.58.16,1.76,1.76,0,0,0,.46-.06,1.41,1.41,0,0,0,.39-.19,1,1,0,0,0,.27-.32,1,1,0,0,0,.1-.46Z"/><path d="M109.08,26v5a.65.65,0,0,0,.11.43.52.52,0,0,0,.38.12l.27,0,.29-.1L110,32a1.23,1.23,0,0,1-.29.09,1.66,1.66,0,0,1-.32,0,1,1,0,0,1-.75-.27,1.26,1.26,0,0,1-.24-.84V26Z"/><rect class="cls-2" x="136" y="22" width="54" height="16"/><path d="M153.21,32.12a2.61,2.61,0,0,1-1.34-.34,2.36,2.36,0,0,1-.88-1,3.46,3.46,0,0,1-.31-1.5,3.12,3.12,0,0,1,.33-1.49,2.31,2.31,0,0,1,.91-1,2.61,2.61,0,0,1,1.35-.35,2.58,2.58,0,0,1,1.32.31,2.24,2.24,0,0,1,.82.94l-.61.33a1.4,1.4,0,0,0-.57-.71,1.72,1.72,0,0,0-1-.25,1.76,1.76,0,0,0-1.65,1,2.67,2.67,0,0,0-.24,1.18,3,3,0,0,0,.21,1.18,1.56,1.56,0,0,0,.63.75,1.88,1.88,0,0,0,1,.26,2.18,2.18,0,0,0,.63-.09,1.54,1.54,0,0,0,.51-.26,1.16,1.16,0,0,0,.34-.44,1.44,1.44,0,0,0,.13-.61v-.19h-1.74v-.62h2.34V32h-.52l0-1,.15,0a1.67,1.67,0,0,1-.68.8A2.25,2.25,0,0,1,153.21,32.12Z"/><path d="M157.5,26v5a.6.6,0,0,0,.11.43.5.5,0,0,0,.37.12l.28,0,.28-.1-.1.58a1.4,1.4,0,0,1-.29.09,1.73,1.73,0,0,1-.32,0,1,1,0,0,1-.75-.27,1.26,1.26,0,0,1-.24-.84V26Z"/><path d="M161.1,27.82a2.06,2.06,0,0,1,1,.26,1.81,1.81,0,0,1,.71.74A2.44,2.44,0,0,1,163.1,30a2.41,2.41,0,0,1-.25,1.15,1.75,1.75,0,0,1-.71.74,2.19,2.19,0,0,1-2.07,0,1.75,1.75,0,0,1-.71-.74,2.41,2.41,0,0,1-.25-1.15,2.44,2.44,0,0,1,.25-1.15,1.81,1.81,0,0,1,.71-.74A2.07,2.07,0,0,1,161.1,27.82Zm0,.57a1.32,1.32,0,0,0-.71.19,1.19,1.19,0,0,0-.46.55,2.28,2.28,0,0,0,0,1.68,1.19,1.19,0,0,0,.46.55,1.23,1.23,0,0,0,.71.19,1.27,1.27,0,0,0,.72-.19,1.25,1.25,0,0,0,.46-.55,2.29,2.29,0,0,0,0-1.68,1.25,1.25,0,0,0-.46-.55A1.35,1.35,0,0,0,161.1,28.39Z"/><path d="M166.37,32.12a1.53,1.53,0,0,1-.64-.13,1.39,1.39,0,0,1-.51-.34,1.54,1.54,0,0,1-.33-.51L165,31l-.06,1h-.58V26H165v2.83l-.08-.12a1.33,1.33,0,0,1,.56-.64,1.6,1.6,0,0,1,.89-.26,1.8,1.8,0,0,1,.94.26,1.83,1.83,0,0,1,.69.74,2.38,2.38,0,0,1,.25,1.15,2.3,2.3,0,0,1-.26,1.15,1.77,1.77,0,0,1-.69.74A1.8,1.8,0,0,1,166.37,32.12Zm-.06-.58a1.15,1.15,0,0,0,.95-.43,2.08,2.08,0,0,0,0-2.28,1.14,1.14,0,0,0-.94-.43,1.24,1.24,0,0,0-.69.2,1.37,1.37,0,0,0-.45.55A2,2,0,0,0,165,30a1.91,1.91,0,0,0,.16.82,1.28,1.28,0,0,0,.46.54A1.18,1.18,0,0,0,166.31,31.54Z"/><path d="M171.94,29.37a.87.87,0,0,0-.95-1,1.3,1.3,0,0,0-.73.19,1,1,0,0,0-.43.6l-.54-.33a1.44,1.44,0,0,1,.61-.75,2,2,0,0,1,1.11-.29,2.08,2.08,0,0,1,.8.16,1.21,1.21,0,0,1,.58.46,1.4,1.4,0,0,1,.21.8v2c0,.2.1.3.31.3a1.06,1.06,0,0,0,.31,0l0,.52a.92.92,0,0,1-.43.08,1,1,0,0,1-.43-.09.66.66,0,0,1-.3-.27,1,1,0,0,1-.11-.47v-.08l.17,0a1.13,1.13,0,0,1-.34.53,1.57,1.57,0,0,1-.54.29,1.73,1.73,0,0,1-.58.1A1.68,1.68,0,0,1,170,32a1,1,0,0,1-.5-.37,1.11,1.11,0,0,1,.12-1.39,1.69,1.69,0,0,1,.87-.41l1.63-.32v.55l-1.33.27a1.42,1.42,0,0,0-.6.23.5.5,0,0,0-.2.41.53.53,0,0,0,.2.42.91.91,0,0,0,.58.16,1.76,1.76,0,0,0,.46-.06,1.41,1.41,0,0,0,.39-.19,1,1,0,0,0,.27-.32,1,1,0,0,0,.1-.46Z"/><path d="M174.83,26v5a.65.65,0,0,0,.11.43.52.52,0,0,0,.38.12l.27,0,.29-.1-.11.58a1.23,1.23,0,0,1-.29.09,1.66,1.66,0,0,1-.32,0,1,1,0,0,1-.75-.27,1.26,1.26,0,0,1-.24-.84V26Z"/><rect class="cls-2" x="201.75" y="22" width="54" height="16"/><path d="M219,32.12a2.61,2.61,0,0,1-1.34-.34,2.36,2.36,0,0,1-.88-1,3.46,3.46,0,0,1-.31-1.5,3.12,3.12,0,0,1,.33-1.49,2.31,2.31,0,0,1,.91-1A2.61,2.61,0,0,1,219,26.5a2.58,2.58,0,0,1,1.32.31,2.24,2.24,0,0,1,.82.94l-.61.33a1.4,1.4,0,0,0-.57-.71,1.72,1.72,0,0,0-1-.25,1.76,1.76,0,0,0-1.65,1,2.67,2.67,0,0,0-.24,1.18,3,3,0,0,0,.21,1.18,1.56,1.56,0,0,0,.63.75,1.88,1.88,0,0,0,1,.26,2.18,2.18,0,0,0,.63-.09,1.54,1.54,0,0,0,.51-.26,1.16,1.16,0,0,0,.34-.44,1.44,1.44,0,0,0,.13-.61v-.19h-1.74v-.62h2.34V32h-.52l0-1,.15,0a1.67,1.67,0,0,1-.68.8A2.25,2.25,0,0,1,219,32.12Z"/><path d="M223.25,26v5a.6.6,0,0,0,.11.43.5.5,0,0,0,.37.12l.28,0,.28-.1-.1.58a1.4,1.4,0,0,1-.29.09,1.73,1.73,0,0,1-.32,0,1,1,0,0,1-.75-.27,1.26,1.26,0,0,1-.24-.84V26Z"/><path d="M226.85,27.82a2.06,2.06,0,0,1,1,.26,1.81,1.81,0,0,1,.71.74,2.44,2.44,0,0,1,.25,1.15,2.41,2.41,0,0,1-.25,1.15,1.75,1.75,0,0,1-.71.74,2.19,2.19,0,0,1-2.07,0,1.75,1.75,0,0,1-.71-.74,2.41,2.41,0,0,1-.25-1.15,2.44,2.44,0,0,1,.25-1.15,1.81,1.81,0,0,1,.71-.74A2.07,2.07,0,0,1,226.85,27.82Zm0,.57a1.32,1.32,0,0,0-.71.19,1.19,1.19,0,0,0-.46.55,2.28,2.28,0,0,0,0,1.68,1.19,1.19,0,0,0,.46.55,1.23,1.23,0,0,0,.71.19,1.27,1.27,0,0,0,.72-.19,1.25,1.25,0,0,0,.46-.55,2.29,2.29,0,0,0,0-1.68,1.25,1.25,0,0,0-.46-.55A1.35,1.35,0,0,0,226.85,28.39Z"/><path d="M232.12,32.12a1.53,1.53,0,0,1-.64-.13,1.39,1.39,0,0,1-.51-.34,1.54,1.54,0,0,1-.33-.51l.1-.11-.06,1h-.58V26h.66v2.83l-.08-.12a1.33,1.33,0,0,1,.56-.64,1.6,1.6,0,0,1,.89-.26,1.8,1.8,0,0,1,.94.26,1.83,1.83,0,0,1,.69.74A2.38,2.38,0,0,1,234,30a2.3,2.3,0,0,1-.26,1.15,1.77,1.77,0,0,1-.69.74A1.8,1.8,0,0,1,232.12,32.12Zm-.06-.58a1.15,1.15,0,0,0,.95-.43,2.08,2.08,0,0,0,0-2.28,1.14,1.14,0,0,0-.94-.43,1.24,1.24,0,0,0-.69.2,1.37,1.37,0,0,0-.45.55,2,2,0,0,0-.17.84,1.91,1.91,0,0,0,.16.82,1.28,1.28,0,0,0,.46.54A1.18,1.18,0,0,0,232.06,31.54Z"/><path d="M237.69,29.37a.87.87,0,0,0-.95-1,1.3,1.3,0,0,0-.73.19,1,1,0,0,0-.43.6l-.54-.33a1.44,1.44,0,0,1,.61-.75,2,2,0,0,1,1.11-.29,2.08,2.08,0,0,1,.8.16,1.21,1.21,0,0,1,.58.46,1.4,1.4,0,0,1,.21.8v2c0,.2.1.3.31.3a1.06,1.06,0,0,0,.31,0l0,.52a.92.92,0,0,1-.43.08,1,1,0,0,1-.43-.09.66.66,0,0,1-.3-.27,1,1,0,0,1-.11-.47v-.08l.17,0a1.13,1.13,0,0,1-.34.53A1.57,1.57,0,0,1,237,32a1.73,1.73,0,0,1-.58.1,1.68,1.68,0,0,1-.68-.13,1,1,0,0,1-.5-.37,1.11,1.11,0,0,1,.12-1.39,1.69,1.69,0,0,1,.87-.41l1.63-.32v.55l-1.33.27a1.42,1.42,0,0,0-.6.23.5.5,0,0,0-.2.41.53.53,0,0,0,.2.42.91.91,0,0,0,.58.16,1.76,1.76,0,0,0,.46-.06,1.41,1.41,0,0,0,.39-.19,1,1,0,0,0,.27-.32,1,1,0,0,0,.1-.46Z"/><path d="M240.58,26v5a.65.65,0,0,0,.11.43.52.52,0,0,0,.38.12l.27,0,.29-.1-.11.58a1.23,1.23,0,0,1-.29.09,1.66,1.66,0,0,1-.32,0,1,1,0,0,1-.75-.27,1.26,1.26,0,0,1-.24-.84V26Z"/><rect class="cls-2" x="267.5" y="22" width="54" height="16"/><path d="M284.71,32.12a2.61,2.61,0,0,1-1.34-.34,2.36,2.36,0,0,1-.88-1,3.46,3.46,0,0,1-.31-1.5,3.12,3.12,0,0,1,.33-1.49,2.31,2.31,0,0,1,.91-1,2.61,2.61,0,0,1,1.35-.35,2.58,2.58,0,0,1,1.32.31,2.24,2.24,0,0,1,.82.94l-.61.33a1.4,1.4,0,0,0-.57-.71,1.72,1.72,0,0,0-1-.25,1.76,1.76,0,0,0-1.65,1,2.67,2.67,0,0,0-.24,1.18,3,3,0,0,0,.21,1.18,1.56,1.56,0,0,0,.63.75,1.88,1.88,0,0,0,1,.26,2.18,2.18,0,0,0,.63-.09,1.54,1.54,0,0,0,.51-.26,1.16,1.16,0,0,0,.34-.44,1.44,1.44,0,0,0,.13-.61v-.19h-1.74v-.62H287V32h-.52l0-1,.15,0a1.67,1.67,0,0,1-.68.8A2.25,2.25,0,0,1,284.71,32.12Z"/><path d="M289,26v5a.6.6,0,0,0,.11.43.5.5,0,0,0,.37.12l.28,0,.28-.1-.1.58a1.4,1.4,0,0,1-.29.09,1.73,1.73,0,0,1-.32,0,1,1,0,0,1-.75-.27,1.26,1.26,0,0,1-.24-.84V26Z"/><path d="M292.6,27.82a2.06,2.06,0,0,1,1,.26,1.81,1.81,0,0,1,.71.74A2.44,2.44,0,0,1,294.6,30a2.41,2.41,0,0,1-.25,1.15,1.75,1.75,0,0,1-.71.74,2.19,2.19,0,0,1-2.07,0,1.75,1.75,0,0,1-.71-.74,2.41,2.41,0,0,1-.25-1.15,2.44,2.44,0,0,1,.25-1.15,1.81,1.81,0,0,1,.71-.74A2.07,2.07,0,0,1,292.6,27.82Zm0,.57a1.32,1.32,0,0,0-.71.19,1.19,1.19,0,0,0-.46.55,2.29,2.29,0,0,0,0,1.68,1.19,1.19,0,0,0,.46.55,1.23,1.23,0,0,0,.71.19,1.27,1.27,0,0,0,.72-.19,1.25,1.25,0,0,0,.46-.55,2.28,2.28,0,0,0,0-1.68,1.25,1.25,0,0,0-.46-.55A1.35,1.35,0,0,0,292.6,28.39Z"/><path d="M297.87,32.12a1.53,1.53,0,0,1-.64-.13,1.39,1.39,0,0,1-.51-.34,1.54,1.54,0,0,1-.33-.51l.1-.11-.06,1h-.58V26h.66v2.83l-.08-.12a1.33,1.33,0,0,1,.56-.64,1.6,1.6,0,0,1,.89-.26,1.8,1.8,0,0,1,.94.26,1.83,1.83,0,0,1,.69.74,2.38,2.38,0,0,1,.25,1.15,2.3,2.3,0,0,1-.26,1.15,1.77,1.77,0,0,1-.69.74A1.8,1.8,0,0,1,297.87,32.12Zm-.06-.58a1.15,1.15,0,0,0,.95-.43,2.08,2.08,0,0,0,0-2.28,1.14,1.14,0,0,0-.94-.43,1.24,1.24,0,0,0-.69.2,1.37,1.37,0,0,0-.45.55,2,2,0,0,0-.17.84,1.91,1.91,0,0,0,.16.82,1.28,1.28,0,0,0,.46.54A1.18,1.18,0,0,0,297.81,31.54Z"/><path d="M303.44,29.37a.87.87,0,0,0-.95-1,1.3,1.3,0,0,0-.73.19,1,1,0,0,0-.43.6l-.54-.33a1.44,1.44,0,0,1,.61-.75,2,2,0,0,1,1.11-.29,2.08,2.08,0,0,1,.8.16,1.21,1.21,0,0,1,.58.46,1.4,1.4,0,0,1,.21.8v2c0,.2.1.3.31.3a1.06,1.06,0,0,0,.31,0l0,.52a.92.92,0,0,1-.43.08,1,1,0,0,1-.43-.09.66.66,0,0,1-.3-.27,1,1,0,0,1-.11-.47v-.08l.17,0a1.13,1.13,0,0,1-.34.53,1.57,1.57,0,0,1-.54.29,1.73,1.73,0,0,1-.58.1,1.68,1.68,0,0,1-.68-.13,1,1,0,0,1-.5-.37,1.11,1.11,0,0,1,.12-1.39,1.69,1.69,0,0,1,.87-.41l1.63-.32v.55l-1.33.27a1.42,1.42,0,0,0-.6.23.5.5,0,0,0-.2.41.53.53,0,0,0,.2.42.91.91,0,0,0,.58.16,1.76,1.76,0,0,0,.46-.06,1.41,1.41,0,0,0,.39-.19,1,1,0,0,0,.27-.32,1,1,0,0,0,.1-.46Z"/><path d="M306.33,26v5a.65.65,0,0,0,.11.43.52.52,0,0,0,.38.12l.27,0,.29-.1-.11.58a1.23,1.23,0,0,1-.29.09,1.66,1.66,0,0,1-.32,0,1,1,0,0,1-.75-.27,1.26,1.26,0,0,1-.24-.84V26Z"/><rect class="cls-2" x="333.25" y="22" width="54" height="16"/><path d="M350.46,32.12a2.61,2.61,0,0,1-1.34-.34,2.36,2.36,0,0,1-.88-1,3.46,3.46,0,0,1-.31-1.5,3.12,3.12,0,0,1,.33-1.49,2.31,2.31,0,0,1,.91-1,2.61,2.61,0,0,1,1.35-.35,2.58,2.58,0,0,1,1.32.31,2.24,2.24,0,0,1,.82.94l-.61.33a1.4,1.4,0,0,0-.57-.71,1.72,1.72,0,0,0-1-.25,1.76,1.76,0,0,0-1.65,1,2.67,2.67,0,0,0-.24,1.18,3,3,0,0,0,.21,1.18,1.56,1.56,0,0,0,.63.75,1.88,1.88,0,0,0,1,.26,2.18,2.18,0,0,0,.63-.09,1.54,1.54,0,0,0,.51-.26,1.16,1.16,0,0,0,.34-.44,1.44,1.44,0,0,0,.13-.61v-.19h-1.74v-.62h2.34V32h-.52l0-1,.15,0a1.67,1.67,0,0,1-.68.8A2.25,2.25,0,0,1,350.46,32.12Z"/><path d="M354.75,26v5a.6.6,0,0,0,.11.43.5.5,0,0,0,.37.12l.28,0,.29-.1-.11.58a1.4,1.4,0,0,1-.29.09,1.73,1.73,0,0,1-.32,0,1,1,0,0,1-.75-.27,1.26,1.26,0,0,1-.24-.84V26Z"/><path d="M358.35,27.82a2.06,2.06,0,0,1,1,.26,1.81,1.81,0,0,1,.71.74,2.44,2.44,0,0,1,.25,1.15,2.41,2.41,0,0,1-.25,1.15,1.75,1.75,0,0,1-.71.74,2.06,2.06,0,0,1-1,.26,2.1,2.1,0,0,1-1-.26,1.75,1.75,0,0,1-.71-.74,2.41,2.41,0,0,1-.25-1.15,2.44,2.44,0,0,1,.25-1.15,1.81,1.81,0,0,1,.71-.74A2.1,2.1,0,0,1,358.35,27.82Zm0,.57a1.32,1.32,0,0,0-.71.19,1.25,1.25,0,0,0-.46.55,2.29,2.29,0,0,0,0,1.68,1.25,1.25,0,0,0,.46.55,1.44,1.44,0,0,0,1.43,0,1.25,1.25,0,0,0,.46-.55,2.28,2.28,0,0,0,0-1.68,1.25,1.25,0,0,0-.46-.55A1.33,1.33,0,0,0,358.35,28.39Z"/><path d="M363.62,32.12A1.53,1.53,0,0,1,363,32a1.39,1.39,0,0,1-.51-.34,1.54,1.54,0,0,1-.33-.51l.1-.11-.06,1h-.58V26h.66v2.83l-.08-.12a1.33,1.33,0,0,1,.56-.64,1.6,1.6,0,0,1,.89-.26,1.8,1.8,0,0,1,.94.26,1.83,1.83,0,0,1,.69.74,2.38,2.38,0,0,1,.25,1.15,2.3,2.3,0,0,1-.26,1.15,1.77,1.77,0,0,1-.69.74A1.8,1.8,0,0,1,363.62,32.12Zm-.06-.58a1.15,1.15,0,0,0,.95-.43,2.08,2.08,0,0,0,0-2.28,1.14,1.14,0,0,0-.94-.43,1.24,1.24,0,0,0-.69.2,1.37,1.37,0,0,0-.45.55,2,2,0,0,0-.17.84,1.91,1.91,0,0,0,.16.82,1.28,1.28,0,0,0,.46.54A1.18,1.18,0,0,0,363.56,31.54Z"/><path d="M369.19,29.37a.87.87,0,0,0-.95-1,1.3,1.3,0,0,0-.73.19,1,1,0,0,0-.43.6l-.54-.33a1.44,1.44,0,0,1,.61-.75,2,2,0,0,1,1.11-.29,2.08,2.08,0,0,1,.8.16,1.21,1.21,0,0,1,.58.46,1.4,1.4,0,0,1,.21.8v2c0,.2.1.3.31.3a1.06,1.06,0,0,0,.31,0l0,.52a.92.92,0,0,1-.43.08,1,1,0,0,1-.43-.09.66.66,0,0,1-.3-.27,1,1,0,0,1-.11-.47v-.08l.17,0a1.13,1.13,0,0,1-.34.53,1.57,1.57,0,0,1-.54.29,1.73,1.73,0,0,1-.58.1,1.68,1.68,0,0,1-.68-.13,1,1,0,0,1-.5-.37,1.11,1.11,0,0,1,.12-1.39,1.69,1.69,0,0,1,.87-.41l1.63-.32v.55l-1.33.27a1.42,1.42,0,0,0-.6.23.5.5,0,0,0-.2.41.53.53,0,0,0,.2.42.91.91,0,0,0,.58.16,1.76,1.76,0,0,0,.46-.06,1.41,1.41,0,0,0,.39-.19,1,1,0,0,0,.27-.32,1,1,0,0,0,.1-.46Z"/><path d="M372.08,26v5a.65.65,0,0,0,.11.43.52.52,0,0,0,.38.12l.27,0,.29-.1L373,32a1.23,1.23,0,0,1-.29.09,1.66,1.66,0,0,1-.32,0,1,1,0,0,1-.75-.27,1.26,1.26,0,0,1-.24-.84V26Z"/><rect class="cls-2" x="399" y="22" width="54" height="16"/><path d="M416.21,32.12a2.61,2.61,0,0,1-1.34-.34,2.36,2.36,0,0,1-.88-1,3.46,3.46,0,0,1-.31-1.5,3.12,3.12,0,0,1,.33-1.49,2.31,2.31,0,0,1,.91-1,2.61,2.61,0,0,1,1.35-.35,2.58,2.58,0,0,1,1.32.31,2.24,2.24,0,0,1,.82.94l-.61.33a1.4,1.4,0,0,0-.57-.71,1.72,1.72,0,0,0-1-.25,1.76,1.76,0,0,0-1.65,1,2.67,2.67,0,0,0-.24,1.18,3,3,0,0,0,.21,1.18,1.56,1.56,0,0,0,.63.75,1.88,1.88,0,0,0,1,.26,2.18,2.18,0,0,0,.63-.09,1.54,1.54,0,0,0,.51-.26,1.16,1.16,0,0,0,.34-.44,1.44,1.44,0,0,0,.13-.61v-.19h-1.74v-.62h2.34V32h-.52l0-1,.15,0a1.67,1.67,0,0,1-.68.8A2.25,2.25,0,0,1,416.21,32.12Z"/><path d="M420.5,26v5a.6.6,0,0,0,.11.43.5.5,0,0,0,.37.12l.28,0,.29-.1-.11.58a1.4,1.4,0,0,1-.29.09,1.73,1.73,0,0,1-.32,0,1,1,0,0,1-.75-.27,1.26,1.26,0,0,1-.24-.84V26Z"/><path d="M424.1,27.82a2.06,2.06,0,0,1,1,.26,1.81,1.81,0,0,1,.71.74A2.44,2.44,0,0,1,426.1,30a2.41,2.41,0,0,1-.25,1.15,1.75,1.75,0,0,1-.71.74,2.06,2.06,0,0,1-1,.26,2.1,2.1,0,0,1-1-.26,1.75,1.75,0,0,1-.71-.74,2.41,2.41,0,0,1-.25-1.15,2.44,2.44,0,0,1,.25-1.15,1.81,1.81,0,0,1,.71-.74A2.1,2.1,0,0,1,424.1,27.82Zm0,.57a1.32,1.32,0,0,0-.71.19,1.25,1.25,0,0,0-.46.55,2.29,2.29,0,0,0,0,1.68,1.25,1.25,0,0,0,.46.55,1.44,1.44,0,0,0,1.43,0,1.25,1.25,0,0,0,.46-.55,2.28,2.28,0,0,0,0-1.68,1.25,1.25,0,0,0-.46-.55A1.33,1.33,0,0,0,424.1,28.39Z"/><path d="M429.37,32.12a1.53,1.53,0,0,1-.64-.13,1.39,1.39,0,0,1-.51-.34,1.54,1.54,0,0,1-.33-.51L428,31l-.06,1h-.58V26H428v2.83l-.08-.12a1.33,1.33,0,0,1,.56-.64,1.6,1.6,0,0,1,.89-.26,1.8,1.8,0,0,1,.94.26,1.83,1.83,0,0,1,.69.74,2.38,2.38,0,0,1,.25,1.15,2.3,2.3,0,0,1-.26,1.15,1.77,1.77,0,0,1-.69.74A1.8,1.8,0,0,1,429.37,32.12Zm-.06-.58a1.15,1.15,0,0,0,.95-.43,2.08,2.08,0,0,0,0-2.28,1.14,1.14,0,0,0-.94-.43,1.24,1.24,0,0,0-.69.2,1.37,1.37,0,0,0-.45.55A2,2,0,0,0,428,30a1.91,1.91,0,0,0,.16.82,1.28,1.28,0,0,0,.46.54A1.18,1.18,0,0,0,429.31,31.54Z"/><path d="M434.94,29.37a.87.87,0,0,0-.95-1,1.3,1.3,0,0,0-.73.19,1,1,0,0,0-.43.6l-.54-.33a1.44,1.44,0,0,1,.61-.75,2,2,0,0,1,1.11-.29,2.08,2.08,0,0,1,.8.16,1.21,1.21,0,0,1,.58.46,1.4,1.4,0,0,1,.21.8v2c0,.2.1.3.31.3a1.06,1.06,0,0,0,.31,0l0,.52a.92.92,0,0,1-.43.08,1,1,0,0,1-.43-.09.66.66,0,0,1-.3-.27,1,1,0,0,1-.11-.47v-.08l.17,0a1.13,1.13,0,0,1-.34.53,1.57,1.57,0,0,1-.54.29,1.73,1.73,0,0,1-.58.1A1.68,1.68,0,0,1,433,32a1,1,0,0,1-.5-.37,1.11,1.11,0,0,1,.12-1.39,1.69,1.69,0,0,1,.87-.41l1.63-.32v.55l-1.33.27a1.42,1.42,0,0,0-.6.23.5.5,0,0,0-.2.41.53.53,0,0,0,.2.42.91.91,0,0,0,.58.16,1.76,1.76,0,0,0,.46-.06,1.41,1.41,0,0,0,.39-.19,1,1,0,0,0,.27-.32,1,1,0,0,0,.1-.46Z"/><path d="M437.83,26v5a.65.65,0,0,0,.11.43.52.52,0,0,0,.38.12l.27,0,.29-.1-.11.58a1.23,1.23,0,0,1-.29.09,1.66,1.66,0,0,1-.32,0,1,1,0,0,1-.75-.27,1.26,1.26,0,0,1-.24-.84V26Z"/><rect class="cls-2" x="70" width="54" height="16"/><path d="M76.83,4l.37.37a4.34,4.34,0,0,0-.84,1,3.87,3.87,0,0,0-.45,1.12,5.6,5.6,0,0,0-.13,1.26A5.57,5.57,0,0,0,75.91,9a3.76,3.76,0,0,0,.45,1.12,4.6,4.6,0,0,0,.84,1l-.37.37a5,5,0,0,1-1.28-1.69,4.89,4.89,0,0,1-.43-2.07,4.93,4.93,0,0,1,.43-2.08A4.83,4.83,0,0,1,76.83,4Z"/><path d="M80.26,6v.55H77.49V6ZM79.6,4.16a1.61,1.61,0,0,1,.39,0,.78.78,0,0,1,.29.14l-.17.52a.67.67,0,0,0-.21-.09.88.88,0,0,0-.24,0,.81.81,0,0,0-.54.16.66.66,0,0,0-.19.53V10h-.64V5.36a1.46,1.46,0,0,1,.08-.48,1,1,0,0,1,.24-.39A1.29,1.29,0,0,1,79,4.24,2,2,0,0,1,79.6,4.16Z"/><path d="M83.22,7.45a.84.84,0,0,0-.92-.93,1.31,1.31,0,0,0-.71.18,1,1,0,0,0-.42.58L80.65,7a1.44,1.44,0,0,1,.59-.73A2.27,2.27,0,0,1,83.1,6.1a1.22,1.22,0,0,1,.55.45,1.32,1.32,0,0,1,.21.77V9.26a.26.26,0,0,0,.3.29,1.54,1.54,0,0,0,.3,0l0,.5a.81.81,0,0,1-.41.08,1,1,0,0,1-.42-.09.66.66,0,0,1-.29-.26,1,1,0,0,1-.1-.46V9.2l.16,0a1,1,0,0,1-.33.51,1.46,1.46,0,0,1-.52.28,1.63,1.63,0,0,1-.57.1,1.75,1.75,0,0,1-.65-.12,1.14,1.14,0,0,1-.49-.37,1.07,1.07,0,0,1,.12-1.34,1.58,1.58,0,0,1,.84-.4l1.58-.31v.53l-1.28.26a1.42,1.42,0,0,0-.59.23.46.46,0,0,0-.19.4.49.49,0,0,0,.2.4.88.88,0,0,0,.55.16,1.63,1.63,0,0,0,.45-.06,1.35,1.35,0,0,0,.38-.19A.79.79,0,0,0,83.12,9a1,1,0,0,0,.1-.44Z"/><path d="M87.06,6a2.09,2.09,0,0,1,.74.12,1.58,1.58,0,0,1,.54.37,1.9,1.9,0,0,1,.38.57l-.61.29a1.14,1.14,0,0,0-.39-.59,1,1,0,0,0-.67-.2,1.27,1.27,0,0,0-.69.18,1.13,1.13,0,0,0-.44.52,2,2,0,0,0-.15.82,2,2,0,0,0,.15.81,1.16,1.16,0,0,0,.44.53,1.27,1.27,0,0,0,.69.18,1.44,1.44,0,0,0,.54-.1A.87.87,0,0,0,88,9.18a1,1,0,0,0,.21-.45l.59.21a1.78,1.78,0,0,1-.37.63,1.66,1.66,0,0,1-.57.41,2,2,0,0,1-.76.14,2.09,2.09,0,0,1-1-.25,1.75,1.75,0,0,1-.68-.72A2.28,2.28,0,0,1,85.13,8a2.29,2.29,0,0,1,.25-1.12,1.75,1.75,0,0,1,.68-.72A2.08,2.08,0,0,1,87.06,6Z"/><path d="M92.29,6v.55h-2.9V6ZM90.83,4.9v4a.54.54,0,0,0,.17.44.63.63,0,0,0,.43.15,1,1,0,0,0,.4-.08,1.34,1.34,0,0,0,.31-.22l.22.54a1.28,1.28,0,0,1-.44.26,1.67,1.67,0,0,1-.58.1,1.47,1.47,0,0,1-.56-.11.85.85,0,0,1-.42-.35A1.11,1.11,0,0,1,90.19,9v-4Z"/><path d="M94.9,6a2,2,0,0,1,1,.24,1.75,1.75,0,0,1,.68.72A2.29,2.29,0,0,1,96.83,8a2.28,2.28,0,0,1-.25,1.11,1.75,1.75,0,0,1-.68.72,2.12,2.12,0,0,1-2,0,1.71,1.71,0,0,1-.69-.72A2.28,2.28,0,0,1,93,8a2.29,2.29,0,0,1,.25-1.12,1.71,1.71,0,0,1,.69-.72A2,2,0,0,1,94.9,6Zm0,.55a1.28,1.28,0,0,0-.7.18,1.16,1.16,0,0,0-.44.53A1.85,1.85,0,0,0,93.6,8a1.86,1.86,0,0,0,.16.81,1.16,1.16,0,0,0,.44.53,1.43,1.43,0,0,0,1.39,0A1.24,1.24,0,0,0,96,8.85,2,2,0,0,0,96.19,8,2,2,0,0,0,96,7.22a1.24,1.24,0,0,0-.45-.53A1.27,1.27,0,0,0,94.9,6.51Z"/><path d="M98,10V6h.52l.09.65a1.15,1.15,0,0,1,.49-.55A1.62,1.62,0,0,1,99.93,6h.23a.48.48,0,0,1,.21.07l-.11.58-.2,0h-.29a1,1,0,0,0-.5.14,1.12,1.12,0,0,0-.42.44,1.47,1.47,0,0,0-.17.74V10Z"/><path d="M101.62,5.27a.48.48,0,0,1-.34-.13.48.48,0,0,1-.14-.35.47.47,0,0,1,.14-.35.44.44,0,0,1,.34-.13.45.45,0,0,1,.48.48.48.48,0,0,1-.13.35A.5.5,0,0,1,101.62,5.27Zm.32.77v4h-.64V6Z"/><path d="M105.77,7.45a.84.84,0,0,0-.92-.93,1.34,1.34,0,0,0-.71.18,1,1,0,0,0-.42.58L103.2,7a1.44,1.44,0,0,1,.59-.73,2.27,2.27,0,0,1,1.86-.13,1.22,1.22,0,0,1,.55.45,1.32,1.32,0,0,1,.21.77V9.26a.26.26,0,0,0,.3.29,1.54,1.54,0,0,0,.3,0l0,.5a.88.88,0,0,1-.42.08,1,1,0,0,1-.42-.09.64.64,0,0,1-.28-.26.92.92,0,0,1-.11-.46V9.2l.16,0a1,1,0,0,1-.33.51,1.38,1.38,0,0,1-.52.28,1.62,1.62,0,0,1-.56.1,1.76,1.76,0,0,1-.66-.12,1.11,1.11,0,0,1-.48-.37,1.07,1.07,0,0,1,.12-1.34,1.54,1.54,0,0,1,.83-.4l1.59-.31v.53l-1.29.26a1.42,1.42,0,0,0-.59.23.48.48,0,0,0-.19.4.49.49,0,0,0,.2.4.88.88,0,0,0,.55.16A1.63,1.63,0,0,0,105,9.5a1.23,1.23,0,0,0,.38-.19.79.79,0,0,0,.26-.31.89.89,0,0,0,.1-.44Z"/><path d="M108.57,4.2V9a.64.64,0,0,0,.11.42.46.46,0,0,0,.36.12.93.93,0,0,0,.26,0,1.1,1.1,0,0,0,.28-.09l-.1.56a1.31,1.31,0,0,1-.28.09,1.63,1.63,0,0,1-.31,0,.92.92,0,0,1-.73-.27,1.21,1.21,0,0,1-.23-.81V4.2Z"/><path d="M114.43,10.12a2.33,2.33,0,0,1-1.24-.34,1.6,1.6,0,0,1-.73-.91l.64-.33a1.69,1.69,0,0,0,.26.52,1.16,1.16,0,0,0,.44.34,1.79,1.79,0,0,0,.7.12,1.32,1.32,0,0,0,.59-.13,1,1,0,0,0,.37-.35,1.07,1.07,0,0,0,.12-.51,1,1,0,0,0-.1-.48.67.67,0,0,0-.34-.28,1.75,1.75,0,0,0-.61-.09h-.19l-.22,0V7.06h.26a1.26,1.26,0,0,0,.84-.23,1,1,0,0,0,.24-.72.79.79,0,0,0-.25-.63,1.13,1.13,0,0,0-.73-.21,1.16,1.16,0,0,0-.77.22,1.45,1.45,0,0,0-.41.59l-.61-.29a1.62,1.62,0,0,1,.38-.59,1.89,1.89,0,0,1,.62-.4,2.29,2.29,0,0,1,.81-.14,1.92,1.92,0,0,1,.91.19,1.25,1.25,0,0,1,.54.5,1.3,1.3,0,0,1,.18.68,1.62,1.62,0,0,1-.08.52,1.71,1.71,0,0,1-.22.4,1.11,1.11,0,0,1-.32.26,1.28,1.28,0,0,1-.37.14h0a1.11,1.11,0,0,1,.46.11,1,1,0,0,1,.35.25,1.07,1.07,0,0,1,.22.37,1.16,1.16,0,0,1,.08.42,1.54,1.54,0,0,1-.23.83,1.46,1.46,0,0,1-.64.56A2,2,0,0,1,114.43,10.12Z"/><path d="M117.17,11.55l-.37-.37a4.55,4.55,0,0,0,.84-1,4,4,0,0,0,.45-1.12,5.6,5.6,0,0,0,.13-1.26,5.73,5.73,0,0,0-.13-1.26,3.87,3.87,0,0,0-.45-1.12,4.55,4.55,0,0,0-.84-1l.37-.37a5,5,0,0,1,1.28,1.68,4.93,4.93,0,0,1,.43,2.08,5,5,0,0,1-.43,2.08A5,5,0,0,1,117.17,11.55Z"/><rect class="cls-2" x="136" width="54" height="16"/><path d="M140.36,4l.36.37a4.55,4.55,0,0,0-.84,1,4.28,4.28,0,0,0-.44,1.12,5.72,5.72,0,0,0-.14,1.26A5.59,5.59,0,0,0,139.44,9a4,4,0,0,0,.44,1.12,4.83,4.83,0,0,0,.84,1l-.36.36a4.77,4.77,0,0,1-1.28-1.68,4.91,4.91,0,0,1-.44-2.08,5,5,0,0,1,.44-2.08A4.77,4.77,0,0,1,140.36,4Z"/><path d="M143.79,6v.55H141V6Zm-.67-1.88a1.75,1.75,0,0,1,.4,0,.61.61,0,0,1,.28.14l-.16.52a.67.67,0,0,0-.21-.1l-.25,0a.81.81,0,0,0-.54.16.67.67,0,0,0-.19.52V10h-.64V5.3a1.53,1.53,0,0,1,.08-.49,1.09,1.09,0,0,1,.25-.38,1.05,1.05,0,0,1,.41-.25A1.66,1.66,0,0,1,143.12,4.09Z"/><path d="M146.74,7.39a.93.93,0,0,0-.24-.69.89.89,0,0,0-.68-.25,1.28,1.28,0,0,0-.7.18,1,1,0,0,0-.43.58l-.52-.32a1.43,1.43,0,0,1,.59-.72,1.93,1.93,0,0,1,1.08-.28,2,2,0,0,1,.78.15,1.25,1.25,0,0,1,.56.45,1.4,1.4,0,0,1,.2.77V9.2c0,.19.1.28.3.28a1,1,0,0,0,.3,0l0,.51a1,1,0,0,1-.42.08.91.91,0,0,1-.41-.09.63.63,0,0,1-.29-.27.88.88,0,0,1-.11-.45V9.14l.16,0a1,1,0,0,1-.32.51A1.57,1.57,0,0,1,146,10a1.93,1.93,0,0,1-.57.09,1.76,1.76,0,0,1-.66-.12,1.09,1.09,0,0,1-.48-.36,1.09,1.09,0,0,1,.12-1.35,1.65,1.65,0,0,1,.83-.39l1.59-.31V8l-1.29.27a1.46,1.46,0,0,0-.58.22.48.48,0,0,0-.2.4.51.51,0,0,0,.2.41.91.91,0,0,0,.56.15,1.61,1.61,0,0,0,.44-.06,1.21,1.21,0,0,0,.38-.18.86.86,0,0,0,.26-.31.93.93,0,0,0,.1-.45Z"/><path d="M150.59,5.89a2,2,0,0,1,.73.13,1.72,1.72,0,0,1,.55.37,1.87,1.87,0,0,1,.37.57l-.6.28a1.24,1.24,0,0,0-.39-.58,1,1,0,0,0-.68-.21,1.31,1.31,0,0,0-.69.18,1.25,1.25,0,0,0-.44.52,2,2,0,0,0-.15.82,2,2,0,0,0,.15.82,1.19,1.19,0,0,0,.44.52,1.31,1.31,0,0,0,.69.18,1.45,1.45,0,0,0,.54-.09,1.08,1.08,0,0,0,.38-.28,1,1,0,0,0,.2-.45l.59.21a2,2,0,0,1-.37.63,1.55,1.55,0,0,1-.57.4,1.79,1.79,0,0,1-.75.14,2,2,0,0,1-1-.25,1.69,1.69,0,0,1-.69-.71A2.32,2.32,0,0,1,148.65,8a2.28,2.28,0,0,1,.25-1.11,1.71,1.71,0,0,1,.69-.72A2.06,2.06,0,0,1,150.59,5.89Z"/><path d="M155.81,6v.55h-2.89V6Zm-1.45-1.13v4a.55.55,0,0,0,.16.44.7.7,0,0,0,.44.14.87.87,0,0,0,.4-.08,1,1,0,0,0,.3-.21l.22.53a1.43,1.43,0,0,1-.43.27,1.72,1.72,0,0,1-.58.09,1.38,1.38,0,0,1-.57-.11.83.83,0,0,1-.42-.34,1.14,1.14,0,0,1-.16-.62V5Z"/><path d="M159.28,7.55v.66h-2.64V7.55Z"/><path d="M162.93,6v.55H160V6Zm-1.45-1.13v4a.55.55,0,0,0,.16.44.7.7,0,0,0,.44.14.87.87,0,0,0,.4-.08,1,1,0,0,0,.3-.21l.22.53a1.43,1.43,0,0,1-.43.27,1.72,1.72,0,0,1-.58.09,1.38,1.38,0,0,1-.57-.11A.83.83,0,0,1,161,9.6a1.14,1.14,0,0,1-.16-.62V5Z"/><path d="M166.22,7.39A.93.93,0,0,0,166,6.7a.89.89,0,0,0-.68-.25,1.28,1.28,0,0,0-.7.18,1,1,0,0,0-.43.58l-.52-.32a1.43,1.43,0,0,1,.59-.72,1.93,1.93,0,0,1,1.08-.28,2,2,0,0,1,.78.15,1.25,1.25,0,0,1,.56.45,1.4,1.4,0,0,1,.2.77V9.2c0,.19.1.28.3.28a1,1,0,0,0,.3,0l0,.51A1,1,0,0,1,167,10a.91.91,0,0,1-.41-.09.63.63,0,0,1-.29-.27.88.88,0,0,1-.11-.45V9.14l.16,0a1,1,0,0,1-.32.51,1.57,1.57,0,0,1-.52.29,1.93,1.93,0,0,1-.57.09,1.76,1.76,0,0,1-.66-.12,1.09,1.09,0,0,1-.48-.36,1.09,1.09,0,0,1,.12-1.35,1.65,1.65,0,0,1,.83-.39l1.59-.31V8l-1.29.27a1.46,1.46,0,0,0-.58.22.48.48,0,0,0-.2.4.51.51,0,0,0,.2.41.91.91,0,0,0,.56.15,1.61,1.61,0,0,0,.44-.06,1.21,1.21,0,0,0,.38-.18.86.86,0,0,0,.26-.31.93.93,0,0,0,.1-.45Z"/><path d="M168.73,5.2a.48.48,0,0,1-.35-.13.5.5,0,0,1-.13-.35.48.48,0,0,1,.13-.34.48.48,0,0,1,.35-.14.47.47,0,0,1,.35.14.44.44,0,0,1,.13.34.45.45,0,0,1-.48.48Zm.32.77v4h-.64V6Z"/><path d="M171.15,4.13V9a.64.64,0,0,0,.11.42.5.5,0,0,0,.36.11l.26,0,.28-.09-.1.56a.9.9,0,0,1-.28.08,1.55,1.55,0,0,1-.31,0,1,1,0,0,1-.73-.26,1.24,1.24,0,0,1-.23-.81V4.13Z"/><path d="M177,10.05a2.32,2.32,0,0,1-1.24-.33A1.62,1.62,0,0,1,175,8.8l.64-.32a1.64,1.64,0,0,0,.26.51,1.07,1.07,0,0,0,.44.34,1.79,1.79,0,0,0,.7.12,1.2,1.2,0,0,0,.59-.13A.94.94,0,0,0,178,9a1.07,1.07,0,0,0,.12-.51,1,1,0,0,0-.1-.48.75.75,0,0,0-.34-.29,1.75,1.75,0,0,0-.61-.09h-.19l-.22,0V7H177a1.26,1.26,0,0,0,.84-.22,1,1,0,0,0,.24-.72.77.77,0,0,0-.25-.63,1.08,1.08,0,0,0-.73-.22,1.22,1.22,0,0,0-.77.22,1.56,1.56,0,0,0-.41.6l-.61-.29a1.62,1.62,0,0,1,.38-.59,1.74,1.74,0,0,1,.62-.4,2.09,2.09,0,0,1,.81-.15,2,2,0,0,1,.91.19,1.31,1.31,0,0,1,.54.5,1.37,1.37,0,0,1,.18.69,1.72,1.72,0,0,1-.08.52,1.24,1.24,0,0,1-.22.39,1.35,1.35,0,0,1-.32.27,1,1,0,0,1-.37.13v0a1.11,1.11,0,0,1,.46.1,1,1,0,0,1,.35.26,1.13,1.13,0,0,1,.22.36,1.26,1.26,0,0,1,.08.43,1.51,1.51,0,0,1-.23.82,1.55,1.55,0,0,1-.64.57A2.18,2.18,0,0,1,177,10.05Z"/><path d="M183.59,10V5.81c0-.11,0-.21,0-.33a2.69,2.69,0,0,1-.63.46,2.65,2.65,0,0,1-.73.29l-.17-.59a1.32,1.32,0,0,0,.36-.1,3.5,3.5,0,0,0,.47-.24,3.52,3.52,0,0,0,.45-.3,1.58,1.58,0,0,0,.32-.31h.56V10Z"/><path d="M185.64,11.48l-.36-.36a4.38,4.38,0,0,0,.84-1A4,4,0,0,0,186.56,9a5.07,5.07,0,0,0,.14-1.26,5,5,0,0,0-.14-1.25,4,4,0,0,0-.44-1.12,4.83,4.83,0,0,0-.84-1l.36-.37a4.87,4.87,0,0,1,1.72,3.76,4.91,4.91,0,0,1-.44,2.08A4.6,4.6,0,0,1,185.64,11.48Z"/><path d="M311.48,52.27v.9h-2.76v7h-1v-7H305v-.9Z"/><path d="M313.27,53a.7.7,0,0,1-.52-.2.68.68,0,0,1-.2-.52.69.69,0,0,1,.72-.72.68.68,0,0,1,.52.2.7.7,0,0,1,.2.52.69.69,0,0,1-.72.72Zm.48,1.15v6h-1v-6Z"/><path d="M316,60.19v-6h.84l.06.94a2,2,0,0,1,.85-.81,2.37,2.37,0,0,1,1.07-.25,2.65,2.65,0,0,1,1.2.29,1.91,1.91,0,0,1,.86.89,1.71,1.71,0,0,1,.54-.67,2.52,2.52,0,0,1,.77-.38,2.45,2.45,0,0,1,.78-.13,2.59,2.59,0,0,1,1.1.24,2.11,2.11,0,0,1,.86.74,2.34,2.34,0,0,1,.33,1.3v3.84h-1V56.45a1.33,1.33,0,0,0-1.41-1.54,1.81,1.81,0,0,0-.88.23,1.62,1.62,0,0,0-.65.67,2.17,2.17,0,0,0-.25,1.09v3.29h-1V56.45a1.47,1.47,0,0,0-.41-1.18,1.44,1.44,0,0,0-1-.36,1.75,1.75,0,0,0-.81.21,1.64,1.64,0,0,0-.69.67,2.22,2.22,0,0,0-.28,1.2v3.2Z"/><path d="M329.92,60.31a3,3,0,0,1-1.51-.37,2.52,2.52,0,0,1-1-1.08,4,4,0,0,1,0-3.34,2.6,2.6,0,0,1,1-1.08,2.87,2.87,0,0,1,1.47-.37,2.75,2.75,0,0,1,1.44.36,2.36,2.36,0,0,1,.9,1,3,3,0,0,1,.31,1.38c0,.14,0,.26,0,.38a2.53,2.53,0,0,1,0,.3h-4.85v-.86h4.43l-.49.1a1.76,1.76,0,0,0-.48-1.33,1.71,1.71,0,0,0-1.24-.47,1.84,1.84,0,0,0-1,.27,1.69,1.69,0,0,0-.66.78,3.25,3.25,0,0,0,0,2.45,1.77,1.77,0,0,0,.68.79,2,2,0,0,0,1,.27,2,2,0,0,0,1.07-.25,1.93,1.93,0,0,0,.67-.69l.75.45A2.47,2.47,0,0,1,331,60.15,3.19,3.19,0,0,1,329.92,60.31Z"/><rect class="cls-2" x="201.82" y="0.54" width="54" height="16"/><path d="M206.18,4.5l.36.37a4.55,4.55,0,0,0-.84,1A4.28,4.28,0,0,0,205.26,7a5.59,5.59,0,0,0-.14,1.26,5.66,5.66,0,0,0,.14,1.26,4.15,4.15,0,0,0,.44,1.12,4.55,4.55,0,0,0,.84,1l-.36.37a4.77,4.77,0,0,1-1.28-1.68,5.14,5.14,0,0,1,0-4.16A4.77,4.77,0,0,1,206.18,4.5Z"/><path d="M209.61,6.51v.55h-2.78V6.51Zm-.67-1.88a1.75,1.75,0,0,1,.4,0,.81.81,0,0,1,.28.13l-.16.52-.21-.09a1,1,0,0,0-.25,0,.81.81,0,0,0-.54.17.67.67,0,0,0-.19.52v4.61h-.64V5.84a1.53,1.53,0,0,1,.08-.49A1,1,0,0,1,208,5a1.05,1.05,0,0,1,.41-.25A1.66,1.66,0,0,1,208.94,4.63Z"/><path d="M212.56,7.93a1,1,0,0,0-.24-.7.92.92,0,0,0-.68-.24,1.28,1.28,0,0,0-.7.18,1,1,0,0,0-.43.58L210,7.43a1.43,1.43,0,0,1,.59-.72,1.93,1.93,0,0,1,1.08-.28,2,2,0,0,1,.78.15A1.31,1.31,0,0,1,213,7a1.37,1.37,0,0,1,.2.77V9.73c0,.2.1.29.3.29a1,1,0,0,0,.3,0l0,.51a1,1,0,0,1-.42.08.91.91,0,0,1-.41-.09.63.63,0,0,1-.29-.27.88.88,0,0,1-.11-.45V9.68l.16,0a1,1,0,0,1-.32.51,1.57,1.57,0,0,1-.52.29,2,2,0,0,1-.57.09,1.76,1.76,0,0,1-.66-.12,1.09,1.09,0,0,1-.48-.36A1,1,0,0,1,210,9.5a1,1,0,0,1,.3-.74,1.65,1.65,0,0,1,.83-.39l1.59-.32v.53l-1.29.27a1.32,1.32,0,0,0-.58.22.5.5,0,0,0,0,.8.85.85,0,0,0,.56.16,1.61,1.61,0,0,0,.44-.06,1.21,1.21,0,0,0,.38-.18.9.9,0,0,0,.26-.32.87.87,0,0,0,.1-.44Z"/><path d="M216.41,6.43a1.86,1.86,0,0,1,.73.13,1.57,1.57,0,0,1,.55.37,2,2,0,0,1,.37.56l-.6.29a1.33,1.33,0,0,0-.39-.59,1.12,1.12,0,0,0-.68-.2,1.29,1.29,0,0,0-.69.18,1.19,1.19,0,0,0-.44.52,2,2,0,0,0-.15.82,2,2,0,0,0,.15.82,1.19,1.19,0,0,0,.44.52,1.29,1.29,0,0,0,.69.18,1.27,1.27,0,0,0,.54-.1.88.88,0,0,0,.38-.28,1,1,0,0,0,.2-.44l.59.2a1.92,1.92,0,0,1-.37.64,1.55,1.55,0,0,1-.57.4,2,2,0,0,1-.75.14,1.93,1.93,0,0,1-1-.25,1.69,1.69,0,0,1-.69-.71,2.34,2.34,0,0,1-.25-1.12,2.34,2.34,0,0,1,.25-1.12,1.69,1.69,0,0,1,.69-.71A1.93,1.93,0,0,1,216.41,6.43Z"/><path d="M221.63,6.51v.55h-2.89V6.51Zm-1.45-1.14v4a.57.57,0,0,0,.16.44.7.7,0,0,0,.44.14,1,1,0,0,0,.4-.08.89.89,0,0,0,.3-.22l.22.54a1.24,1.24,0,0,1-.43.26,1.5,1.5,0,0,1-.58.1,1.52,1.52,0,0,1-.57-.11.83.83,0,0,1-.42-.34,1.16,1.16,0,0,1-.16-.62v-4Z"/><path d="M225.1,8.09v.66h-2.64V8.09Z"/><path d="M228.75,6.51v.55h-2.89V6.51ZM227.3,5.37v4a.57.57,0,0,0,.16.44.7.7,0,0,0,.44.14,1,1,0,0,0,.4-.08.89.89,0,0,0,.3-.22l.22.54a1.24,1.24,0,0,1-.43.26,1.5,1.5,0,0,1-.58.1,1.52,1.52,0,0,1-.57-.11.83.83,0,0,1-.42-.34,1.16,1.16,0,0,1-.16-.62v-4Z"/><path d="M232,7.93a1,1,0,0,0-.24-.7.92.92,0,0,0-.68-.24,1.28,1.28,0,0,0-.7.18,1,1,0,0,0-.43.58l-.52-.32a1.43,1.43,0,0,1,.59-.72,1.93,1.93,0,0,1,1.08-.28,2,2,0,0,1,.78.15,1.31,1.31,0,0,1,.56.45,1.37,1.37,0,0,1,.2.77V9.73c0,.2.1.29.3.29a1,1,0,0,0,.3,0l0,.51a1,1,0,0,1-.42.08.91.91,0,0,1-.41-.09.63.63,0,0,1-.29-.27.88.88,0,0,1-.11-.45V9.68l.16,0a1,1,0,0,1-.32.51,1.57,1.57,0,0,1-.52.29,2,2,0,0,1-.57.09,1.76,1.76,0,0,1-.66-.12,1.09,1.09,0,0,1-.48-.36,1,1,0,0,1-.18-.61,1,1,0,0,1,.3-.74,1.65,1.65,0,0,1,.83-.39l1.59-.32v.53l-1.29.27a1.32,1.32,0,0,0-.58.22.5.5,0,0,0,0,.8.85.85,0,0,0,.56.16,1.61,1.61,0,0,0,.44-.06,1.21,1.21,0,0,0,.38-.18.9.9,0,0,0,.26-.32A.87.87,0,0,0,232,9Z"/><path d="M234.55,5.74a.48.48,0,0,1-.35-.13.5.5,0,0,1-.13-.35.45.45,0,0,1,.48-.48.5.5,0,0,1,.35.13.48.48,0,0,1,.13.35.45.45,0,0,1-.48.48Zm.32.77v4h-.64v-4Z"/><path d="M237,4.67V9.49a.56.56,0,0,0,.11.42.46.46,0,0,0,.36.12l.26,0,.28-.09-.1.56a1.29,1.29,0,0,1-.28.08,1.63,1.63,0,0,1-.31,0,1,1,0,0,1-.73-.26,1.24,1.24,0,0,1-.23-.81V4.67Z"/><path d="M241.1,10.51V10c.53-.39,1-.73,1.33-1a8.63,8.63,0,0,0,.85-.8,2.85,2.85,0,0,0,.46-.69,1.7,1.7,0,0,0,.13-.67,1,1,0,0,0-.3-.77,1.14,1.14,0,0,0-.82-.29,1.12,1.12,0,0,0-.87.36,1.49,1.49,0,0,0-.38.94l-.56-.33a1.88,1.88,0,0,1,.3-.82,1.55,1.55,0,0,1,.61-.55,2.06,2.06,0,0,1,.93-.2,2.11,2.11,0,0,1,.73.12,1.55,1.55,0,0,1,.55.34,1.43,1.43,0,0,1,.36.52,1.87,1.87,0,0,1,.12.68,2.14,2.14,0,0,1-.24,1,3.53,3.53,0,0,1-.79,1A13,13,0,0,1,242,9.93h2.64v.6Z"/><path d="M250.22,10.59a2.32,2.32,0,0,1-1.24-.33,1.66,1.66,0,0,1-.73-.92l.64-.33a1.69,1.69,0,0,0,.26.52,1,1,0,0,0,.45.34,1.71,1.71,0,0,0,.69.12,1.2,1.2,0,0,0,.59-.13.89.89,0,0,0,.37-.35,1,1,0,0,0,.13-.5,1,1,0,0,0-.11-.48.65.65,0,0,0-.34-.29,1.75,1.75,0,0,0-.61-.09h-.19l-.22,0V7.53h.27a1.19,1.19,0,0,0,.83-.23.94.94,0,0,0,.25-.71A.77.77,0,0,0,251,6a1.06,1.06,0,0,0-.73-.22,1.18,1.18,0,0,0-.77.22,1.56,1.56,0,0,0-.41.6l-.61-.29a1.54,1.54,0,0,1,.38-.59,1.74,1.74,0,0,1,.62-.4,2.12,2.12,0,0,1,.81-.15,2,2,0,0,1,.91.19,1.31,1.31,0,0,1,.54.5,1.37,1.37,0,0,1,.18.69,1.6,1.6,0,0,1-.08.51,1.2,1.2,0,0,1-.54.67,1,1,0,0,1-.37.13v0a1.2,1.2,0,0,1,.47.1,1,1,0,0,1,.34.26,1,1,0,0,1,.22.36A1.26,1.26,0,0,1,252,9a1.51,1.51,0,0,1-.23.82,1.58,1.58,0,0,1-.63.57A2.22,2.22,0,0,1,250.22,10.59Z"/><path d="M253,12l-.37-.37a4.34,4.34,0,0,0,.84-1,3.87,3.87,0,0,0,.45-1.12,5.7,5.7,0,0,0,0-2.51,3.76,3.76,0,0,0-.45-1.12,4.6,4.6,0,0,0-.84-1L253,4.5a5,5,0,0,1,1.28,1.69,4.89,4.89,0,0,1,.43,2.07,4.93,4.93,0,0,1-.43,2.08A4.83,4.83,0,0,1,253,12Z"/><rect class="cls-2" x="267.82" y="0.54" width="54" height="16"/><path d="M272.18,4.5l.36.37a4.55,4.55,0,0,0-.84,1A4.28,4.28,0,0,0,271.26,7a5.59,5.59,0,0,0-.14,1.26,5.66,5.66,0,0,0,.14,1.26,4.15,4.15,0,0,0,.44,1.12,4.55,4.55,0,0,0,.84,1l-.36.37a4.77,4.77,0,0,1-1.28-1.68,5.14,5.14,0,0,1,0-4.16A4.77,4.77,0,0,1,272.18,4.5Z"/><path d="M275.61,6.51v.55h-2.78V6.51Zm-.67-1.88a1.75,1.75,0,0,1,.4,0,.81.81,0,0,1,.28.13l-.16.52a1,1,0,0,0-.21-.09,1,1,0,0,0-.25,0,.81.81,0,0,0-.54.17.67.67,0,0,0-.19.52v4.61h-.64V5.84a1.53,1.53,0,0,1,.08-.49A1,1,0,0,1,274,5a1.05,1.05,0,0,1,.41-.25A1.66,1.66,0,0,1,274.94,4.63Z"/><path d="M278.56,7.93a1,1,0,0,0-.24-.7.92.92,0,0,0-.68-.24,1.28,1.28,0,0,0-.7.18,1,1,0,0,0-.43.58L276,7.43a1.43,1.43,0,0,1,.59-.72,1.93,1.93,0,0,1,1.08-.28,2,2,0,0,1,.78.15A1.31,1.31,0,0,1,279,7a1.37,1.37,0,0,1,.2.77V9.73c0,.2.1.29.3.29a1,1,0,0,0,.3,0l0,.51a1,1,0,0,1-.42.08.91.91,0,0,1-.41-.09.63.63,0,0,1-.29-.27.88.88,0,0,1-.11-.45V9.68l.16,0a1,1,0,0,1-.32.51,1.57,1.57,0,0,1-.52.29,2,2,0,0,1-.57.09,1.76,1.76,0,0,1-.66-.12,1.09,1.09,0,0,1-.48-.36A1,1,0,0,1,276,9.5a1,1,0,0,1,.3-.74,1.65,1.65,0,0,1,.83-.39l1.59-.32v.53l-1.29.27a1.32,1.32,0,0,0-.58.22.5.5,0,0,0,0,.8.85.85,0,0,0,.56.16,1.61,1.61,0,0,0,.44-.06,1.21,1.21,0,0,0,.38-.18.9.9,0,0,0,.26-.32.87.87,0,0,0,.1-.44Z"/><path d="M282.41,6.43a1.86,1.86,0,0,1,.73.13,1.57,1.57,0,0,1,.55.37,2,2,0,0,1,.37.56l-.6.29a1.33,1.33,0,0,0-.39-.59,1.12,1.12,0,0,0-.68-.2,1.29,1.29,0,0,0-.69.18,1.19,1.19,0,0,0-.44.52,2,2,0,0,0-.15.82,2,2,0,0,0,.15.82,1.19,1.19,0,0,0,.44.52,1.29,1.29,0,0,0,.69.18,1.27,1.27,0,0,0,.54-.1.88.88,0,0,0,.38-.28,1,1,0,0,0,.2-.44l.59.2a1.92,1.92,0,0,1-.37.64,1.55,1.55,0,0,1-.57.4,2,2,0,0,1-.75.14,1.93,1.93,0,0,1-1-.25,1.69,1.69,0,0,1-.69-.71,2.34,2.34,0,0,1-.25-1.12,2.34,2.34,0,0,1,.25-1.12,1.69,1.69,0,0,1,.69-.71A1.93,1.93,0,0,1,282.41,6.43Z"/><path d="M287.63,6.51v.55h-2.89V6.51Zm-1.45-1.14v4a.57.57,0,0,0,.16.44.7.7,0,0,0,.44.14,1,1,0,0,0,.4-.08.89.89,0,0,0,.3-.22l.22.54a1.24,1.24,0,0,1-.43.26,1.5,1.5,0,0,1-.58.1,1.52,1.52,0,0,1-.57-.11.83.83,0,0,1-.42-.34,1.16,1.16,0,0,1-.16-.62v-4Z"/><path d="M291.1,8.09v.66h-2.64V8.09Z"/><path d="M294.75,6.51v.55h-2.89V6.51ZM293.3,5.37v4a.57.57,0,0,0,.16.44.7.7,0,0,0,.44.14,1,1,0,0,0,.4-.08.89.89,0,0,0,.3-.22l.22.54a1.24,1.24,0,0,1-.43.26,1.5,1.5,0,0,1-.58.1,1.52,1.52,0,0,1-.57-.11.83.83,0,0,1-.42-.34,1.16,1.16,0,0,1-.16-.62v-4Z"/><path d="M298,7.93a1,1,0,0,0-.24-.7.92.92,0,0,0-.68-.24,1.28,1.28,0,0,0-.7.18,1,1,0,0,0-.43.58l-.52-.32a1.43,1.43,0,0,1,.59-.72,1.93,1.93,0,0,1,1.08-.28,2,2,0,0,1,.78.15,1.31,1.31,0,0,1,.56.45,1.37,1.37,0,0,1,.2.77V9.73c0,.2.1.29.3.29a1,1,0,0,0,.3,0l0,.51a1,1,0,0,1-.42.08.91.91,0,0,1-.41-.09.63.63,0,0,1-.29-.27.88.88,0,0,1-.11-.45V9.68l.16,0a1,1,0,0,1-.32.51,1.57,1.57,0,0,1-.52.29,2,2,0,0,1-.57.09,1.76,1.76,0,0,1-.66-.12,1.09,1.09,0,0,1-.48-.36,1,1,0,0,1-.18-.61,1,1,0,0,1,.3-.74,1.65,1.65,0,0,1,.83-.39l1.59-.32v.53l-1.29.27a1.32,1.32,0,0,0-.58.22.5.5,0,0,0,0,.8.85.85,0,0,0,.56.16,1.61,1.61,0,0,0,.44-.06,1.21,1.21,0,0,0,.38-.18.9.9,0,0,0,.26-.32A.87.87,0,0,0,298,9Z"/><path d="M300.55,5.74a.48.48,0,0,1-.35-.13.5.5,0,0,1-.13-.35.45.45,0,0,1,.48-.48.5.5,0,0,1,.35.13.48.48,0,0,1,.13.35.45.45,0,0,1-.48.48Zm.32.77v4h-.64v-4Z"/><path d="M303,4.67V9.49a.6.6,0,0,0,.11.42.46.46,0,0,0,.36.12l.26,0,.28-.09-.1.56a1.29,1.29,0,0,1-.28.08,1.63,1.63,0,0,1-.31,0,1,1,0,0,1-.73-.26,1.24,1.24,0,0,1-.23-.81V4.67Z"/><path d="M308,10.51V6.35c0-.11,0-.22,0-.33a2.69,2.69,0,0,1-.63.46,3.07,3.07,0,0,1-.74.29l-.16-.59a1.17,1.17,0,0,0,.36-.11,2.82,2.82,0,0,0,.46-.23,3,3,0,0,0,.46-.3,1.9,1.9,0,0,0,.32-.31h.56v5.28Z"/><path d="M314.78,5.15a2,2,0,0,1,.74.12,1.26,1.26,0,0,1,.55.36,1.78,1.78,0,0,1,.39.63l-.59.28a1.2,1.2,0,0,0-.39-.58,1.14,1.14,0,0,0-.74-.21,1.08,1.08,0,0,0-.6.17,1.48,1.48,0,0,0-.45.48,2.15,2.15,0,0,0-.28.71,4.1,4.1,0,0,0-.09.88v.14h0a1.06,1.06,0,0,1,.33-.55,1.35,1.35,0,0,1,.53-.31,1.78,1.78,0,0,1,.59-.1,2.13,2.13,0,0,1,.94.2,1.56,1.56,0,0,1,.62.6,1.86,1.86,0,0,1,.22.91,1.78,1.78,0,0,1-.23.91,1.56,1.56,0,0,1-.63.59,2.06,2.06,0,0,1-1,.21,1.8,1.8,0,0,1-1.12-.35,2.26,2.26,0,0,1-.69-1,4,4,0,0,1-.23-1.4A3.64,3.64,0,0,1,313,6.38a2.15,2.15,0,0,1,.74-.92A1.82,1.82,0,0,1,314.78,5.15Zm0,2.63a1.27,1.27,0,0,0-.6.14,1,1,0,0,0-.41.39,1.13,1.13,0,0,0-.14.56,1.09,1.09,0,0,0,.15.56,1.21,1.21,0,0,0,.41.4,1.28,1.28,0,0,0,.59.14,1.16,1.16,0,0,0,.85-.29,1.06,1.06,0,0,0,.3-.81,1.18,1.18,0,0,0-.13-.58,1,1,0,0,0-.39-.38A1.47,1.47,0,0,0,314.75,7.78Z"/><path d="M317.47,12l-.37-.37a4.06,4.06,0,0,0,1.29-2.13,5.7,5.7,0,0,0,0-2.51,3.76,3.76,0,0,0-.45-1.12,4.1,4.1,0,0,0-.84-1l.37-.37a4.83,4.83,0,0,1,1.28,1.69,4.89,4.89,0,0,1,.43,2.07,4.93,4.93,0,0,1-.43,2.08A4.71,4.71,0,0,1,317.47,12Z"/><rect class="cls-2" x="332.82" y="0.54" width="54" height="16"/><path d="M337.18,4.5l.36.37a4.55,4.55,0,0,0-.84,1A4.28,4.28,0,0,0,336.26,7a5.59,5.59,0,0,0-.14,1.26,5.66,5.66,0,0,0,.14,1.26,4.15,4.15,0,0,0,.44,1.12,4.55,4.55,0,0,0,.84,1l-.36.37a4.77,4.77,0,0,1-1.28-1.68,5.14,5.14,0,0,1,0-4.16A4.77,4.77,0,0,1,337.18,4.5Z"/><path d="M340.61,6.51v.55h-2.78V6.51Zm-.67-1.88a1.75,1.75,0,0,1,.4,0,.73.73,0,0,1,.28.13l-.16.52a1,1,0,0,0-.21-.09,1,1,0,0,0-.25,0,.81.81,0,0,0-.54.17.67.67,0,0,0-.19.52v4.61h-.64V5.84a1.53,1.53,0,0,1,.08-.49A1,1,0,0,1,339,5a1.05,1.05,0,0,1,.41-.25A1.66,1.66,0,0,1,339.94,4.63Z"/><path d="M343.56,7.93a1,1,0,0,0-.24-.7.92.92,0,0,0-.68-.24,1.28,1.28,0,0,0-.7.18,1,1,0,0,0-.43.58L341,7.43a1.43,1.43,0,0,1,.59-.72,1.93,1.93,0,0,1,1.08-.28,2,2,0,0,1,.78.15A1.25,1.25,0,0,1,344,7a1.37,1.37,0,0,1,.2.77V9.73c0,.2.1.29.3.29a1,1,0,0,0,.3,0l0,.51a1,1,0,0,1-.42.08.91.91,0,0,1-.41-.09.63.63,0,0,1-.29-.27.88.88,0,0,1-.11-.45V9.68l.16,0a1,1,0,0,1-.32.51,1.57,1.57,0,0,1-.52.29,2,2,0,0,1-.57.09,1.76,1.76,0,0,1-.66-.12,1.09,1.09,0,0,1-.48-.36A1,1,0,0,1,341,9.5a1,1,0,0,1,.3-.74,1.65,1.65,0,0,1,.83-.39l1.59-.32v.53l-1.29.27a1.32,1.32,0,0,0-.58.22.5.5,0,0,0,0,.8.85.85,0,0,0,.56.16,1.61,1.61,0,0,0,.44-.06,1.21,1.21,0,0,0,.38-.18.9.9,0,0,0,.26-.32.87.87,0,0,0,.1-.44Z"/><path d="M347.41,6.43a1.86,1.86,0,0,1,.73.13,1.57,1.57,0,0,1,.55.37,2,2,0,0,1,.37.56l-.6.29a1.33,1.33,0,0,0-.39-.59,1.12,1.12,0,0,0-.68-.2,1.31,1.31,0,0,0-.69.18,1.19,1.19,0,0,0-.44.52,2,2,0,0,0-.15.82,2,2,0,0,0,.15.82,1.19,1.19,0,0,0,.44.52,1.31,1.31,0,0,0,.69.18,1.27,1.27,0,0,0,.54-.1.88.88,0,0,0,.38-.28,1,1,0,0,0,.2-.44l.59.2a1.92,1.92,0,0,1-.37.64,1.55,1.55,0,0,1-.57.4,2,2,0,0,1-.75.14,1.93,1.93,0,0,1-1-.25,1.69,1.69,0,0,1-.69-.71,2.34,2.34,0,0,1-.25-1.12,2.34,2.34,0,0,1,.25-1.12,1.69,1.69,0,0,1,.69-.71A1.93,1.93,0,0,1,347.41,6.43Z"/><path d="M352.63,6.51v.55h-2.89V6.51Zm-1.45-1.14v4a.57.57,0,0,0,.16.44.7.7,0,0,0,.44.14,1,1,0,0,0,.4-.08.89.89,0,0,0,.3-.22l.22.54a1.24,1.24,0,0,1-.43.26,1.5,1.5,0,0,1-.58.1,1.52,1.52,0,0,1-.57-.11.83.83,0,0,1-.42-.34,1.16,1.16,0,0,1-.16-.62v-4Z"/><path d="M356.1,8.09v.66h-2.64V8.09Z"/><path d="M359.75,6.51v.55h-2.89V6.51ZM358.3,5.37v4a.57.57,0,0,0,.16.44.7.7,0,0,0,.44.14,1,1,0,0,0,.4-.08.89.89,0,0,0,.3-.22l.22.54a1.24,1.24,0,0,1-.43.26,1.5,1.5,0,0,1-.58.1,1.52,1.52,0,0,1-.57-.11.83.83,0,0,1-.42-.34,1.16,1.16,0,0,1-.16-.62v-4Z"/><path d="M363,7.93a1,1,0,0,0-.24-.7.92.92,0,0,0-.68-.24,1.28,1.28,0,0,0-.7.18,1,1,0,0,0-.43.58l-.52-.32a1.43,1.43,0,0,1,.59-.72,1.93,1.93,0,0,1,1.08-.28,2,2,0,0,1,.78.15,1.31,1.31,0,0,1,.56.45,1.37,1.37,0,0,1,.2.77V9.73c0,.2.1.29.3.29a1,1,0,0,0,.3,0l0,.51a1,1,0,0,1-.42.08.91.91,0,0,1-.41-.09.63.63,0,0,1-.29-.27.88.88,0,0,1-.11-.45V9.68l.16,0a1,1,0,0,1-.32.51,1.57,1.57,0,0,1-.52.29,2,2,0,0,1-.57.09,1.76,1.76,0,0,1-.66-.12,1.09,1.09,0,0,1-.48-.36,1,1,0,0,1-.18-.61,1,1,0,0,1,.3-.74,1.65,1.65,0,0,1,.83-.39l1.59-.32v.53l-1.29.27a1.32,1.32,0,0,0-.58.22.5.5,0,0,0,0,.8.85.85,0,0,0,.56.16,1.61,1.61,0,0,0,.44-.06,1.21,1.21,0,0,0,.38-.18.9.9,0,0,0,.26-.32A.87.87,0,0,0,363,9Z"/><path d="M365.55,5.74a.48.48,0,0,1-.35-.13.5.5,0,0,1-.13-.35.45.45,0,0,1,.48-.48.5.5,0,0,1,.35.13.48.48,0,0,1,.13.35.45.45,0,0,1-.48.48Zm.32.77v4h-.64v-4Z"/><path d="M368,4.67V9.49a.6.6,0,0,0,.11.42.46.46,0,0,0,.36.12l.26,0,.28-.09-.1.56a1.29,1.29,0,0,1-.28.08,1.63,1.63,0,0,1-.31,0,1,1,0,0,1-.73-.26,1.24,1.24,0,0,1-.23-.81V4.67Z"/><path d="M374,10.59a1.7,1.7,0,0,1-1.43-.7,3.22,3.22,0,0,1-.54-2,3.22,3.22,0,0,1,.54-2,1.7,1.7,0,0,1,1.43-.7,1.72,1.72,0,0,1,1.44.7,3.29,3.29,0,0,1,.53,2,3.29,3.29,0,0,1-.53,2A1.72,1.72,0,0,1,374,10.59Zm0-.58a1.12,1.12,0,0,0,.72-.24,1.5,1.5,0,0,0,.44-.72,4.44,4.44,0,0,0,.14-1.18,4.44,4.44,0,0,0-.14-1.18,1.5,1.5,0,0,0-.44-.72,1.2,1.2,0,0,0-1.44,0,1.5,1.5,0,0,0-.44.72,4.44,4.44,0,0,0-.14,1.18,4.44,4.44,0,0,0,.14,1.18,1.5,1.5,0,0,0,.44.72A1.12,1.12,0,0,0,374,10Z"/><path d="M381.8,5.15a2.09,2.09,0,0,1,.74.12,1.32,1.32,0,0,1,.55.36,2.12,2.12,0,0,1,.39.63l-.59.28A1.2,1.2,0,0,0,382.5,6a1.18,1.18,0,0,0-.74-.21,1.14,1.14,0,0,0-.61.17,1.6,1.6,0,0,0-.45.48,2.39,2.39,0,0,0-.27.71,4.1,4.1,0,0,0-.09.88v.14h0a1,1,0,0,1,.32-.55,1.46,1.46,0,0,1,.54-.31,1.74,1.74,0,0,1,.59-.1,2.12,2.12,0,0,1,.93.2,1.49,1.49,0,0,1,.62.6,1.75,1.75,0,0,1,.22.91,1.78,1.78,0,0,1-.22.91,1.56,1.56,0,0,1-.63.59,2.06,2.06,0,0,1-1,.21,1.78,1.78,0,0,1-1.12-.35,2.1,2.1,0,0,1-.69-1,3.77,3.77,0,0,1-.23-1.4A3.64,3.64,0,0,1,380,6.38a2.15,2.15,0,0,1,.74-.92A1.82,1.82,0,0,1,381.8,5.15Zm0,2.63a1.34,1.34,0,0,0-.61.14,1.07,1.07,0,0,0-.4.39,1,1,0,0,0-.14.56,1.09,1.09,0,0,0,.15.56,1.21,1.21,0,0,0,.41.4,1.25,1.25,0,0,0,.59.14,1.17,1.17,0,0,0,.85-.29,1.06,1.06,0,0,0,.3-.81,1.18,1.18,0,0,0-.14-.58,1,1,0,0,0-.39-.38A1.46,1.46,0,0,0,381.77,7.78Z"/><path d="M384.49,12l-.37-.37a4.34,4.34,0,0,0,.84-1,3.87,3.87,0,0,0,.45-1.12,5.6,5.6,0,0,0,.13-1.26A5.57,5.57,0,0,0,385.41,7,3.76,3.76,0,0,0,385,5.89a4.6,4.6,0,0,0-.84-1l.37-.37a5,5,0,0,1,1.28,1.69,4.89,4.89,0,0,1,.43,2.07,4.93,4.93,0,0,1-.43,2.08A4.83,4.83,0,0,1,384.49,12Z"/></svg>