<svg id="Layer_1" data-name="Layer 1" xmlns="http://www.w3.org/2000/svg" viewBox="0 0 608.5 134"><defs><style>.cls-1{fill:none;stroke:#000;stroke-miterlimit:10;}.cls-2{fill:#dbdbdb;}</style></defs><line class="cls-1" y1="110.5" x2="602.53" y2="110.5"/><polygon points="599.72 114.2 601.29 110.5 599.72 106.8 608.5 110.5 599.72 114.2"/><rect class="cls-2" x="4.5" y="88" width="54" height="16"/><path d="M21.71,98.12a2.61,2.61,0,0,1-1.34-.34,2.36,2.36,0,0,1-.88-1,3.46,3.46,0,0,1-.31-1.5,3.12,3.12,0,0,1,.33-1.49,2.31,2.31,0,0,1,.91-1,2.61,2.61,0,0,1,1.35-.35,2.48,2.48,0,0,1,1.32.31,2.24,2.24,0,0,1,.82.94l-.61.33a1.4,1.4,0,0,0-.57-.71,1.72,1.72,0,0,0-1-.25,1.76,1.76,0,0,0-1.65,1,2.67,2.67,0,0,0-.24,1.18,3,3,0,0,0,.21,1.18,1.65,1.65,0,0,0,.62.75,1.94,1.94,0,0,0,1,.26,2.18,2.18,0,0,0,.63-.09,1.54,1.54,0,0,0,.51-.26,1.07,1.07,0,0,0,.34-.44,1.44,1.44,0,0,0,.13-.61v-.19H21.61v-.62H24V98h-.52l0-1,.15,0a1.67,1.67,0,0,1-.68.8A2.25,2.25,0,0,1,21.71,98.12Z"/><path d="M26,92v5a.65.65,0,0,0,.11.43.5.5,0,0,0,.37.12l.28,0,.28-.1-.1.58a1.4,1.4,0,0,1-.29.09,1.73,1.73,0,0,1-.32,0,1,1,0,0,1-.75-.27,1.26,1.26,0,0,1-.24-.84V92Z"/><path d="M29.61,93.82a2,2,0,0,1,1,.26,1.81,1.81,0,0,1,.71.74A2.44,2.44,0,0,1,31.6,96a2.41,2.41,0,0,1-.25,1.15,1.75,1.75,0,0,1-.71.74,2,2,0,0,1-1,.26,2.11,2.11,0,0,1-1-.26,1.75,1.75,0,0,1-.71-.74A2.41,2.41,0,0,1,27.61,96a2.44,2.44,0,0,1,.25-1.15,1.81,1.81,0,0,1,.71-.74A2.11,2.11,0,0,1,29.61,93.82Zm0,.57a1.33,1.33,0,0,0-.72.19,1.28,1.28,0,0,0-.46.54,2,2,0,0,0-.16.85,1.94,1.94,0,0,0,.16.84,1.28,1.28,0,0,0,2.35,0,1.94,1.94,0,0,0,.16-.84,2,2,0,0,0-.16-.85,1.28,1.28,0,0,0-.46-.54A1.34,1.34,0,0,0,29.61,94.39Z"/><path d="M34.87,98.12a1.53,1.53,0,0,1-.64-.13,1.39,1.39,0,0,1-.51-.34,1.54,1.54,0,0,1-.33-.51l.1-.11-.06,1h-.58V92h.66v2.83l-.08-.12a1.33,1.33,0,0,1,.56-.64,1.58,1.58,0,0,1,.89-.26,1.8,1.8,0,0,1,.94.26,1.87,1.87,0,0,1,.69.73A2.45,2.45,0,0,1,36.76,96a2.3,2.3,0,0,1-.26,1.15,1.77,1.77,0,0,1-.69.74A1.8,1.8,0,0,1,34.87,98.12Zm-.06-.58a1.15,1.15,0,0,0,.95-.43A1.78,1.78,0,0,0,36.1,96a1.84,1.84,0,0,0-.33-1.14,1.17,1.17,0,0,0-1-.43,1.24,1.24,0,0,0-.69.2,1.37,1.37,0,0,0-.45.55,2,2,0,0,0-.17.84,1.91,1.91,0,0,0,.16.82,1.28,1.28,0,0,0,.46.54A1.18,1.18,0,0,0,34.81,97.54Z"/><path d="M40.44,95.37a.87.87,0,0,0-.95-1,1.3,1.3,0,0,0-.73.19,1,1,0,0,0-.43.6l-.54-.33a1.44,1.44,0,0,1,.61-.75,2,2,0,0,1,1.11-.29,2.08,2.08,0,0,1,.8.16,1.21,1.21,0,0,1,.58.46,1.4,1.4,0,0,1,.21.8v2c0,.2.1.3.31.3a1.06,1.06,0,0,0,.31,0l0,.52a.92.92,0,0,1-.43.08,1,1,0,0,1-.43-.09.66.66,0,0,1-.3-.27,1,1,0,0,1-.11-.47v-.08l.17,0a1.13,1.13,0,0,1-.34.53,1.57,1.57,0,0,1-.54.29,1.73,1.73,0,0,1-.58.1,1.68,1.68,0,0,1-.68-.13,1,1,0,0,1-.5-.37,1.11,1.11,0,0,1,.12-1.39,1.69,1.69,0,0,1,.87-.41l1.63-.32v.55l-1.33.27a1.42,1.42,0,0,0-.6.23.5.5,0,0,0-.2.41.53.53,0,0,0,.2.42.91.91,0,0,0,.58.16,1.76,1.76,0,0,0,.46-.06,1.41,1.41,0,0,0,.39-.19,1,1,0,0,0,.27-.32,1,1,0,0,0,.1-.46Z"/><path d="M43.33,92v5a.6.6,0,0,0,.12.43.48.48,0,0,0,.37.12l.27,0,.29-.1-.11.58a1.23,1.23,0,0,1-.29.09,1.66,1.66,0,0,1-.32,0,1,1,0,0,1-.75-.27,1.26,1.26,0,0,1-.24-.84V92Z"/><rect class="cls-2" x="70.25" y="88" width="54" height="16"/><path d="M87.46,98.12a2.61,2.61,0,0,1-1.34-.34,2.36,2.36,0,0,1-.88-1,3.46,3.46,0,0,1-.31-1.5,3.12,3.12,0,0,1,.33-1.49,2.31,2.31,0,0,1,.91-1,2.61,2.61,0,0,1,1.35-.35,2.48,2.48,0,0,1,1.32.31,2.24,2.24,0,0,1,.82.94l-.61.33a1.4,1.4,0,0,0-.57-.71,1.72,1.72,0,0,0-1-.25,1.76,1.76,0,0,0-1.65,1,2.67,2.67,0,0,0-.24,1.18,3,3,0,0,0,.21,1.18,1.65,1.65,0,0,0,.62.75,1.94,1.94,0,0,0,1,.26,2.18,2.18,0,0,0,.63-.09,1.54,1.54,0,0,0,.51-.26,1.07,1.07,0,0,0,.34-.44,1.44,1.44,0,0,0,.13-.61v-.19H87.36v-.62H89.7V98h-.52l0-1,.15,0a1.67,1.67,0,0,1-.68.8A2.25,2.25,0,0,1,87.46,98.12Z"/><path d="M91.75,92v5a.65.65,0,0,0,.11.43.5.5,0,0,0,.37.12l.28,0,.28-.1-.1.58a1.4,1.4,0,0,1-.29.09,1.73,1.73,0,0,1-.32,0,1,1,0,0,1-.75-.27,1.26,1.26,0,0,1-.24-.84V92Z"/><path d="M95.36,93.82a2,2,0,0,1,1,.26,1.81,1.81,0,0,1,.71.74A2.44,2.44,0,0,1,97.35,96a2.41,2.41,0,0,1-.25,1.15,1.75,1.75,0,0,1-.71.74,2,2,0,0,1-1,.26,2.08,2.08,0,0,1-1-.26,1.75,1.75,0,0,1-.71-.74A2.41,2.41,0,0,1,93.36,96a2.44,2.44,0,0,1,.25-1.15,1.81,1.81,0,0,1,.71-.74A2.08,2.08,0,0,1,95.36,93.82Zm0,.57a1.33,1.33,0,0,0-.72.19,1.28,1.28,0,0,0-.46.54A2,2,0,0,0,94,96a1.94,1.94,0,0,0,.16.84,1.2,1.2,0,0,0,1.18.74,1.23,1.23,0,0,0,.71-.19,1.25,1.25,0,0,0,.46-.55,1.94,1.94,0,0,0,.16-.84,2,2,0,0,0-.16-.85,1.28,1.28,0,0,0-.46-.54A1.32,1.32,0,0,0,95.36,94.39Z"/><path d="M100.62,98.12A1.53,1.53,0,0,1,100,98a1.39,1.39,0,0,1-.51-.34,1.54,1.54,0,0,1-.33-.51l.1-.11-.06,1H98.6V92h.66v2.83l-.08-.12a1.33,1.33,0,0,1,.56-.64,1.58,1.58,0,0,1,.89-.26,1.8,1.8,0,0,1,.94.26,1.87,1.87,0,0,1,.69.73,2.45,2.45,0,0,1,.25,1.16,2.3,2.3,0,0,1-.26,1.15,1.77,1.77,0,0,1-.69.74A1.8,1.8,0,0,1,100.62,98.12Zm-.06-.58a1.15,1.15,0,0,0,1-.43,1.78,1.78,0,0,0,.34-1.14,1.84,1.84,0,0,0-.33-1.14,1.17,1.17,0,0,0-1-.43,1.24,1.24,0,0,0-.69.2,1.37,1.37,0,0,0-.45.55,2,2,0,0,0-.17.84,1.91,1.91,0,0,0,.16.82,1.28,1.28,0,0,0,.46.54A1.18,1.18,0,0,0,100.56,97.54Z"/><path d="M106.19,95.37a.87.87,0,0,0-1-1,1.3,1.3,0,0,0-.73.19,1,1,0,0,0-.43.6l-.54-.33a1.44,1.44,0,0,1,.61-.75,2,2,0,0,1,1.11-.29,2.08,2.08,0,0,1,.8.16,1.21,1.21,0,0,1,.58.46,1.4,1.4,0,0,1,.21.8v2c0,.2.1.3.31.3a1.06,1.06,0,0,0,.31,0l0,.52a.92.92,0,0,1-.43.08,1,1,0,0,1-.43-.09.66.66,0,0,1-.3-.27,1,1,0,0,1-.11-.47v-.08l.17,0a1.13,1.13,0,0,1-.34.53,1.57,1.57,0,0,1-.54.29,1.73,1.73,0,0,1-.58.1,1.68,1.68,0,0,1-.68-.13,1,1,0,0,1-.5-.37,1.11,1.11,0,0,1,.12-1.39,1.69,1.69,0,0,1,.87-.41l1.63-.32v.55l-1.33.27a1.42,1.42,0,0,0-.6.23.5.5,0,0,0-.2.41.53.53,0,0,0,.2.42.91.91,0,0,0,.58.16,1.76,1.76,0,0,0,.46-.06,1.41,1.41,0,0,0,.39-.19,1,1,0,0,0,.27-.32,1,1,0,0,0,.1-.46Z"/><path d="M109.08,92v5a.6.6,0,0,0,.12.43.48.48,0,0,0,.37.12l.27,0,.29-.1L110,98a1.23,1.23,0,0,1-.29.09,1.66,1.66,0,0,1-.32,0,1,1,0,0,1-.75-.27,1.26,1.26,0,0,1-.24-.84V92Z"/><rect class="cls-2" x="136" y="88" width="54" height="16"/><path d="M153.21,98.12a2.61,2.61,0,0,1-1.34-.34,2.36,2.36,0,0,1-.88-1,3.46,3.46,0,0,1-.31-1.5,3.12,3.12,0,0,1,.33-1.49,2.31,2.31,0,0,1,.91-1,2.61,2.61,0,0,1,1.35-.35,2.48,2.48,0,0,1,1.32.31,2.24,2.24,0,0,1,.82.94l-.61.33a1.4,1.4,0,0,0-.57-.71,1.72,1.72,0,0,0-1-.25,1.76,1.76,0,0,0-1.65,1,2.67,2.67,0,0,0-.24,1.18,3,3,0,0,0,.21,1.18,1.65,1.65,0,0,0,.62.75,1.94,1.94,0,0,0,1,.26,2.18,2.18,0,0,0,.63-.09,1.54,1.54,0,0,0,.51-.26,1.07,1.07,0,0,0,.34-.44,1.44,1.44,0,0,0,.13-.61v-.19h-1.74v-.62h2.34V98h-.52l0-1,.15,0a1.67,1.67,0,0,1-.68.8A2.25,2.25,0,0,1,153.21,98.12Z"/><path d="M157.5,92v5a.65.65,0,0,0,.11.43.5.5,0,0,0,.37.12l.28,0,.28-.1-.1.58a1.4,1.4,0,0,1-.29.09,1.73,1.73,0,0,1-.32,0,1,1,0,0,1-.75-.27,1.26,1.26,0,0,1-.24-.84V92Z"/><path d="M161.11,93.82a2,2,0,0,1,1,.26,1.81,1.81,0,0,1,.71.74A2.44,2.44,0,0,1,163.1,96a2.41,2.41,0,0,1-.25,1.15,1.75,1.75,0,0,1-.71.74,2,2,0,0,1-1,.26,2.11,2.11,0,0,1-1-.26,1.75,1.75,0,0,1-.71-.74,2.41,2.41,0,0,1-.25-1.15,2.44,2.44,0,0,1,.25-1.15,1.81,1.81,0,0,1,.71-.74A2.11,2.11,0,0,1,161.11,93.82Zm0,.57a1.33,1.33,0,0,0-.72.19,1.28,1.28,0,0,0-.46.54,2,2,0,0,0-.16.85,1.94,1.94,0,0,0,.16.84,1.28,1.28,0,0,0,2.35,0,1.94,1.94,0,0,0,.16-.84,2,2,0,0,0-.16-.85,1.28,1.28,0,0,0-.46-.54A1.34,1.34,0,0,0,161.11,94.39Z"/><path d="M166.37,98.12a1.53,1.53,0,0,1-.64-.13,1.39,1.39,0,0,1-.51-.34,1.54,1.54,0,0,1-.33-.51L165,97l-.06,1h-.58V92H165v2.83l-.08-.12a1.33,1.33,0,0,1,.56-.64,1.58,1.58,0,0,1,.89-.26,1.8,1.8,0,0,1,.94.26,1.87,1.87,0,0,1,.69.73,2.45,2.45,0,0,1,.25,1.16,2.3,2.3,0,0,1-.26,1.15,1.77,1.77,0,0,1-.69.74A1.8,1.8,0,0,1,166.37,98.12Zm-.06-.58a1.15,1.15,0,0,0,.95-.43A1.78,1.78,0,0,0,167.6,96a1.84,1.84,0,0,0-.33-1.14,1.17,1.17,0,0,0-1-.43,1.24,1.24,0,0,0-.69.2,1.37,1.37,0,0,0-.45.55A2,2,0,0,0,165,96a1.91,1.91,0,0,0,.16.82,1.28,1.28,0,0,0,.46.54A1.18,1.18,0,0,0,166.31,97.54Z"/><path d="M171.94,95.37a.87.87,0,0,0-.95-1,1.3,1.3,0,0,0-.73.19,1,1,0,0,0-.43.6l-.54-.33a1.44,1.44,0,0,1,.61-.75,2,2,0,0,1,1.11-.29,2.08,2.08,0,0,1,.8.16,1.21,1.21,0,0,1,.58.46,1.4,1.4,0,0,1,.21.8v2c0,.2.1.3.31.3a1.06,1.06,0,0,0,.31,0l0,.52a.92.92,0,0,1-.43.08,1,1,0,0,1-.43-.09.66.66,0,0,1-.3-.27,1,1,0,0,1-.11-.47v-.08l.17,0a1.13,1.13,0,0,1-.34.53,1.57,1.57,0,0,1-.54.29,1.73,1.73,0,0,1-.58.1A1.68,1.68,0,0,1,170,98a1,1,0,0,1-.5-.37,1.11,1.11,0,0,1,.12-1.39,1.69,1.69,0,0,1,.87-.41l1.63-.32v.55l-1.33.27a1.42,1.42,0,0,0-.6.23.5.5,0,0,0-.2.41.53.53,0,0,0,.2.42.91.91,0,0,0,.58.16,1.76,1.76,0,0,0,.46-.06,1.41,1.41,0,0,0,.39-.19,1,1,0,0,0,.27-.32,1,1,0,0,0,.1-.46Z"/><path d="M174.83,92v5a.6.6,0,0,0,.12.43.48.48,0,0,0,.37.12l.27,0,.29-.1-.11.58a1.23,1.23,0,0,1-.29.09,1.66,1.66,0,0,1-.32,0,1,1,0,0,1-.75-.27,1.26,1.26,0,0,1-.24-.84V92Z"/><rect class="cls-2" x="201.75" y="88" width="54" height="16"/><path d="M219,98.12a2.61,2.61,0,0,1-1.34-.34,2.36,2.36,0,0,1-.88-1,3.46,3.46,0,0,1-.31-1.5,3.12,3.12,0,0,1,.33-1.49,2.31,2.31,0,0,1,.91-1A2.61,2.61,0,0,1,219,92.5a2.48,2.48,0,0,1,1.32.31,2.24,2.24,0,0,1,.82.94l-.61.33a1.4,1.4,0,0,0-.57-.71,1.72,1.72,0,0,0-1-.25,1.76,1.76,0,0,0-1.65,1,2.67,2.67,0,0,0-.24,1.18,3,3,0,0,0,.21,1.18,1.65,1.65,0,0,0,.62.75,1.94,1.94,0,0,0,1,.26,2.18,2.18,0,0,0,.63-.09,1.54,1.54,0,0,0,.51-.26,1.07,1.07,0,0,0,.34-.44,1.44,1.44,0,0,0,.13-.61v-.19h-1.74v-.62h2.34V98h-.52l0-1,.15,0a1.67,1.67,0,0,1-.68.8A2.25,2.25,0,0,1,219,98.12Z"/><path d="M223.25,92v5a.65.65,0,0,0,.11.43.5.5,0,0,0,.37.12l.28,0,.28-.1-.1.58a1.4,1.4,0,0,1-.29.09,1.73,1.73,0,0,1-.32,0,1,1,0,0,1-.75-.27,1.26,1.26,0,0,1-.24-.84V92Z"/><path d="M226.86,93.82a2,2,0,0,1,1,.26,1.81,1.81,0,0,1,.71.74,2.44,2.44,0,0,1,.25,1.15,2.41,2.41,0,0,1-.25,1.15,1.75,1.75,0,0,1-.71.74,2,2,0,0,1-1,.26,2.08,2.08,0,0,1-1-.26,1.75,1.75,0,0,1-.71-.74,2.41,2.41,0,0,1-.25-1.15,2.44,2.44,0,0,1,.25-1.15,1.81,1.81,0,0,1,.71-.74A2.08,2.08,0,0,1,226.86,93.82Zm0,.57a1.33,1.33,0,0,0-.72.19,1.28,1.28,0,0,0-.46.54,2,2,0,0,0-.16.85,1.94,1.94,0,0,0,.16.84,1.2,1.2,0,0,0,1.18.74,1.23,1.23,0,0,0,.71-.19,1.25,1.25,0,0,0,.46-.55,1.94,1.94,0,0,0,.16-.84,2,2,0,0,0-.16-.85,1.28,1.28,0,0,0-.46-.54A1.32,1.32,0,0,0,226.86,94.39Z"/><path d="M232.12,98.12a1.53,1.53,0,0,1-.64-.13,1.39,1.39,0,0,1-.51-.34,1.54,1.54,0,0,1-.33-.51l.1-.11-.06,1h-.58V92h.66v2.83l-.08-.12a1.33,1.33,0,0,1,.56-.64,1.58,1.58,0,0,1,.89-.26,1.8,1.8,0,0,1,.94.26,1.87,1.87,0,0,1,.69.73A2.45,2.45,0,0,1,234,96a2.3,2.3,0,0,1-.26,1.15,1.77,1.77,0,0,1-.69.74A1.8,1.8,0,0,1,232.12,98.12Zm-.06-.58a1.15,1.15,0,0,0,.95-.43,1.78,1.78,0,0,0,.34-1.14,1.84,1.84,0,0,0-.33-1.14,1.17,1.17,0,0,0-1-.43,1.24,1.24,0,0,0-.69.2,1.37,1.37,0,0,0-.45.55,2,2,0,0,0-.17.84,1.91,1.91,0,0,0,.16.82,1.28,1.28,0,0,0,.46.54A1.18,1.18,0,0,0,232.06,97.54Z"/><path d="M237.69,95.37a.87.87,0,0,0-.95-1,1.3,1.3,0,0,0-.73.19,1,1,0,0,0-.43.6l-.54-.33a1.44,1.44,0,0,1,.61-.75,2,2,0,0,1,1.11-.29,2.08,2.08,0,0,1,.8.16,1.21,1.21,0,0,1,.58.46,1.4,1.4,0,0,1,.21.8v2c0,.2.1.3.31.3a1.06,1.06,0,0,0,.31,0l0,.52a.92.92,0,0,1-.43.08,1,1,0,0,1-.43-.09.66.66,0,0,1-.3-.27,1,1,0,0,1-.11-.47v-.08l.17,0a1.13,1.13,0,0,1-.34.53A1.57,1.57,0,0,1,237,98a1.73,1.73,0,0,1-.58.1,1.68,1.68,0,0,1-.68-.13,1,1,0,0,1-.5-.37,1.11,1.11,0,0,1,.12-1.39,1.69,1.69,0,0,1,.87-.41l1.63-.32v.55l-1.33.27a1.42,1.42,0,0,0-.6.23.5.5,0,0,0-.2.41.53.53,0,0,0,.2.42.91.91,0,0,0,.58.16,1.76,1.76,0,0,0,.46-.06,1.41,1.41,0,0,0,.39-.19,1,1,0,0,0,.27-.32,1,1,0,0,0,.1-.46Z"/><path d="M240.58,92v5a.6.6,0,0,0,.12.43.48.48,0,0,0,.37.12l.27,0,.29-.1-.11.58a1.23,1.23,0,0,1-.29.09,1.66,1.66,0,0,1-.32,0,1,1,0,0,1-.75-.27,1.26,1.26,0,0,1-.24-.84V92Z"/><rect class="cls-2" x="267.5" y="88" width="54" height="16"/><path d="M284.71,98.12a2.61,2.61,0,0,1-1.34-.34,2.36,2.36,0,0,1-.88-1,3.46,3.46,0,0,1-.31-1.5,3.12,3.12,0,0,1,.33-1.49,2.31,2.31,0,0,1,.91-1,2.61,2.61,0,0,1,1.35-.35,2.48,2.48,0,0,1,1.32.31,2.24,2.24,0,0,1,.82.94l-.61.33a1.4,1.4,0,0,0-.57-.71,1.72,1.72,0,0,0-1-.25,1.76,1.76,0,0,0-1.65,1,2.67,2.67,0,0,0-.24,1.18,3,3,0,0,0,.21,1.18,1.65,1.65,0,0,0,.62.75,1.94,1.94,0,0,0,1,.26,2.18,2.18,0,0,0,.63-.09,1.54,1.54,0,0,0,.51-.26,1.07,1.07,0,0,0,.34-.44,1.44,1.44,0,0,0,.13-.61v-.19h-1.74v-.62H287V98h-.52l0-1,.15,0a1.67,1.67,0,0,1-.68.8A2.25,2.25,0,0,1,284.71,98.12Z"/><path d="M289,92v5a.65.65,0,0,0,.11.43.5.5,0,0,0,.37.12l.28,0,.28-.1-.1.58a1.4,1.4,0,0,1-.29.09,1.73,1.73,0,0,1-.32,0,1,1,0,0,1-.75-.27,1.26,1.26,0,0,1-.24-.84V92Z"/><path d="M292.61,93.82a2,2,0,0,1,1,.26,1.81,1.81,0,0,1,.71.74A2.44,2.44,0,0,1,294.6,96a2.41,2.41,0,0,1-.25,1.15,1.75,1.75,0,0,1-.71.74,2,2,0,0,1-1,.26,2.11,2.11,0,0,1-1-.26,1.75,1.75,0,0,1-.71-.74,2.41,2.41,0,0,1-.25-1.15,2.44,2.44,0,0,1,.25-1.15,1.81,1.81,0,0,1,.71-.74A2.11,2.11,0,0,1,292.61,93.82Zm0,.57a1.33,1.33,0,0,0-.72.19,1.28,1.28,0,0,0-.46.54,2,2,0,0,0-.16.85,1.94,1.94,0,0,0,.16.84,1.28,1.28,0,0,0,2.35,0,1.94,1.94,0,0,0,.16-.84,2,2,0,0,0-.16-.85,1.28,1.28,0,0,0-.46-.54A1.34,1.34,0,0,0,292.61,94.39Z"/><path d="M297.87,98.12a1.53,1.53,0,0,1-.64-.13,1.39,1.39,0,0,1-.51-.34,1.54,1.54,0,0,1-.33-.51l.1-.11-.06,1h-.58V92h.66v2.83l-.08-.12a1.33,1.33,0,0,1,.56-.64,1.58,1.58,0,0,1,.89-.26,1.8,1.8,0,0,1,.94.26,1.87,1.87,0,0,1,.69.73,2.45,2.45,0,0,1,.25,1.16,2.3,2.3,0,0,1-.26,1.15,1.77,1.77,0,0,1-.69.74A1.8,1.8,0,0,1,297.87,98.12Zm-.06-.58a1.15,1.15,0,0,0,.95-.43A1.78,1.78,0,0,0,299.1,96a1.84,1.84,0,0,0-.33-1.14,1.17,1.17,0,0,0-.95-.43,1.24,1.24,0,0,0-.69.2,1.37,1.37,0,0,0-.45.55,2,2,0,0,0-.17.84,1.91,1.91,0,0,0,.16.82,1.28,1.28,0,0,0,.46.54A1.18,1.18,0,0,0,297.81,97.54Z"/><path d="M303.44,95.37a.87.87,0,0,0-.95-1,1.3,1.3,0,0,0-.73.19,1,1,0,0,0-.43.6l-.54-.33a1.44,1.44,0,0,1,.61-.75,2,2,0,0,1,1.11-.29,2.08,2.08,0,0,1,.8.16,1.21,1.21,0,0,1,.58.46,1.4,1.4,0,0,1,.21.8v2c0,.2.1.3.31.3a1.06,1.06,0,0,0,.31,0l0,.52a.92.92,0,0,1-.43.08,1,1,0,0,1-.43-.09.66.66,0,0,1-.3-.27,1,1,0,0,1-.11-.47v-.08l.17,0a1.13,1.13,0,0,1-.34.53,1.57,1.57,0,0,1-.54.29,1.73,1.73,0,0,1-.58.1,1.68,1.68,0,0,1-.68-.13,1,1,0,0,1-.5-.37,1.11,1.11,0,0,1,.12-1.39,1.69,1.69,0,0,1,.87-.41l1.63-.32v.55l-1.33.27a1.42,1.42,0,0,0-.6.23.5.5,0,0,0-.2.41.53.53,0,0,0,.2.42.91.91,0,0,0,.58.16,1.76,1.76,0,0,0,.46-.06,1.41,1.41,0,0,0,.39-.19,1,1,0,0,0,.27-.32,1,1,0,0,0,.1-.46Z"/><path d="M306.33,92v5a.6.6,0,0,0,.12.43.48.48,0,0,0,.37.12l.27,0,.29-.1-.11.58a1.23,1.23,0,0,1-.29.09,1.66,1.66,0,0,1-.32,0,1,1,0,0,1-.75-.27,1.26,1.26,0,0,1-.24-.84V92Z"/><rect class="cls-2" x="333.25" y="88" width="54" height="16"/><path d="M350.46,98.12a2.61,2.61,0,0,1-1.34-.34,2.36,2.36,0,0,1-.88-1,3.46,3.46,0,0,1-.31-1.5,3.12,3.12,0,0,1,.33-1.49,2.31,2.31,0,0,1,.91-1,2.61,2.61,0,0,1,1.35-.35,2.48,2.48,0,0,1,1.32.31,2.24,2.24,0,0,1,.82.94l-.61.33a1.4,1.4,0,0,0-.57-.71,1.72,1.72,0,0,0-1-.25,1.76,1.76,0,0,0-1.65,1,2.67,2.67,0,0,0-.24,1.18,3,3,0,0,0,.21,1.18,1.65,1.65,0,0,0,.62.75,1.94,1.94,0,0,0,1,.26,2.18,2.18,0,0,0,.63-.09,1.54,1.54,0,0,0,.51-.26,1.07,1.07,0,0,0,.34-.44,1.44,1.44,0,0,0,.13-.61v-.19h-1.74v-.62h2.34V98h-.52l0-1,.15,0a1.67,1.67,0,0,1-.68.8A2.25,2.25,0,0,1,350.46,98.12Z"/><path d="M354.75,92v5a.65.65,0,0,0,.11.43.5.5,0,0,0,.37.12l.28,0,.28-.1-.1.58a1.4,1.4,0,0,1-.29.09,1.73,1.73,0,0,1-.32,0,1,1,0,0,1-.75-.27,1.26,1.26,0,0,1-.24-.84V92Z"/><path d="M358.36,93.82a2,2,0,0,1,1,.26,1.81,1.81,0,0,1,.71.74,2.44,2.44,0,0,1,.25,1.15,2.41,2.41,0,0,1-.25,1.15,1.75,1.75,0,0,1-.71.74,2,2,0,0,1-1,.26,2.08,2.08,0,0,1-1-.26,1.75,1.75,0,0,1-.71-.74,2.41,2.41,0,0,1-.25-1.15,2.44,2.44,0,0,1,.25-1.15,1.81,1.81,0,0,1,.71-.74A2.08,2.08,0,0,1,358.36,93.82Zm0,.57a1.33,1.33,0,0,0-.72.19,1.28,1.28,0,0,0-.46.54A2,2,0,0,0,357,96a1.94,1.94,0,0,0,.16.84,1.2,1.2,0,0,0,1.18.74,1.23,1.23,0,0,0,.71-.19,1.25,1.25,0,0,0,.46-.55,1.94,1.94,0,0,0,.16-.84,2,2,0,0,0-.16-.85,1.28,1.28,0,0,0-.46-.54A1.32,1.32,0,0,0,358.36,94.39Z"/><path d="M363.62,98.12A1.53,1.53,0,0,1,363,98a1.39,1.39,0,0,1-.51-.34,1.54,1.54,0,0,1-.33-.51l.1-.11-.06,1h-.58V92h.66v2.83l-.08-.12a1.33,1.33,0,0,1,.56-.64,1.58,1.58,0,0,1,.89-.26,1.8,1.8,0,0,1,.94.26,1.87,1.87,0,0,1,.69.73,2.45,2.45,0,0,1,.25,1.16,2.3,2.3,0,0,1-.26,1.15,1.77,1.77,0,0,1-.69.74A1.8,1.8,0,0,1,363.62,98.12Zm-.06-.58a1.15,1.15,0,0,0,.95-.43,1.78,1.78,0,0,0,.34-1.14,1.84,1.84,0,0,0-.33-1.14,1.17,1.17,0,0,0-.95-.43,1.24,1.24,0,0,0-.69.2,1.37,1.37,0,0,0-.45.55,2,2,0,0,0-.17.84,1.91,1.91,0,0,0,.16.82,1.28,1.28,0,0,0,.46.54A1.18,1.18,0,0,0,363.56,97.54Z"/><path d="M369.19,95.37a.87.87,0,0,0-.95-1,1.3,1.3,0,0,0-.73.19,1,1,0,0,0-.43.6l-.54-.33a1.44,1.44,0,0,1,.61-.75,2,2,0,0,1,1.11-.29,2.08,2.08,0,0,1,.8.16,1.21,1.21,0,0,1,.58.46,1.4,1.4,0,0,1,.21.8v2c0,.2.1.3.31.3a1.06,1.06,0,0,0,.31,0l0,.52a.92.92,0,0,1-.43.08,1,1,0,0,1-.43-.09.66.66,0,0,1-.3-.27,1,1,0,0,1-.11-.47v-.08l.17,0a1.13,1.13,0,0,1-.34.53,1.57,1.57,0,0,1-.54.29,1.73,1.73,0,0,1-.58.1,1.68,1.68,0,0,1-.68-.13,1,1,0,0,1-.5-.37,1.11,1.11,0,0,1,.12-1.39,1.69,1.69,0,0,1,.87-.41l1.63-.32v.55l-1.33.27a1.42,1.42,0,0,0-.6.23.5.5,0,0,0-.2.41.53.53,0,0,0,.2.42.91.91,0,0,0,.58.16,1.76,1.76,0,0,0,.46-.06,1.41,1.41,0,0,0,.39-.19,1,1,0,0,0,.27-.32,1,1,0,0,0,.1-.46Z"/><path d="M372.08,92v5a.6.6,0,0,0,.12.43.48.48,0,0,0,.37.12l.27,0,.29-.1L373,98a1.23,1.23,0,0,1-.29.09,1.66,1.66,0,0,1-.32,0,1,1,0,0,1-.75-.27,1.26,1.26,0,0,1-.24-.84V92Z"/><rect class="cls-2" x="399" y="88" width="54" height="16"/><path d="M416.21,98.12a2.61,2.61,0,0,1-1.34-.34,2.36,2.36,0,0,1-.88-1,3.46,3.46,0,0,1-.31-1.5,3.12,3.12,0,0,1,.33-1.49,2.31,2.31,0,0,1,.91-1,2.61,2.61,0,0,1,1.35-.35,2.48,2.48,0,0,1,1.32.31,2.24,2.24,0,0,1,.82.94l-.61.33a1.4,1.4,0,0,0-.57-.71,1.72,1.72,0,0,0-1-.25,1.76,1.76,0,0,0-1.65,1,2.67,2.67,0,0,0-.24,1.18,3,3,0,0,0,.21,1.18,1.65,1.65,0,0,0,.62.75,1.94,1.94,0,0,0,1,.26,2.18,2.18,0,0,0,.63-.09,1.54,1.54,0,0,0,.51-.26,1.07,1.07,0,0,0,.34-.44,1.44,1.44,0,0,0,.13-.61v-.19h-1.74v-.62h2.34V98h-.52l0-1,.15,0a1.67,1.67,0,0,1-.68.8A2.25,2.25,0,0,1,416.21,98.12Z"/><path d="M420.5,92v5a.65.65,0,0,0,.11.43.5.5,0,0,0,.37.12l.28,0,.28-.1-.1.58a1.4,1.4,0,0,1-.29.09,1.73,1.73,0,0,1-.32,0,1,1,0,0,1-.75-.27,1.26,1.26,0,0,1-.24-.84V92Z"/><path d="M424.11,93.82a2,2,0,0,1,1,.26,1.81,1.81,0,0,1,.71.74A2.44,2.44,0,0,1,426.1,96a2.41,2.41,0,0,1-.25,1.15,1.75,1.75,0,0,1-.71.74,2,2,0,0,1-1,.26,2.11,2.11,0,0,1-1-.26,1.75,1.75,0,0,1-.71-.74,2.41,2.41,0,0,1-.25-1.15,2.44,2.44,0,0,1,.25-1.15,1.81,1.81,0,0,1,.71-.74A2.11,2.11,0,0,1,424.11,93.82Zm0,.57a1.33,1.33,0,0,0-.72.19,1.28,1.28,0,0,0-.46.54,2,2,0,0,0-.16.85,1.94,1.94,0,0,0,.16.84,1.28,1.28,0,0,0,2.35,0,1.94,1.94,0,0,0,.16-.84,2,2,0,0,0-.16-.85,1.28,1.28,0,0,0-.46-.54A1.34,1.34,0,0,0,424.11,94.39Z"/><path d="M429.37,98.12a1.53,1.53,0,0,1-.64-.13,1.39,1.39,0,0,1-.51-.34,1.54,1.54,0,0,1-.33-.51L428,97l-.06,1h-.58V92H428v2.83l-.08-.12a1.33,1.33,0,0,1,.56-.64,1.58,1.58,0,0,1,.89-.26,1.8,1.8,0,0,1,.94.26,1.87,1.87,0,0,1,.69.73,2.45,2.45,0,0,1,.25,1.16,2.3,2.3,0,0,1-.26,1.15,1.77,1.77,0,0,1-.69.74A1.8,1.8,0,0,1,429.37,98.12Zm-.06-.58a1.15,1.15,0,0,0,.95-.43A1.78,1.78,0,0,0,430.6,96a1.84,1.84,0,0,0-.33-1.14,1.17,1.17,0,0,0-.95-.43,1.24,1.24,0,0,0-.69.2,1.37,1.37,0,0,0-.45.55A2,2,0,0,0,428,96a1.91,1.91,0,0,0,.16.82,1.28,1.28,0,0,0,.46.54A1.18,1.18,0,0,0,429.31,97.54Z"/><path d="M434.94,95.37a.87.87,0,0,0-.95-1,1.3,1.3,0,0,0-.73.19,1,1,0,0,0-.43.6l-.54-.33a1.44,1.44,0,0,1,.61-.75,2,2,0,0,1,1.11-.29,2.08,2.08,0,0,1,.8.16,1.21,1.21,0,0,1,.58.46,1.4,1.4,0,0,1,.21.8v2c0,.2.1.3.31.3a1.06,1.06,0,0,0,.31,0l0,.52a.92.92,0,0,1-.43.08,1,1,0,0,1-.43-.09.66.66,0,0,1-.3-.27,1,1,0,0,1-.11-.47v-.08l.17,0a1.13,1.13,0,0,1-.34.53,1.57,1.57,0,0,1-.54.29,1.73,1.73,0,0,1-.58.1A1.68,1.68,0,0,1,433,98a1,1,0,0,1-.5-.37,1.11,1.11,0,0,1,.12-1.39,1.69,1.69,0,0,1,.87-.41l1.63-.32v.55l-1.33.27a1.42,1.42,0,0,0-.6.23.5.5,0,0,0-.2.41.53.53,0,0,0,.2.42.91.91,0,0,0,.58.16,1.76,1.76,0,0,0,.46-.06,1.41,1.41,0,0,0,.39-.19,1,1,0,0,0,.27-.32,1,1,0,0,0,.1-.46Z"/><path d="M437.83,92v5a.6.6,0,0,0,.12.43.48.48,0,0,0,.37.12l.27,0,.29-.1-.11.58a1.23,1.23,0,0,1-.29.09,1.66,1.66,0,0,1-.32,0,1,1,0,0,1-.75-.27,1.26,1.26,0,0,1-.24-.84V92Z"/><rect class="cls-2" x="70" y="66" width="54" height="16"/><path d="M76.83,70l.37.37a4.34,4.34,0,0,0-.84,1,3.87,3.87,0,0,0-.45,1.12,6.12,6.12,0,0,0,0,2.51,3.76,3.76,0,0,0,.45,1.12,4.6,4.6,0,0,0,.84,1l-.37.37a5,5,0,0,1-1.28-1.69,5.22,5.22,0,0,1,0-4.15A4.83,4.83,0,0,1,76.83,70Z"/><path d="M80.26,72v.55H77.49V72Zm-.66-1.88a1.61,1.61,0,0,1,.39,0,.78.78,0,0,1,.29.14l-.17.52a.67.67,0,0,0-.21-.09.88.88,0,0,0-.24,0,.81.81,0,0,0-.54.16.66.66,0,0,0-.19.53V76h-.64V71.36a1.24,1.24,0,0,1,.08-.48,1,1,0,0,1,.24-.39,1.29,1.29,0,0,1,.41-.25A2,2,0,0,1,79.6,70.16Z"/><path d="M83.22,73.45a.84.84,0,0,0-.92-.93,1.31,1.31,0,0,0-.71.18,1,1,0,0,0-.42.58L80.65,73a1.39,1.39,0,0,1,.59-.73A2,2,0,0,1,82.31,72a2,2,0,0,1,.79.14,1.22,1.22,0,0,1,.55.45,1.32,1.32,0,0,1,.21.77v1.94a.26.26,0,0,0,.3.29,1.54,1.54,0,0,0,.3,0l0,.5a1.06,1.06,0,0,1-.83,0,.66.66,0,0,1-.29-.26.92.92,0,0,1-.1-.46V75.2l.16,0a1,1,0,0,1-.33.51,1.46,1.46,0,0,1-.52.28,1.9,1.9,0,0,1-.57.1,1.75,1.75,0,0,1-.65-.12,1.14,1.14,0,0,1-.49-.37,1.07,1.07,0,0,1,.12-1.34,1.58,1.58,0,0,1,.84-.4l1.58-.31v.53l-1.28.26a1.37,1.37,0,0,0-.59.23.46.46,0,0,0-.19.4.49.49,0,0,0,.2.4.88.88,0,0,0,.55.16,1.68,1.68,0,0,0,.45-.06,1.35,1.35,0,0,0,.38-.19.86.86,0,0,0,.26-.31,1,1,0,0,0,.1-.44Z"/><path d="M87.06,72a2.09,2.09,0,0,1,.74.12,1.58,1.58,0,0,1,.54.37,1.9,1.9,0,0,1,.38.57l-.61.29a1.14,1.14,0,0,0-.39-.59,1,1,0,0,0-.67-.2,1.27,1.27,0,0,0-.69.18,1.13,1.13,0,0,0-.44.52,2.29,2.29,0,0,0,0,1.63,1.16,1.16,0,0,0,.44.53,1.27,1.27,0,0,0,.69.18,1.44,1.44,0,0,0,.54-.1.87.87,0,0,0,.37-.28,1,1,0,0,0,.21-.45l.59.21a1.94,1.94,0,0,1-.37.63,1.66,1.66,0,0,1-.57.41,2,2,0,0,1-.76.14,2.09,2.09,0,0,1-1-.25,1.75,1.75,0,0,1-.68-.72,2.61,2.61,0,0,1,0-2.23,1.75,1.75,0,0,1,.68-.72A2.08,2.08,0,0,1,87.06,72Z"/><path d="M92.29,72v.55h-2.9V72ZM90.83,70.9v4a.54.54,0,0,0,.17.44.63.63,0,0,0,.43.15,1,1,0,0,0,.4-.08,1.6,1.6,0,0,0,.31-.22l.22.54a1.28,1.28,0,0,1-.44.26,1.67,1.67,0,0,1-.58.1,1.47,1.47,0,0,1-.56-.11.85.85,0,0,1-.42-.35,1.11,1.11,0,0,1-.17-.62v-4Z"/><path d="M94.9,72a2,2,0,0,1,1,.24,1.75,1.75,0,0,1,.68.72,2.61,2.61,0,0,1,0,2.23,1.75,1.75,0,0,1-.68.72,2.13,2.13,0,0,1-2,0,1.71,1.71,0,0,1-.69-.72,2.61,2.61,0,0,1,0-2.23,1.71,1.71,0,0,1,.69-.72A2,2,0,0,1,94.9,72Zm0,.55a1.28,1.28,0,0,0-.7.18,1.16,1.16,0,0,0-.44.53,2.16,2.16,0,0,0,0,1.63,1.16,1.16,0,0,0,.44.53,1.43,1.43,0,0,0,1.39,0,1.24,1.24,0,0,0,.45-.53,2.29,2.29,0,0,0,0-1.63,1.24,1.24,0,0,0-.45-.53A1.27,1.27,0,0,0,94.9,72.51Z"/><path d="M98,76V72h.52l.09.65a1.15,1.15,0,0,1,.49-.55,1.62,1.62,0,0,1,.79-.18h.23a.48.48,0,0,1,.21.07l-.11.58-.2-.05h-.29a1,1,0,0,0-.5.14,1.12,1.12,0,0,0-.42.44,1.47,1.47,0,0,0-.17.74V76Z"/><path d="M101.62,71.27a.48.48,0,0,1-.34-.13.48.48,0,0,1-.14-.35.47.47,0,0,1,.14-.35.44.44,0,0,1,.34-.13.45.45,0,0,1,.48.48.48.48,0,0,1-.13.35A.5.5,0,0,1,101.62,71.27Zm.32.77v4h-.64V72Z"/><path d="M105.77,73.45a.84.84,0,0,0-.92-.93,1.34,1.34,0,0,0-.71.18,1,1,0,0,0-.42.58L103.2,73a1.44,1.44,0,0,1,.59-.73,2.27,2.27,0,0,1,1.86-.13,1.22,1.22,0,0,1,.55.45,1.32,1.32,0,0,1,.21.77v1.94a.26.26,0,0,0,.3.29,1.54,1.54,0,0,0,.3,0l0,.5a1,1,0,0,1-.42.08,1,1,0,0,1-.42-.09.64.64,0,0,1-.28-.26.92.92,0,0,1-.11-.46V75.2l.16,0a1,1,0,0,1-.33.51,1.38,1.38,0,0,1-.52.28,1.89,1.89,0,0,1-.56.1,1.76,1.76,0,0,1-.66-.12,1.11,1.11,0,0,1-.48-.37,1.07,1.07,0,0,1,.12-1.34,1.58,1.58,0,0,1,.83-.4l1.59-.31v.53l-1.29.26a1.42,1.42,0,0,0-.59.23.48.48,0,0,0-.19.4.49.49,0,0,0,.2.4.88.88,0,0,0,.55.16,1.63,1.63,0,0,0,.45-.06,1.23,1.23,0,0,0,.38-.19.86.86,0,0,0,.26-.31.89.89,0,0,0,.1-.44Z"/><path d="M108.57,70.2V75a.64.64,0,0,0,.11.42.47.47,0,0,0,.36.12.93.93,0,0,0,.26,0,1.1,1.1,0,0,0,.28-.09l-.1.56a1.31,1.31,0,0,1-.28.09,1.63,1.63,0,0,1-.31,0,.92.92,0,0,1-.73-.27,1.21,1.21,0,0,1-.23-.81V70.2Z"/><path d="M114.43,76.12a2.33,2.33,0,0,1-1.24-.34,1.6,1.6,0,0,1-.73-.91l.64-.33a1.69,1.69,0,0,0,.26.52,1.16,1.16,0,0,0,.44.34,1.79,1.79,0,0,0,.7.12,1.32,1.32,0,0,0,.59-.13,1,1,0,0,0,.37-.35,1.07,1.07,0,0,0,.12-.51,1,1,0,0,0-.1-.48.67.67,0,0,0-.34-.28,1.75,1.75,0,0,0-.61-.09h-.19l-.22,0v-.64h.26a1.26,1.26,0,0,0,.84-.23,1,1,0,0,0,.24-.72.79.79,0,0,0-.25-.63,1.13,1.13,0,0,0-.73-.21,1.16,1.16,0,0,0-.77.22,1.45,1.45,0,0,0-.41.59l-.61-.29a1.62,1.62,0,0,1,.38-.59,1.89,1.89,0,0,1,.62-.4,2.29,2.29,0,0,1,.81-.14,1.92,1.92,0,0,1,.91.19,1.25,1.25,0,0,1,.54.5,1.3,1.3,0,0,1,.18.68,1.62,1.62,0,0,1-.08.52,1.71,1.71,0,0,1-.22.4,1.11,1.11,0,0,1-.32.26,1.28,1.28,0,0,1-.37.14h0a1.11,1.11,0,0,1,.46.11.9.9,0,0,1,.35.25,1.07,1.07,0,0,1,.22.37,1.16,1.16,0,0,1,.08.42,1.54,1.54,0,0,1-.23.83,1.46,1.46,0,0,1-.64.56A2,2,0,0,1,114.43,76.12Z"/><path d="M117.17,77.55l-.37-.37a4.55,4.55,0,0,0,.84-1,4,4,0,0,0,.45-1.12,5.6,5.6,0,0,0,.13-1.26,5.73,5.73,0,0,0-.13-1.26,3.87,3.87,0,0,0-.45-1.12,4.55,4.55,0,0,0-.84-1l.37-.37a5,5,0,0,1,1.28,1.68,5.25,5.25,0,0,1,0,4.16A5,5,0,0,1,117.17,77.55Z"/><rect class="cls-2" x="136" y="66" width="54" height="16"/><path d="M142.83,70l.37.37a4.34,4.34,0,0,0-.84,1,3.87,3.87,0,0,0-.45,1.12,6.12,6.12,0,0,0,0,2.51,3.76,3.76,0,0,0,.45,1.12,4.6,4.6,0,0,0,.84,1l-.37.37a5,5,0,0,1-1.28-1.69,5.22,5.22,0,0,1,0-4.15A4.83,4.83,0,0,1,142.83,70Z"/><path d="M146.26,72v.55h-2.77V72Zm-.66-1.88a1.61,1.61,0,0,1,.39,0,.78.78,0,0,1,.29.14l-.17.52a.67.67,0,0,0-.21-.09.88.88,0,0,0-.24,0,.81.81,0,0,0-.54.16.66.66,0,0,0-.19.53V76h-.64V71.36a1.24,1.24,0,0,1,.08-.48,1,1,0,0,1,.24-.39,1.29,1.29,0,0,1,.41-.25A2,2,0,0,1,145.6,70.16Z"/><path d="M149.22,73.45a.84.84,0,0,0-.92-.93,1.31,1.31,0,0,0-.71.18,1,1,0,0,0-.42.58l-.52-.32a1.39,1.39,0,0,1,.59-.73,2,2,0,0,1,1.07-.27,2,2,0,0,1,.79.14,1.22,1.22,0,0,1,.55.45,1.32,1.32,0,0,1,.21.77v1.94a.26.26,0,0,0,.3.29,1.54,1.54,0,0,0,.3,0l0,.5a1.06,1.06,0,0,1-.83,0,.66.66,0,0,1-.29-.26.92.92,0,0,1-.1-.46V75.2l.16,0a1,1,0,0,1-.33.51,1.46,1.46,0,0,1-.52.28,1.9,1.9,0,0,1-.57.1,1.75,1.75,0,0,1-.65-.12,1.14,1.14,0,0,1-.49-.37,1.07,1.07,0,0,1,.12-1.34,1.58,1.58,0,0,1,.84-.4l1.58-.31v.53l-1.28.26a1.37,1.37,0,0,0-.59.23.46.46,0,0,0-.19.4.49.49,0,0,0,.2.4.88.88,0,0,0,.55.16,1.68,1.68,0,0,0,.45-.06,1.35,1.35,0,0,0,.38-.19.86.86,0,0,0,.26-.31,1,1,0,0,0,.1-.44Z"/><path d="M153.06,72a2.09,2.09,0,0,1,.74.12,1.58,1.58,0,0,1,.54.37,1.9,1.9,0,0,1,.38.57l-.61.29a1.14,1.14,0,0,0-.39-.59,1,1,0,0,0-.67-.2,1.27,1.27,0,0,0-.69.18,1.13,1.13,0,0,0-.44.52,2.29,2.29,0,0,0,0,1.63,1.16,1.16,0,0,0,.44.53,1.27,1.27,0,0,0,.69.18,1.44,1.44,0,0,0,.54-.1.87.87,0,0,0,.37-.28,1,1,0,0,0,.21-.45l.59.21a1.94,1.94,0,0,1-.37.63,1.66,1.66,0,0,1-.57.41,2,2,0,0,1-.76.14,2.09,2.09,0,0,1-1-.25,1.75,1.75,0,0,1-.68-.72,2.61,2.61,0,0,1,0-2.23,1.75,1.75,0,0,1,.68-.72A2.08,2.08,0,0,1,153.06,72Z"/><path d="M158.29,72v.55h-2.9V72Zm-1.46-1.14v4a.54.54,0,0,0,.17.44.63.63,0,0,0,.43.15,1,1,0,0,0,.4-.08,1.6,1.6,0,0,0,.31-.22l.22.54a1.28,1.28,0,0,1-.44.26,1.67,1.67,0,0,1-.58.1,1.47,1.47,0,0,1-.56-.11.85.85,0,0,1-.42-.35,1.11,1.11,0,0,1-.17-.62v-4Z"/><path d="M160.9,72a2,2,0,0,1,1,.24,1.75,1.75,0,0,1,.68.72,2.61,2.61,0,0,1,0,2.23,1.75,1.75,0,0,1-.68.72,2.13,2.13,0,0,1-2,0,1.71,1.71,0,0,1-.69-.72,2.61,2.61,0,0,1,0-2.23,1.71,1.71,0,0,1,.69-.72A2,2,0,0,1,160.9,72Zm0,.55a1.28,1.28,0,0,0-.7.18,1.16,1.16,0,0,0-.44.53,2.16,2.16,0,0,0,0,1.63,1.16,1.16,0,0,0,.44.53,1.43,1.43,0,0,0,1.39,0,1.24,1.24,0,0,0,.45-.53,2.29,2.29,0,0,0,0-1.63,1.24,1.24,0,0,0-.45-.53A1.27,1.27,0,0,0,160.9,72.51Z"/><path d="M164,76V72h.52l.09.65a1.15,1.15,0,0,1,.49-.55,1.62,1.62,0,0,1,.79-.18h.23a.48.48,0,0,1,.21.07l-.11.58-.2-.05h-.29a1,1,0,0,0-.5.14,1.12,1.12,0,0,0-.42.44,1.47,1.47,0,0,0-.17.74V76Z"/><path d="M167.62,71.27a.48.48,0,0,1-.34-.13.48.48,0,0,1-.14-.35.47.47,0,0,1,.14-.35.44.44,0,0,1,.34-.13.45.45,0,0,1,.48.48.48.48,0,0,1-.13.35A.5.5,0,0,1,167.62,71.27Zm.32.77v4h-.64V72Z"/><path d="M171.77,73.45a.84.84,0,0,0-.92-.93,1.34,1.34,0,0,0-.71.18,1,1,0,0,0-.42.58L169.2,73a1.44,1.44,0,0,1,.59-.73,2.27,2.27,0,0,1,1.86-.13,1.22,1.22,0,0,1,.55.45,1.32,1.32,0,0,1,.21.77v1.94a.26.26,0,0,0,.3.29,1.54,1.54,0,0,0,.3,0l0,.5a1,1,0,0,1-.42.08,1,1,0,0,1-.42-.09.64.64,0,0,1-.28-.26.92.92,0,0,1-.11-.46V75.2l.16,0a1,1,0,0,1-.33.51,1.38,1.38,0,0,1-.52.28,1.89,1.89,0,0,1-.56.1,1.76,1.76,0,0,1-.66-.12,1.11,1.11,0,0,1-.48-.37,1.07,1.07,0,0,1,.12-1.34,1.58,1.58,0,0,1,.83-.4l1.59-.31v.53l-1.29.26a1.42,1.42,0,0,0-.59.23.48.48,0,0,0-.19.4.49.49,0,0,0,.2.4.88.88,0,0,0,.55.16,1.63,1.63,0,0,0,.45-.06,1.23,1.23,0,0,0,.38-.19.86.86,0,0,0,.26-.31.89.89,0,0,0,.1-.44Z"/><path d="M174.57,70.2V75a.64.64,0,0,0,.11.42.47.47,0,0,0,.36.12.93.93,0,0,0,.26,0,1.1,1.1,0,0,0,.28-.09l-.1.56a1.31,1.31,0,0,1-.28.09,1.63,1.63,0,0,1-.31,0,.92.92,0,0,1-.73-.27,1.21,1.21,0,0,1-.23-.81V70.2Z"/><path d="M180.43,76.12a2.33,2.33,0,0,1-1.24-.34,1.6,1.6,0,0,1-.73-.91l.64-.33a1.69,1.69,0,0,0,.26.52,1.16,1.16,0,0,0,.44.34,1.79,1.79,0,0,0,.7.12,1.32,1.32,0,0,0,.59-.13,1,1,0,0,0,.37-.35,1.07,1.07,0,0,0,.12-.51,1,1,0,0,0-.1-.48.67.67,0,0,0-.34-.28,1.75,1.75,0,0,0-.61-.09h-.19l-.22,0v-.64h.26a1.26,1.26,0,0,0,.84-.23,1,1,0,0,0,.24-.72.79.79,0,0,0-.25-.63,1.13,1.13,0,0,0-.73-.21,1.16,1.16,0,0,0-.77.22,1.45,1.45,0,0,0-.41.59l-.61-.29a1.62,1.62,0,0,1,.38-.59,1.89,1.89,0,0,1,.62-.4,2.29,2.29,0,0,1,.81-.14,1.92,1.92,0,0,1,.91.19,1.25,1.25,0,0,1,.54.5,1.3,1.3,0,0,1,.18.68,1.62,1.62,0,0,1-.08.52,1.71,1.71,0,0,1-.22.4,1.11,1.11,0,0,1-.32.26,1.28,1.28,0,0,1-.37.14h0a1.11,1.11,0,0,1,.46.11.9.9,0,0,1,.35.25,1.07,1.07,0,0,1,.22.37,1.16,1.16,0,0,1,.08.42,1.54,1.54,0,0,1-.23.83,1.46,1.46,0,0,1-.64.56A2,2,0,0,1,180.43,76.12Z"/><path d="M183.17,77.55l-.37-.37a4.55,4.55,0,0,0,.84-1,4,4,0,0,0,.45-1.12,5.6,5.6,0,0,0,.13-1.26,5.73,5.73,0,0,0-.13-1.26,3.87,3.87,0,0,0-.45-1.12,4.55,4.55,0,0,0-.84-1l.37-.37a5,5,0,0,1,1.28,1.68,5.25,5.25,0,0,1,0,4.16A5,5,0,0,1,183.17,77.55Z"/><rect class="cls-2" x="136" y="44" width="54" height="16"/><path d="M142.79,48l.37.37a4.34,4.34,0,0,0-.84,1,3.87,3.87,0,0,0-.45,1.12,6.12,6.12,0,0,0,0,2.51,3.76,3.76,0,0,0,.45,1.12,4.6,4.6,0,0,0,.84,1l-.37.37a5,5,0,0,1-1.28-1.69,5.22,5.22,0,0,1,0-4.15A4.83,4.83,0,0,1,142.79,48Z"/><path d="M146.22,50v.55h-2.77V50Zm-.66-1.88a1.61,1.61,0,0,1,.39,0,.78.78,0,0,1,.29.14l-.17.52a.67.67,0,0,0-.21-.09.88.88,0,0,0-.24,0,.81.81,0,0,0-.54.16.66.66,0,0,0-.19.53V54h-.64V49.36a1.46,1.46,0,0,1,.08-.48,1,1,0,0,1,.24-.39,1.29,1.29,0,0,1,.41-.25A2,2,0,0,1,145.56,48.16Z"/><path d="M149.18,51.45a.84.84,0,0,0-.92-.93,1.31,1.31,0,0,0-.71.18,1,1,0,0,0-.42.58l-.52-.32a1.39,1.39,0,0,1,.59-.73,2.27,2.27,0,0,1,1.86-.13,1.22,1.22,0,0,1,.55.45,1.32,1.32,0,0,1,.21.77v1.94a.26.26,0,0,0,.3.29,1.54,1.54,0,0,0,.3,0l0,.5a1.06,1.06,0,0,1-.83,0,.66.66,0,0,1-.29-.26,1,1,0,0,1-.1-.46V53.2l.16,0a1,1,0,0,1-.33.51,1.46,1.46,0,0,1-.52.28,1.9,1.9,0,0,1-.57.1,1.75,1.75,0,0,1-.65-.12,1.09,1.09,0,0,1-.49-.37,1.07,1.07,0,0,1,.12-1.34,1.58,1.58,0,0,1,.84-.4l1.58-.31v.53l-1.28.26a1.37,1.37,0,0,0-.59.23.46.46,0,0,0-.19.4.49.49,0,0,0,.2.4.88.88,0,0,0,.55.16,1.68,1.68,0,0,0,.45-.06,1.35,1.35,0,0,0,.38-.19.86.86,0,0,0,.26-.31,1,1,0,0,0,.1-.44Z"/><path d="M153,50a2.13,2.13,0,0,1,.74.12,1.58,1.58,0,0,1,.54.37,1.9,1.9,0,0,1,.38.57l-.61.29a1.14,1.14,0,0,0-.39-.59,1,1,0,0,0-.67-.2,1.27,1.27,0,0,0-.69.18,1.13,1.13,0,0,0-.44.52,2.29,2.29,0,0,0,0,1.63,1.16,1.16,0,0,0,.44.53,1.27,1.27,0,0,0,.69.18,1.44,1.44,0,0,0,.54-.1.87.87,0,0,0,.37-.28,1,1,0,0,0,.21-.45l.59.21a1.78,1.78,0,0,1-.37.63,1.66,1.66,0,0,1-.57.41,2,2,0,0,1-.76.14,2.09,2.09,0,0,1-1-.25,1.75,1.75,0,0,1-.68-.72,2.61,2.61,0,0,1,0-2.23,1.75,1.75,0,0,1,.68-.72A2.08,2.08,0,0,1,153,50Z"/><path d="M158.25,50v.55h-2.9V50Zm-1.46-1.14v4a.54.54,0,0,0,.17.44.63.63,0,0,0,.43.15,1,1,0,0,0,.4-.08,1.34,1.34,0,0,0,.31-.22l.22.54a1.28,1.28,0,0,1-.44.26,1.67,1.67,0,0,1-.58.1,1.47,1.47,0,0,1-.56-.11.85.85,0,0,1-.42-.35,1.11,1.11,0,0,1-.17-.62v-4Z"/><path d="M160.86,50a2.05,2.05,0,0,1,1,.24,1.75,1.75,0,0,1,.68.72,2.61,2.61,0,0,1,0,2.23,1.75,1.75,0,0,1-.68.72,2.06,2.06,0,0,1-1,.25,2,2,0,0,1-1-.25,1.71,1.71,0,0,1-.69-.72,2.61,2.61,0,0,1,0-2.23,1.71,1.71,0,0,1,.69-.72A2,2,0,0,1,160.86,50Zm0,.55a1.28,1.28,0,0,0-.7.18,1.16,1.16,0,0,0-.44.53,2.16,2.16,0,0,0,0,1.63,1.16,1.16,0,0,0,.44.53,1.43,1.43,0,0,0,1.39,0,1.24,1.24,0,0,0,.45-.53,2.29,2.29,0,0,0,0-1.63,1.24,1.24,0,0,0-.45-.53A1.27,1.27,0,0,0,160.86,50.51Z"/><path d="M164,54V50h.52l.09.65a1.15,1.15,0,0,1,.49-.55,1.62,1.62,0,0,1,.79-.18h.23a.48.48,0,0,1,.21.07l-.11.58-.2,0h-.29a1,1,0,0,0-.5.14,1.12,1.12,0,0,0-.42.44,1.47,1.47,0,0,0-.17.74V54Z"/><path d="M167.58,49.27a.48.48,0,0,1-.34-.13.48.48,0,0,1-.14-.35.47.47,0,0,1,.14-.35.44.44,0,0,1,.34-.13.45.45,0,0,1,.48.48.48.48,0,0,1-.13.35A.5.5,0,0,1,167.58,49.27Zm.32.77v4h-.64V50Z"/><path d="M171.73,51.45a.84.84,0,0,0-.92-.93,1.34,1.34,0,0,0-.71.18,1,1,0,0,0-.42.58l-.52-.32a1.44,1.44,0,0,1,.59-.73,2.27,2.27,0,0,1,1.86-.13,1.22,1.22,0,0,1,.55.45,1.32,1.32,0,0,1,.21.77v1.94a.26.26,0,0,0,.3.29,1.54,1.54,0,0,0,.3,0l0,.5a1,1,0,0,1-.42.08,1,1,0,0,1-.42-.09.59.59,0,0,1-.28-.26.92.92,0,0,1-.11-.46V53.2l.16,0a1,1,0,0,1-.33.51A1.38,1.38,0,0,1,171,54a1.89,1.89,0,0,1-.56.1,1.76,1.76,0,0,1-.66-.12,1.11,1.11,0,0,1-.48-.37,1.07,1.07,0,0,1,.12-1.34,1.54,1.54,0,0,1,.83-.4l1.59-.31v.53l-1.29.26a1.42,1.42,0,0,0-.59.23.48.48,0,0,0-.19.4.49.49,0,0,0,.2.4.88.88,0,0,0,.55.16,1.63,1.63,0,0,0,.45-.06,1.23,1.23,0,0,0,.38-.19.86.86,0,0,0,.26-.31.89.89,0,0,0,.1-.44Z"/><path d="M174.53,48.2V53a.59.59,0,0,0,.11.42.46.46,0,0,0,.36.12.93.93,0,0,0,.26,0,1.1,1.1,0,0,0,.28-.09l-.1.56a1.31,1.31,0,0,1-.28.09,1.55,1.55,0,0,1-.31,0,.92.92,0,0,1-.73-.27,1.21,1.21,0,0,1-.23-.81V48.2Z"/><path d="M178.66,54v-.52c.53-.39,1-.73,1.33-1a7.58,7.58,0,0,0,.85-.8,2.72,2.72,0,0,0,.46-.68,1.75,1.75,0,0,0,.13-.68,1,1,0,0,0-.3-.76,1.1,1.1,0,0,0-.82-.29,1.12,1.12,0,0,0-.87.35,1.54,1.54,0,0,0-.38.95l-.56-.34a1.8,1.8,0,0,1,.3-.81,1.48,1.48,0,0,1,.61-.55,1.93,1.93,0,0,1,.93-.2,2.11,2.11,0,0,1,.73.12,1.55,1.55,0,0,1,.55.34,1.35,1.35,0,0,1,.36.52,1.81,1.81,0,0,1,.12.67,2.11,2.11,0,0,1-.24,1,3.7,3.7,0,0,1-.79,1,11.32,11.32,0,0,1-1.49,1.15h2.64V54Z"/><path d="M183.21,55.55l-.37-.37a4.55,4.55,0,0,0,.84-1,4,4,0,0,0,.45-1.12,5.6,5.6,0,0,0,.13-1.26,5.73,5.73,0,0,0-.13-1.26,3.87,3.87,0,0,0-.45-1.12,4.55,4.55,0,0,0-.84-1l.37-.37a5,5,0,0,1,1.28,1.68,5.25,5.25,0,0,1,0,4.16A5,5,0,0,1,183.21,55.55Z"/><rect class="cls-2" x="203" y="66" width="54" height="16"/><path d="M209.83,70l.37.37a4.34,4.34,0,0,0-.84,1,3.87,3.87,0,0,0-.45,1.12,6.12,6.12,0,0,0,0,2.51,3.76,3.76,0,0,0,.45,1.12,4.6,4.6,0,0,0,.84,1l-.37.37a5,5,0,0,1-1.28-1.69,5.22,5.22,0,0,1,0-4.15A4.83,4.83,0,0,1,209.83,70Z"/><path d="M213.26,72v.55h-2.77V72Zm-.66-1.88a1.61,1.61,0,0,1,.39,0,.78.78,0,0,1,.29.14l-.17.52a.67.67,0,0,0-.21-.09.88.88,0,0,0-.24,0,.81.81,0,0,0-.54.16.66.66,0,0,0-.19.53V76h-.64V71.36a1.24,1.24,0,0,1,.08-.48,1,1,0,0,1,.24-.39,1.29,1.29,0,0,1,.41-.25A2,2,0,0,1,212.6,70.16Z"/><path d="M216.22,73.45a.84.84,0,0,0-.92-.93,1.31,1.31,0,0,0-.71.18,1,1,0,0,0-.42.58l-.52-.32a1.39,1.39,0,0,1,.59-.73,2,2,0,0,1,1.07-.27,2,2,0,0,1,.79.14,1.22,1.22,0,0,1,.55.45,1.32,1.32,0,0,1,.21.77v1.94a.26.26,0,0,0,.3.29,1.54,1.54,0,0,0,.3,0l0,.5a1.06,1.06,0,0,1-.83,0,.66.66,0,0,1-.29-.26.92.92,0,0,1-.1-.46V75.2l.16,0a1,1,0,0,1-.33.51,1.46,1.46,0,0,1-.52.28,1.9,1.9,0,0,1-.57.1,1.75,1.75,0,0,1-.65-.12,1.14,1.14,0,0,1-.49-.37,1.07,1.07,0,0,1,.12-1.34,1.58,1.58,0,0,1,.84-.4l1.58-.31v.53l-1.28.26a1.37,1.37,0,0,0-.59.23.46.46,0,0,0-.19.4.49.49,0,0,0,.2.4.88.88,0,0,0,.55.16,1.68,1.68,0,0,0,.45-.06,1.35,1.35,0,0,0,.38-.19.86.86,0,0,0,.26-.31,1,1,0,0,0,.1-.44Z"/><path d="M220.06,72a2.09,2.09,0,0,1,.74.12,1.58,1.58,0,0,1,.54.37,1.9,1.9,0,0,1,.38.57l-.61.29a1.14,1.14,0,0,0-.39-.59,1,1,0,0,0-.67-.2,1.27,1.27,0,0,0-.69.18,1.13,1.13,0,0,0-.44.52,2.29,2.29,0,0,0,0,1.63,1.16,1.16,0,0,0,.44.53,1.27,1.27,0,0,0,.69.18,1.44,1.44,0,0,0,.54-.1.87.87,0,0,0,.37-.28,1,1,0,0,0,.21-.45l.59.21a1.94,1.94,0,0,1-.37.63,1.66,1.66,0,0,1-.57.41,2,2,0,0,1-.76.14,2.09,2.09,0,0,1-1-.25,1.75,1.75,0,0,1-.68-.72,2.61,2.61,0,0,1,0-2.23,1.75,1.75,0,0,1,.68-.72A2.08,2.08,0,0,1,220.06,72Z"/><path d="M225.29,72v.55h-2.9V72Zm-1.46-1.14v4a.54.54,0,0,0,.17.44.63.63,0,0,0,.43.15,1,1,0,0,0,.4-.08,1.6,1.6,0,0,0,.31-.22l.22.54a1.28,1.28,0,0,1-.44.26,1.67,1.67,0,0,1-.58.1,1.47,1.47,0,0,1-.56-.11.85.85,0,0,1-.42-.35,1.11,1.11,0,0,1-.17-.62v-4Z"/><path d="M227.9,72a2,2,0,0,1,1,.24,1.75,1.75,0,0,1,.68.72,2.61,2.61,0,0,1,0,2.23,1.75,1.75,0,0,1-.68.72,2.13,2.13,0,0,1-2,0,1.71,1.71,0,0,1-.69-.72,2.61,2.61,0,0,1,0-2.23,1.71,1.71,0,0,1,.69-.72A2,2,0,0,1,227.9,72Zm0,.55a1.28,1.28,0,0,0-.7.18,1.16,1.16,0,0,0-.44.53,2.16,2.16,0,0,0,0,1.63,1.16,1.16,0,0,0,.44.53,1.43,1.43,0,0,0,1.39,0,1.24,1.24,0,0,0,.45-.53,2.29,2.29,0,0,0,0-1.63,1.24,1.24,0,0,0-.45-.53A1.27,1.27,0,0,0,227.9,72.51Z"/><path d="M231,76V72h.52l.09.65a1.15,1.15,0,0,1,.49-.55,1.62,1.62,0,0,1,.79-.18h.23a.48.48,0,0,1,.21.07l-.11.58-.2-.05h-.29a1,1,0,0,0-.5.14,1.12,1.12,0,0,0-.42.44,1.47,1.47,0,0,0-.17.74V76Z"/><path d="M234.62,71.27a.48.48,0,0,1-.34-.13.48.48,0,0,1-.14-.35.47.47,0,0,1,.14-.35.44.44,0,0,1,.34-.13.45.45,0,0,1,.48.48.48.48,0,0,1-.13.35A.5.5,0,0,1,234.62,71.27Zm.32.77v4h-.64V72Z"/><path d="M238.77,73.45a.84.84,0,0,0-.92-.93,1.34,1.34,0,0,0-.71.18,1,1,0,0,0-.42.58L236.2,73a1.44,1.44,0,0,1,.59-.73,2.27,2.27,0,0,1,1.86-.13,1.22,1.22,0,0,1,.55.45,1.32,1.32,0,0,1,.21.77v1.94a.26.26,0,0,0,.3.29,1.54,1.54,0,0,0,.3,0l0,.5a1,1,0,0,1-.42.08,1,1,0,0,1-.42-.09.64.64,0,0,1-.28-.26.92.92,0,0,1-.11-.46V75.2l.16,0a1,1,0,0,1-.33.51,1.38,1.38,0,0,1-.52.28,1.89,1.89,0,0,1-.56.1,1.76,1.76,0,0,1-.66-.12,1.11,1.11,0,0,1-.48-.37,1.07,1.07,0,0,1,.12-1.34,1.58,1.58,0,0,1,.83-.4l1.59-.31v.53l-1.29.26a1.42,1.42,0,0,0-.59.23.48.48,0,0,0-.19.4.49.49,0,0,0,.2.4.88.88,0,0,0,.55.16,1.63,1.63,0,0,0,.45-.06,1.23,1.23,0,0,0,.38-.19.86.86,0,0,0,.26-.31.89.89,0,0,0,.1-.44Z"/><path d="M241.57,70.2V75a.64.64,0,0,0,.11.42.47.47,0,0,0,.36.12.93.93,0,0,0,.26,0,1.1,1.1,0,0,0,.28-.09l-.1.56a1.31,1.31,0,0,1-.28.09,1.63,1.63,0,0,1-.31,0,.92.92,0,0,1-.73-.27,1.21,1.21,0,0,1-.23-.81V70.2Z"/><path d="M247.43,76.12a2.33,2.33,0,0,1-1.24-.34,1.6,1.6,0,0,1-.73-.91l.64-.33a1.69,1.69,0,0,0,.26.52,1.16,1.16,0,0,0,.44.34,1.79,1.79,0,0,0,.7.12,1.32,1.32,0,0,0,.59-.13,1,1,0,0,0,.37-.35,1.07,1.07,0,0,0,.12-.51,1,1,0,0,0-.1-.48.67.67,0,0,0-.34-.28,1.75,1.75,0,0,0-.61-.09h-.19l-.22,0v-.64h.26a1.26,1.26,0,0,0,.84-.23,1,1,0,0,0,.24-.72.79.79,0,0,0-.25-.63,1.13,1.13,0,0,0-.73-.21,1.16,1.16,0,0,0-.77.22,1.45,1.45,0,0,0-.41.59l-.61-.29a1.62,1.62,0,0,1,.38-.59,1.89,1.89,0,0,1,.62-.4,2.29,2.29,0,0,1,.81-.14,1.92,1.92,0,0,1,.91.19,1.25,1.25,0,0,1,.54.5,1.3,1.3,0,0,1,.18.68,1.62,1.62,0,0,1-.08.52,1.71,1.71,0,0,1-.22.4,1.11,1.11,0,0,1-.32.26,1.28,1.28,0,0,1-.37.14h0a1.11,1.11,0,0,1,.46.11.9.9,0,0,1,.35.25,1.07,1.07,0,0,1,.22.37,1.16,1.16,0,0,1,.08.42,1.54,1.54,0,0,1-.23.83,1.46,1.46,0,0,1-.64.56A2,2,0,0,1,247.43,76.12Z"/><path d="M250.17,77.55l-.37-.37a4.55,4.55,0,0,0,.84-1,4,4,0,0,0,.45-1.12,5.6,5.6,0,0,0,.13-1.26,5.73,5.73,0,0,0-.13-1.26,3.87,3.87,0,0,0-.45-1.12,4.55,4.55,0,0,0-.84-1l.37-.37a5,5,0,0,1,1.28,1.68,5.25,5.25,0,0,1,0,4.16A5,5,0,0,1,250.17,77.55Z"/><rect class="cls-2" x="203" y="44" width="54" height="16"/><path d="M209.79,48l.37.37a4.34,4.34,0,0,0-.84,1,3.87,3.87,0,0,0-.45,1.12,6.12,6.12,0,0,0,0,2.51,3.76,3.76,0,0,0,.45,1.12,4.6,4.6,0,0,0,.84,1l-.37.37a5,5,0,0,1-1.28-1.69,5.22,5.22,0,0,1,0-4.15A4.83,4.83,0,0,1,209.79,48Z"/><path d="M213.22,50v.55h-2.77V50Zm-.66-1.88a1.61,1.61,0,0,1,.39,0,.78.78,0,0,1,.29.14l-.17.52a.67.67,0,0,0-.21-.09.88.88,0,0,0-.24,0,.81.81,0,0,0-.54.16.66.66,0,0,0-.19.53V54h-.64V49.36a1.46,1.46,0,0,1,.08-.48,1,1,0,0,1,.24-.39,1.29,1.29,0,0,1,.41-.25A2,2,0,0,1,212.56,48.16Z"/><path d="M216.18,51.45a.84.84,0,0,0-.92-.93,1.31,1.31,0,0,0-.71.18,1,1,0,0,0-.42.58l-.52-.32a1.39,1.39,0,0,1,.59-.73,2.27,2.27,0,0,1,1.86-.13,1.22,1.22,0,0,1,.55.45,1.32,1.32,0,0,1,.21.77v1.94a.26.26,0,0,0,.3.29,1.54,1.54,0,0,0,.3,0l0,.5a1.06,1.06,0,0,1-.83,0,.66.66,0,0,1-.29-.26,1,1,0,0,1-.1-.46V53.2l.16,0a1,1,0,0,1-.33.51,1.46,1.46,0,0,1-.52.28,1.9,1.9,0,0,1-.57.1,1.75,1.75,0,0,1-.65-.12,1.09,1.09,0,0,1-.49-.37,1.07,1.07,0,0,1,.12-1.34,1.58,1.58,0,0,1,.84-.4l1.58-.31v.53l-1.28.26a1.37,1.37,0,0,0-.59.23.46.46,0,0,0-.19.4.49.49,0,0,0,.2.4.88.88,0,0,0,.55.16,1.68,1.68,0,0,0,.45-.06,1.35,1.35,0,0,0,.38-.19.86.86,0,0,0,.26-.31,1,1,0,0,0,.1-.44Z"/><path d="M220,50a2.13,2.13,0,0,1,.74.12,1.58,1.58,0,0,1,.54.37,1.9,1.9,0,0,1,.38.57l-.61.29a1.14,1.14,0,0,0-.39-.59,1,1,0,0,0-.67-.2,1.27,1.27,0,0,0-.69.18,1.13,1.13,0,0,0-.44.52,2.29,2.29,0,0,0,0,1.63,1.16,1.16,0,0,0,.44.53,1.27,1.27,0,0,0,.69.18,1.44,1.44,0,0,0,.54-.1.87.87,0,0,0,.37-.28,1,1,0,0,0,.21-.45l.59.21a1.78,1.78,0,0,1-.37.63,1.66,1.66,0,0,1-.57.41,2,2,0,0,1-.76.14,2.09,2.09,0,0,1-1-.25,1.75,1.75,0,0,1-.68-.72,2.61,2.61,0,0,1,0-2.23,1.75,1.75,0,0,1,.68-.72A2.08,2.08,0,0,1,220,50Z"/><path d="M225.25,50v.55h-2.9V50Zm-1.46-1.14v4a.54.54,0,0,0,.17.44.63.63,0,0,0,.43.15,1,1,0,0,0,.4-.08,1.34,1.34,0,0,0,.31-.22l.22.54a1.28,1.28,0,0,1-.44.26,1.67,1.67,0,0,1-.58.1,1.47,1.47,0,0,1-.56-.11.85.85,0,0,1-.42-.35,1.11,1.11,0,0,1-.17-.62v-4Z"/><path d="M227.86,50a2.05,2.05,0,0,1,1,.24,1.75,1.75,0,0,1,.68.72,2.61,2.61,0,0,1,0,2.23,1.75,1.75,0,0,1-.68.72,2.06,2.06,0,0,1-1,.25,2,2,0,0,1-1-.25,1.71,1.71,0,0,1-.69-.72,2.61,2.61,0,0,1,0-2.23,1.71,1.71,0,0,1,.69-.72A2,2,0,0,1,227.86,50Zm0,.55a1.28,1.28,0,0,0-.7.18,1.16,1.16,0,0,0-.44.53,2.16,2.16,0,0,0,0,1.63,1.16,1.16,0,0,0,.44.53,1.43,1.43,0,0,0,1.39,0,1.24,1.24,0,0,0,.45-.53,2.29,2.29,0,0,0,0-1.63,1.24,1.24,0,0,0-.45-.53A1.27,1.27,0,0,0,227.86,50.51Z"/><path d="M231,54V50h.52l.09.65a1.15,1.15,0,0,1,.49-.55,1.62,1.62,0,0,1,.79-.18h.23a.48.48,0,0,1,.21.07l-.11.58-.2,0h-.29a1,1,0,0,0-.5.14,1.12,1.12,0,0,0-.42.44,1.47,1.47,0,0,0-.17.74V54Z"/><path d="M234.58,49.27a.48.48,0,0,1-.34-.13.48.48,0,0,1-.14-.35.47.47,0,0,1,.14-.35.44.44,0,0,1,.34-.13.45.45,0,0,1,.48.48.48.48,0,0,1-.13.35A.5.5,0,0,1,234.58,49.27Zm.32.77v4h-.64V50Z"/><path d="M238.73,51.45a.84.84,0,0,0-.92-.93,1.34,1.34,0,0,0-.71.18,1,1,0,0,0-.42.58l-.52-.32a1.44,1.44,0,0,1,.59-.73,2.27,2.27,0,0,1,1.86-.13,1.22,1.22,0,0,1,.55.45,1.32,1.32,0,0,1,.21.77v1.94a.26.26,0,0,0,.3.29,1.54,1.54,0,0,0,.3,0l0,.5a1,1,0,0,1-.42.08,1,1,0,0,1-.42-.09.59.59,0,0,1-.28-.26.92.92,0,0,1-.11-.46V53.2l.16,0a1,1,0,0,1-.33.51A1.38,1.38,0,0,1,238,54a1.89,1.89,0,0,1-.56.1,1.76,1.76,0,0,1-.66-.12,1.11,1.11,0,0,1-.48-.37,1.07,1.07,0,0,1,.12-1.34,1.54,1.54,0,0,1,.83-.4l1.59-.31v.53l-1.29.26a1.42,1.42,0,0,0-.59.23.48.48,0,0,0-.19.4.49.49,0,0,0,.2.4.88.88,0,0,0,.55.16,1.63,1.63,0,0,0,.45-.06,1.23,1.23,0,0,0,.38-.19.86.86,0,0,0,.26-.31.89.89,0,0,0,.1-.44Z"/><path d="M241.53,48.2V53a.59.59,0,0,0,.11.42.46.46,0,0,0,.36.12.93.93,0,0,0,.26,0,1.1,1.1,0,0,0,.28-.09l-.1.56a1.31,1.31,0,0,1-.28.09,1.55,1.55,0,0,1-.31,0,.92.92,0,0,1-.73-.27,1.21,1.21,0,0,1-.23-.81V48.2Z"/><path d="M245.66,54v-.52c.53-.39,1-.73,1.33-1a7.58,7.58,0,0,0,.85-.8,2.72,2.72,0,0,0,.46-.68,1.75,1.75,0,0,0,.13-.68,1,1,0,0,0-.3-.76,1.1,1.1,0,0,0-.82-.29,1.12,1.12,0,0,0-.87.35,1.54,1.54,0,0,0-.38.95l-.56-.34a1.8,1.8,0,0,1,.3-.81,1.48,1.48,0,0,1,.61-.55,1.93,1.93,0,0,1,.93-.2,2.11,2.11,0,0,1,.73.12,1.55,1.55,0,0,1,.55.34,1.35,1.35,0,0,1,.36.52,1.81,1.81,0,0,1,.12.67,2.11,2.11,0,0,1-.24,1,3.7,3.7,0,0,1-.79,1,11.32,11.32,0,0,1-1.49,1.15h2.64V54Z"/><path d="M250.21,55.55l-.37-.37a4.55,4.55,0,0,0,.84-1,4,4,0,0,0,.45-1.12,5.6,5.6,0,0,0,.13-1.26,5.73,5.73,0,0,0-.13-1.26,3.87,3.87,0,0,0-.45-1.12,4.55,4.55,0,0,0-.84-1l.37-.37a5,5,0,0,1,1.28,1.68,5.25,5.25,0,0,1,0,4.16A5,5,0,0,1,250.21,55.55Z"/><rect class="cls-2" x="203" y="22" width="54" height="16"/><path d="M210.58,26l.37.37a4.34,4.34,0,0,0-.84,1,3.87,3.87,0,0,0-.45,1.12,5.7,5.7,0,0,0,0,2.51,3.76,3.76,0,0,0,.45,1.12,4.6,4.6,0,0,0,.84,1l-.37.37a5,5,0,0,1-1.28-1.69,5.22,5.22,0,0,1,0-4.15A4.83,4.83,0,0,1,210.58,26Z"/><path d="M214,28v.55h-2.77V28Zm-.66-1.88a1.61,1.61,0,0,1,.39,0,.87.87,0,0,1,.29.14l-.17.52a.67.67,0,0,0-.21-.09.9.9,0,0,0-.25,0,.8.8,0,0,0-.53.16.66.66,0,0,0-.19.53V32H212V27.36a1.24,1.24,0,0,1,.08-.48,1,1,0,0,1,.24-.39,1.29,1.29,0,0,1,.41-.25A2,2,0,0,1,213.35,26.16Z"/><path d="M217,29.45a.93.93,0,0,0-.24-.69.91.91,0,0,0-.68-.24,1.3,1.3,0,0,0-.7.18,1,1,0,0,0-.42.58L214.4,29a1.39,1.39,0,0,1,.59-.73,2,2,0,0,1,1.07-.27,1.94,1.94,0,0,1,.78.14,1.25,1.25,0,0,1,.56.45,1.32,1.32,0,0,1,.2.77v1.94c0,.19.11.29.31.29a1.35,1.35,0,0,0,.29,0l0,.5a1.06,1.06,0,0,1-.83,0,.66.66,0,0,1-.29-.26.92.92,0,0,1-.1-.46V31.2l.16,0a1.1,1.1,0,0,1-.33.51,1.55,1.55,0,0,1-.52.28,1.9,1.9,0,0,1-.57.1A1.75,1.75,0,0,1,215,32a1.09,1.09,0,0,1-.49-.37,1.07,1.07,0,0,1,.12-1.34,1.58,1.58,0,0,1,.84-.4l1.58-.31v.53l-1.29.26a1.37,1.37,0,0,0-.58.23.46.46,0,0,0-.19.4.48.48,0,0,0,.19.4.93.93,0,0,0,.56.16,1.56,1.56,0,0,0,.44-.06,1.13,1.13,0,0,0,.38-.19.89.89,0,0,0,.27-.31,1,1,0,0,0,.09-.44Z"/><path d="M220.81,28a2,2,0,0,1,.73.12,1.62,1.62,0,0,1,.55.37,1.9,1.9,0,0,1,.38.57l-.61.29a1.14,1.14,0,0,0-.39-.59,1,1,0,0,0-.67-.2,1.27,1.27,0,0,0-.69.18,1.13,1.13,0,0,0-.44.52,2.29,2.29,0,0,0,0,1.63,1.16,1.16,0,0,0,.44.53,1.27,1.27,0,0,0,.69.18,1.53,1.53,0,0,0,.54-.1.93.93,0,0,0,.37-.28,1,1,0,0,0,.21-.45l.59.21a1.94,1.94,0,0,1-.37.63,1.66,1.66,0,0,1-.57.41,2,2,0,0,1-.76.14,2.09,2.09,0,0,1-1-.25,1.84,1.84,0,0,1-.69-.72,2.71,2.71,0,0,1,0-2.23,1.84,1.84,0,0,1,.69-.72A2.08,2.08,0,0,1,220.81,28Z"/><path d="M226,28v.55h-2.9V28Zm-1.46-1.14v4a.54.54,0,0,0,.17.44.61.61,0,0,0,.43.15,1,1,0,0,0,.4-.08,1.29,1.29,0,0,0,.3-.22l.23.54a1.28,1.28,0,0,1-.44.26,1.72,1.72,0,0,1-.58.1,1.56,1.56,0,0,1-.57-.11,1,1,0,0,1-.42-.35,1.2,1.2,0,0,1-.16-.62v-4Z"/><path d="M228.64,28a2.07,2.07,0,0,1,1,.24,1.75,1.75,0,0,1,.68.72,2.61,2.61,0,0,1,0,2.23,1.75,1.75,0,0,1-.68.72,2.15,2.15,0,0,1-2,0,1.75,1.75,0,0,1-.68-.72,2.61,2.61,0,0,1,0-2.23,1.75,1.75,0,0,1,.68-.72A2.08,2.08,0,0,1,228.64,28Zm0,.55a1.27,1.27,0,0,0-.69.18,1.24,1.24,0,0,0-.45.53,2.29,2.29,0,0,0,0,1.63,1.24,1.24,0,0,0,.45.53,1.43,1.43,0,0,0,1.39,0,1.16,1.16,0,0,0,.44-.53,2.16,2.16,0,0,0,0-1.63,1.16,1.16,0,0,0-.44-.53A1.28,1.28,0,0,0,228.64,28.51Z"/><path d="M231.79,32V28h.52l.09.65a1.15,1.15,0,0,1,.49-.55,1.59,1.59,0,0,1,.79-.18h.22a.48.48,0,0,1,.22.07l-.12.58-.19-.05h-.29a.93.93,0,0,0-.5.14,1.12,1.12,0,0,0-.42.44,1.38,1.38,0,0,0-.17.74V32Z"/><path d="M235.37,27.27a.45.45,0,0,1-.48-.48.5.5,0,0,1,.13-.35.48.48,0,0,1,.35-.13.45.45,0,0,1,.48.48.48.48,0,0,1-.13.35A.5.5,0,0,1,235.37,27.27Zm.32.77v4h-.64V28Z"/><path d="M239.52,29.45a.84.84,0,0,0-.92-.93,1.31,1.31,0,0,0-.71.18,1,1,0,0,0-.42.58L237,29a1.39,1.39,0,0,1,.59-.73,2.27,2.27,0,0,1,1.86-.13,1.22,1.22,0,0,1,.55.45,1.32,1.32,0,0,1,.21.77v1.94a.26.26,0,0,0,.3.29,1.54,1.54,0,0,0,.3,0l0,.5a1.06,1.06,0,0,1-.83,0,.66.66,0,0,1-.29-.26,1,1,0,0,1-.1-.46V31.2l.16,0a1,1,0,0,1-.33.51,1.46,1.46,0,0,1-.52.28,1.9,1.9,0,0,1-.57.1,1.75,1.75,0,0,1-.65-.12,1.09,1.09,0,0,1-.49-.37,1.07,1.07,0,0,1,.12-1.34,1.58,1.58,0,0,1,.84-.4l1.58-.31v.53l-1.28.26a1.37,1.37,0,0,0-.59.23.46.46,0,0,0-.19.4.49.49,0,0,0,.2.4.88.88,0,0,0,.55.16,1.68,1.68,0,0,0,.45-.06,1.35,1.35,0,0,0,.38-.19.86.86,0,0,0,.26-.31,1,1,0,0,0,.1-.44Z"/><path d="M242.32,26.2V31a.59.59,0,0,0,.11.42.46.46,0,0,0,.36.12,1,1,0,0,0,.26,0,1.24,1.24,0,0,0,.28-.09l-.1.56a1.31,1.31,0,0,1-.28.09,1.63,1.63,0,0,1-.31,0,.92.92,0,0,1-.73-.27,1.15,1.15,0,0,1-.23-.81V26.2Z"/><path d="M247.36,32V28.16c0-.09,0-.18,0-.29s0-.21,0-.32a2.93,2.93,0,0,1-1.37.74l-.17-.58a1.46,1.46,0,0,0,.37-.11l.46-.23.45-.3a1.59,1.59,0,0,0,.32-.31H248V32Z"/><path d="M249.42,33.55l-.37-.37a4.55,4.55,0,0,0,.84-1,4,4,0,0,0,.45-1.12,5.59,5.59,0,0,0,.14-1.26,5.72,5.72,0,0,0-.14-1.26,3.87,3.87,0,0,0-.45-1.12,4.55,4.55,0,0,0-.84-1l.37-.37a5,5,0,0,1,1.28,1.68,5.25,5.25,0,0,1,0,4.16A5,5,0,0,1,249.42,33.55Z"/><rect class="cls-2" x="203" width="54" height="16"/><path d="M209.7,4l.37.37a4.34,4.34,0,0,0-.84,1,3.87,3.87,0,0,0-.45,1.12,5.7,5.7,0,0,0,0,2.51,3.76,3.76,0,0,0,.45,1.12,4.6,4.6,0,0,0,.84,1l-.37.37a4.83,4.83,0,0,1-1.28-1.69A4.89,4.89,0,0,1,208,7.79a4.93,4.93,0,0,1,.43-2.08A4.71,4.71,0,0,1,209.7,4Z"/><path d="M213.13,6v.55h-2.77V6Zm-.66-1.88a1.61,1.61,0,0,1,.39,0,.87.87,0,0,1,.29.14l-.17.52a.67.67,0,0,0-.21-.09.9.9,0,0,0-.25,0,.78.78,0,0,0-.53.16.66.66,0,0,0-.19.53V10h-.64V5.36a1.24,1.24,0,0,1,.08-.48,1,1,0,0,1,.24-.39,1.29,1.29,0,0,1,.41-.25A2,2,0,0,1,212.47,4.16Z"/><path d="M216.08,7.45a.93.93,0,0,0-.24-.69.91.91,0,0,0-.68-.24,1.3,1.3,0,0,0-.7.18,1,1,0,0,0-.42.58L213.52,7a1.39,1.39,0,0,1,.59-.73A2,2,0,0,1,215.18,6a1.94,1.94,0,0,1,.78.14,1.25,1.25,0,0,1,.56.45,1.32,1.32,0,0,1,.2.77V9.26c0,.19.11.29.31.29a1.35,1.35,0,0,0,.29,0l0,.5a1.06,1.06,0,0,1-.83,0,.66.66,0,0,1-.29-.26.92.92,0,0,1-.1-.46V9.2l.16,0a1.19,1.19,0,0,1-.33.51,1.46,1.46,0,0,1-.52.28,1.9,1.9,0,0,1-.57.1,1.75,1.75,0,0,1-.65-.12,1.09,1.09,0,0,1-.49-.37,1.07,1.07,0,0,1,.12-1.34,1.58,1.58,0,0,1,.84-.4l1.58-.31v.53l-1.29.26a1.37,1.37,0,0,0-.58.23.46.46,0,0,0-.19.4.48.48,0,0,0,.19.4.91.91,0,0,0,.56.16,1.61,1.61,0,0,0,.44-.06,1.13,1.13,0,0,0,.38-.19A.89.89,0,0,0,216,9a1,1,0,0,0,.09-.44Z"/><path d="M219.93,6a2,2,0,0,1,.73.12,1.53,1.53,0,0,1,.55.37,1.9,1.9,0,0,1,.38.57l-.61.29a1.2,1.2,0,0,0-.39-.59,1,1,0,0,0-.67-.2,1.27,1.27,0,0,0-.69.18,1.13,1.13,0,0,0-.44.52,2,2,0,0,0-.15.82,2,2,0,0,0,.15.81,1.16,1.16,0,0,0,.44.53,1.27,1.27,0,0,0,.69.18,1.53,1.53,0,0,0,.54-.1.93.93,0,0,0,.37-.28,1,1,0,0,0,.21-.45l.59.21a1.94,1.94,0,0,1-.37.63,1.66,1.66,0,0,1-.57.41,2,2,0,0,1-.76.14,2.09,2.09,0,0,1-1-.25,1.84,1.84,0,0,1-.69-.72A2.39,2.39,0,0,1,218,8a2.41,2.41,0,0,1,.24-1.12,1.84,1.84,0,0,1,.69-.72A2.08,2.08,0,0,1,219.93,6Z"/><path d="M225.16,6v.55h-2.9V6ZM223.7,4.9v4a.54.54,0,0,0,.17.44.61.61,0,0,0,.43.15,1,1,0,0,0,.4-.08,1.29,1.29,0,0,0,.3-.22l.23.54a1.28,1.28,0,0,1-.44.26,1.72,1.72,0,0,1-.58.1,1.56,1.56,0,0,1-.57-.11,1,1,0,0,1-.42-.35,1.2,1.2,0,0,1-.16-.62v-4Z"/><path d="M227.76,6a2.07,2.07,0,0,1,1,.24,1.75,1.75,0,0,1,.68.72A2.29,2.29,0,0,1,229.7,8a2.28,2.28,0,0,1-.25,1.11,1.75,1.75,0,0,1-.68.72,2.15,2.15,0,0,1-2,0,1.75,1.75,0,0,1-.68-.72A2.28,2.28,0,0,1,225.83,8a2.29,2.29,0,0,1,.25-1.12,1.75,1.75,0,0,1,.68-.72A2.08,2.08,0,0,1,227.76,6Zm0,.55a1.27,1.27,0,0,0-.69.18,1.24,1.24,0,0,0-.45.53,2,2,0,0,0-.15.82,2,2,0,0,0,.15.81,1.24,1.24,0,0,0,.45.53,1.43,1.43,0,0,0,1.39,0,1.16,1.16,0,0,0,.44-.53,1.86,1.86,0,0,0,.16-.81,1.85,1.85,0,0,0-.16-.82,1.16,1.16,0,0,0-.44-.53A1.28,1.28,0,0,0,227.76,6.51Z"/><path d="M230.91,10V6h.52l.09.65a1.15,1.15,0,0,1,.49-.55A1.59,1.59,0,0,1,232.8,6H233a.48.48,0,0,1,.22.07l-.12.58-.19,0h-.29a.93.93,0,0,0-.5.14,1.12,1.12,0,0,0-.42.44,1.38,1.38,0,0,0-.17.74V10Z"/><path d="M234.49,5.27a.45.45,0,0,1-.48-.48.5.5,0,0,1,.13-.35.48.48,0,0,1,.35-.13.45.45,0,0,1,.48.48.48.48,0,0,1-.13.35A.5.5,0,0,1,234.49,5.27Zm.32.77v4h-.64V6Z"/><path d="M238.64,7.45a.84.84,0,0,0-.92-.93,1.31,1.31,0,0,0-.71.18,1,1,0,0,0-.42.58L236.07,7a1.39,1.39,0,0,1,.59-.73A2,2,0,0,1,237.73,6a2,2,0,0,1,.79.14,1.22,1.22,0,0,1,.55.45,1.32,1.32,0,0,1,.21.77V9.26a.26.26,0,0,0,.3.29,1.54,1.54,0,0,0,.3,0l0,.5a1.06,1.06,0,0,1-.83,0,.66.66,0,0,1-.29-.26.92.92,0,0,1-.1-.46V9.2l.16,0a1,1,0,0,1-.33.51,1.46,1.46,0,0,1-.52.28,1.9,1.9,0,0,1-.57.1,1.75,1.75,0,0,1-.65-.12,1.14,1.14,0,0,1-.49-.37,1.07,1.07,0,0,1,.12-1.34,1.58,1.58,0,0,1,.84-.4l1.58-.31v.53l-1.28.26a1.37,1.37,0,0,0-.59.23.46.46,0,0,0-.19.4.49.49,0,0,0,.2.4.88.88,0,0,0,.55.16,1.68,1.68,0,0,0,.45-.06,1.35,1.35,0,0,0,.38-.19.86.86,0,0,0,.26-.31,1,1,0,0,0,.1-.44Z"/><path d="M241.44,4.2V9a.59.59,0,0,0,.11.42.46.46,0,0,0,.36.12,1,1,0,0,0,.26,0,1.24,1.24,0,0,0,.28-.09l-.1.56a1.31,1.31,0,0,1-.28.09,1.63,1.63,0,0,1-.31,0,.92.92,0,0,1-.73-.27A1.21,1.21,0,0,1,240.8,9V4.2Z"/><path d="M247.47,10.12a1.71,1.71,0,0,1-1.43-.7,3.24,3.24,0,0,1-.54-2,3.27,3.27,0,0,1,.54-2,1.83,1.83,0,0,1,2.86,0,3.27,3.27,0,0,1,.54,2,3.24,3.24,0,0,1-.54,2A1.71,1.71,0,0,1,247.47,10.12Zm0-.58a1.07,1.07,0,0,0,.71-.24,1.44,1.44,0,0,0,.44-.73,4,4,0,0,0,.15-1.17,4,4,0,0,0-.15-1.18,1.37,1.37,0,0,0-.44-.72,1,1,0,0,0-.71-.25,1.07,1.07,0,0,0-.72.25,1.5,1.5,0,0,0-.44.72,4,4,0,0,0-.15,1.18,4,4,0,0,0,.15,1.17,1.59,1.59,0,0,0,.44.73A1.12,1.12,0,0,0,247.47,9.54Z"/><path d="M250.3,11.55l-.37-.37a4.55,4.55,0,0,0,.84-1,4,4,0,0,0,.45-1.12,5.59,5.59,0,0,0,.14-1.26,5.72,5.72,0,0,0-.14-1.26,3.87,3.87,0,0,0-.45-1.12,4.55,4.55,0,0,0-.84-1L250.3,4A4.78,4.78,0,0,1,252,7.79a5,5,0,0,1-.43,2.08A4.89,4.89,0,0,1,250.3,11.55Z"/><rect class="cls-2" x="268" y="66" width="54" height="16"/><path d="M274.18,69.83l.38.38a4.36,4.36,0,0,0-.86,1.05,4.1,4.1,0,0,0-.47,1.15,6.11,6.11,0,0,0,0,2.6,4.16,4.16,0,0,0,.47,1.16,4.79,4.79,0,0,0,.86,1l-.38.38a5.22,5.22,0,0,1-1.32-1.74,5.11,5.11,0,0,1,1.32-6Z"/><path d="M277.72,71.91v.57h-2.86v-.57ZM277,70a1.29,1.29,0,0,1,.4,0,.7.7,0,0,1,.3.14l-.17.53a.85.85,0,0,0-.22-.09,1,1,0,0,0-.25,0,.87.87,0,0,0-.56.17.67.67,0,0,0-.19.54V76h-.66V71.21a1.35,1.35,0,0,1,.08-.5,1,1,0,0,1,.25-.4,1.06,1.06,0,0,1,.43-.25A1.74,1.74,0,0,1,277,70Z"/><path d="M280.77,73.37a.87.87,0,0,0-.95-1,1.27,1.27,0,0,0-.72.19,1,1,0,0,0-.44.6l-.54-.33a1.49,1.49,0,0,1,.61-.75,2,2,0,0,1,1.11-.29,2.09,2.09,0,0,1,.81.16,1.23,1.23,0,0,1,.57.46,1.4,1.4,0,0,1,.21.8v2c0,.2.11.3.32.3a1,1,0,0,0,.3,0l0,.52a.89.89,0,0,1-.43.08,1,1,0,0,1-.43-.09.66.66,0,0,1-.3-.27,1,1,0,0,1-.1-.47v-.08l.16,0a1.13,1.13,0,0,1-.34.53A1.57,1.57,0,0,1,280,76a1.69,1.69,0,0,1-.58.1,1.72,1.72,0,0,1-.68-.13,1.1,1.1,0,0,1-.5-.37,1.05,1.05,0,0,1-.18-.62,1,1,0,0,1,.31-.77,1.62,1.62,0,0,1,.86-.41l1.63-.32v.55l-1.33.27a1.42,1.42,0,0,0-.6.23.5.5,0,0,0-.2.41.51.51,0,0,0,.21.42.86.86,0,0,0,.57.16,1.76,1.76,0,0,0,.46-.06,1.29,1.29,0,0,0,.39-.19.83.83,0,0,0,.27-.32,1,1,0,0,0,.1-.46Z"/><path d="M284.74,71.82a2,2,0,0,1,.76.14,1.36,1.36,0,0,1,.56.38,2,2,0,0,1,.39.58l-.62.3a1.36,1.36,0,0,0-.4-.61,1.12,1.12,0,0,0-.7-.21,1.23,1.23,0,0,0-.71.19,1.2,1.2,0,0,0-.46.53,2.19,2.19,0,0,0-.15.85,2.1,2.1,0,0,0,.15.84,1.17,1.17,0,0,0,.46.54,1.23,1.23,0,0,0,.71.19,1.4,1.4,0,0,0,.56-.1.9.9,0,0,0,.38-.29,1,1,0,0,0,.21-.46l.61.21a1.94,1.94,0,0,1-.38.66,1.53,1.53,0,0,1-.59.41,1.87,1.87,0,0,1-.78.15,2.07,2.07,0,0,1-1-.26,1.75,1.75,0,0,1-.71-.74,2.41,2.41,0,0,1-.25-1.15,2.44,2.44,0,0,1,.25-1.15,1.81,1.81,0,0,1,.71-.74A2.07,2.07,0,0,1,284.74,71.82Z"/><path d="M290.14,71.91v.57h-3v-.57Zm-1.51-1.18V74.9a.55.55,0,0,0,.18.45.63.63,0,0,0,.44.15,1.08,1.08,0,0,0,.42-.08,1.14,1.14,0,0,0,.31-.23l.23.56a1.68,1.68,0,0,1-.45.27,1.79,1.79,0,0,1-.6.1,1.58,1.58,0,0,1-.58-.11,1,1,0,0,1-.44-.36A1.28,1.28,0,0,1,288,75V70.92Z"/><path d="M292.83,71.82a2.11,2.11,0,0,1,1,.26,1.85,1.85,0,0,1,.7.74,2.44,2.44,0,0,1,.26,1.15,2.41,2.41,0,0,1-.26,1.15,1.79,1.79,0,0,1-.7.74,2.11,2.11,0,0,1-1,.26,2,2,0,0,1-1-.26,1.69,1.69,0,0,1-.71-.74,2.41,2.41,0,0,1-.26-1.15,2.44,2.44,0,0,1,.26-1.15,1.75,1.75,0,0,1,.71-.74A2,2,0,0,1,292.83,71.82Zm0,.57a1.38,1.38,0,0,0-.72.19,1.28,1.28,0,0,0-.46.54,2,2,0,0,0-.16.85,1.94,1.94,0,0,0,.16.84,1.25,1.25,0,0,0,.46.55,1.46,1.46,0,0,0,1.44,0,1.17,1.17,0,0,0,.45-.55,1.93,1.93,0,0,0,.17-.84,2,2,0,0,0-.17-.85,1.2,1.2,0,0,0-.45-.54A1.38,1.38,0,0,0,292.83,72.39Z"/><path d="M296.07,76V71.91h.54l.09.67a1.29,1.29,0,0,1,.51-.57,1.67,1.67,0,0,1,.81-.19l.24,0a.52.52,0,0,1,.22.07l-.12.6-.2-.05-.3,0a1,1,0,0,0-.52.15,1.17,1.17,0,0,0-.43.45,1.49,1.49,0,0,0-.18.77V76Z"/><path d="M299.77,71.11a.51.51,0,0,1-.36-.85.51.51,0,0,1,.72.72A.48.48,0,0,1,299.77,71.11Zm.33.8V76h-.66V71.91Z"/><path d="M304.05,73.37a.87.87,0,0,0-.95-1,1.3,1.3,0,0,0-.73.19,1.07,1.07,0,0,0-.43.6l-.54-.33a1.44,1.44,0,0,1,.61-.75,2,2,0,0,1,1.11-.29,2.17,2.17,0,0,1,.81.16,1.23,1.23,0,0,1,.57.46,1.4,1.4,0,0,1,.21.8v2c0,.2.11.3.32.3a1,1,0,0,0,.3,0l0,.52a.92.92,0,0,1-.43.08,1,1,0,0,1-.43-.09.66.66,0,0,1-.3-.27,1,1,0,0,1-.11-.47v-.08l.17,0a1.13,1.13,0,0,1-.34.53,1.57,1.57,0,0,1-.54.29,1.79,1.79,0,0,1-1.26,0,1.09,1.09,0,0,1-.38-1.76,1.69,1.69,0,0,1,.87-.41l1.63-.32v.55l-1.33.27a1.42,1.42,0,0,0-.6.23.5.5,0,0,0-.2.41.53.53,0,0,0,.2.42.91.91,0,0,0,.58.16,1.76,1.76,0,0,0,.46-.06,1.41,1.41,0,0,0,.39-.19A1,1,0,0,0,304,75a1,1,0,0,0,.1-.46Z"/><path d="M306.94,70v5a.6.6,0,0,0,.12.43.48.48,0,0,0,.37.12l.27,0,.29-.1-.11.58a1.23,1.23,0,0,1-.29.09,1.66,1.66,0,0,1-.32,0,1,1,0,0,1-.75-.27,1.26,1.26,0,0,1-.24-.84V70Z"/><path d="M313,76.12a2.47,2.47,0,0,1-1.28-.34,1.78,1.78,0,0,1-.76-1l.66-.34a1.67,1.67,0,0,0,.28.53,1.11,1.11,0,0,0,.46.36,1.81,1.81,0,0,0,.71.12,1.25,1.25,0,0,0,.61-.13.94.94,0,0,0,.38-.36,1,1,0,0,0,.13-.53.94.94,0,0,0-.11-.49.7.7,0,0,0-.35-.3,1.83,1.83,0,0,0-.63-.09h-.2l-.22,0V73h.27a1.28,1.28,0,0,0,.86-.23,1,1,0,0,0,.26-.74.78.78,0,0,0-.27-.65,1.1,1.1,0,0,0-.75-.23,1.22,1.22,0,0,0-.79.23,1.64,1.64,0,0,0-.43.61l-.63-.29a1.66,1.66,0,0,1,.4-.61,1.87,1.87,0,0,1,.64-.42,2.23,2.23,0,0,1,.83-.15,2,2,0,0,1,.94.2,1.35,1.35,0,0,1,.56.52,1.41,1.41,0,0,1,.18.71,1.51,1.51,0,0,1-.08.53,1.27,1.27,0,0,1-.23.41,1.18,1.18,0,0,1-.32.27,1.07,1.07,0,0,1-.39.14v0a1.08,1.08,0,0,1,.84.37,1.1,1.1,0,0,1,.23.37,1.33,1.33,0,0,1,.08.45,1.56,1.56,0,0,1-.24.85,1.6,1.6,0,0,1-.65.58A2.19,2.19,0,0,1,313,76.12Z"/><path d="M315.82,77.6l-.38-.38a4.36,4.36,0,0,0,.86-1,4.1,4.1,0,0,0,.47-1.15,6.11,6.11,0,0,0,0-2.6,4.16,4.16,0,0,0-.47-1.16,4.79,4.79,0,0,0-.86-1.05l.38-.38a5.22,5.22,0,0,1,1.32,1.74,5.11,5.11,0,0,1-1.32,6Z"/><rect class="cls-2" x="268" y="44" width="54" height="16"/><path d="M274.79,48l.37.37a4.34,4.34,0,0,0-.84,1,3.87,3.87,0,0,0-.45,1.12,6.12,6.12,0,0,0,0,2.51,3.76,3.76,0,0,0,.45,1.12,4.6,4.6,0,0,0,.84,1l-.37.37a5,5,0,0,1-1.28-1.69,5.22,5.22,0,0,1,0-4.15A4.83,4.83,0,0,1,274.79,48Z"/><path d="M278.22,50v.55h-2.77V50Zm-.66-1.88a1.61,1.61,0,0,1,.39,0,.78.78,0,0,1,.29.14l-.17.52a.67.67,0,0,0-.21-.09.88.88,0,0,0-.24,0,.81.81,0,0,0-.54.16.66.66,0,0,0-.19.53V54h-.64V49.36a1.46,1.46,0,0,1,.08-.48,1,1,0,0,1,.24-.39,1.29,1.29,0,0,1,.41-.25A2,2,0,0,1,277.56,48.16Z"/><path d="M281.18,51.45a.84.84,0,0,0-.92-.93,1.31,1.31,0,0,0-.71.18,1,1,0,0,0-.42.58l-.52-.32a1.39,1.39,0,0,1,.59-.73,2.27,2.27,0,0,1,1.86-.13,1.22,1.22,0,0,1,.55.45,1.32,1.32,0,0,1,.21.77v1.94a.26.26,0,0,0,.3.29,1.54,1.54,0,0,0,.3,0l0,.5a1.06,1.06,0,0,1-.83,0,.66.66,0,0,1-.29-.26,1,1,0,0,1-.1-.46V53.2l.16,0a1,1,0,0,1-.33.51,1.46,1.46,0,0,1-.52.28,1.9,1.9,0,0,1-.57.1,1.75,1.75,0,0,1-.65-.12,1.09,1.09,0,0,1-.49-.37,1.07,1.07,0,0,1,.12-1.34,1.58,1.58,0,0,1,.84-.4l1.58-.31v.53l-1.28.26a1.37,1.37,0,0,0-.59.23.46.46,0,0,0-.19.4.49.49,0,0,0,.2.4.88.88,0,0,0,.55.16,1.68,1.68,0,0,0,.45-.06,1.35,1.35,0,0,0,.38-.19.86.86,0,0,0,.26-.31,1,1,0,0,0,.1-.44Z"/><path d="M285,50a2.13,2.13,0,0,1,.74.12,1.58,1.58,0,0,1,.54.37,1.9,1.9,0,0,1,.38.57l-.61.29a1.14,1.14,0,0,0-.39-.59,1,1,0,0,0-.67-.2,1.27,1.27,0,0,0-.69.18,1.13,1.13,0,0,0-.44.52,2.29,2.29,0,0,0,0,1.63,1.16,1.16,0,0,0,.44.53,1.27,1.27,0,0,0,.69.18,1.44,1.44,0,0,0,.54-.1.87.87,0,0,0,.37-.28,1,1,0,0,0,.21-.45l.59.21a1.78,1.78,0,0,1-.37.63,1.66,1.66,0,0,1-.57.41,2,2,0,0,1-.76.14,2.09,2.09,0,0,1-1-.25,1.75,1.75,0,0,1-.68-.72,2.61,2.61,0,0,1,0-2.23,1.75,1.75,0,0,1,.68-.72A2.08,2.08,0,0,1,285,50Z"/><path d="M290.25,50v.55h-2.9V50Zm-1.46-1.14v4a.54.54,0,0,0,.17.44.63.63,0,0,0,.43.15,1,1,0,0,0,.4-.08,1.34,1.34,0,0,0,.31-.22l.22.54a1.28,1.28,0,0,1-.44.26,1.67,1.67,0,0,1-.58.1,1.47,1.47,0,0,1-.56-.11.85.85,0,0,1-.42-.35,1.11,1.11,0,0,1-.17-.62v-4Z"/><path d="M292.86,50a2.05,2.05,0,0,1,1,.24,1.75,1.75,0,0,1,.68.72,2.61,2.61,0,0,1,0,2.23,1.75,1.75,0,0,1-.68.72,2.06,2.06,0,0,1-1,.25,2,2,0,0,1-1-.25,1.71,1.71,0,0,1-.69-.72,2.61,2.61,0,0,1,0-2.23,1.71,1.71,0,0,1,.69-.72A2,2,0,0,1,292.86,50Zm0,.55a1.28,1.28,0,0,0-.7.18,1.16,1.16,0,0,0-.44.53,2.16,2.16,0,0,0,0,1.63,1.16,1.16,0,0,0,.44.53,1.43,1.43,0,0,0,1.39,0,1.24,1.24,0,0,0,.45-.53,2.29,2.29,0,0,0,0-1.63,1.24,1.24,0,0,0-.45-.53A1.27,1.27,0,0,0,292.86,50.51Z"/><path d="M296,54V50h.52l.09.65a1.15,1.15,0,0,1,.49-.55,1.62,1.62,0,0,1,.79-.18h.23a.48.48,0,0,1,.21.07l-.11.58-.2,0h-.29a1,1,0,0,0-.5.14,1.12,1.12,0,0,0-.42.44,1.47,1.47,0,0,0-.17.74V54Z"/><path d="M299.58,49.27a.48.48,0,0,1-.34-.13.48.48,0,0,1-.14-.35.47.47,0,0,1,.14-.35.44.44,0,0,1,.34-.13.45.45,0,0,1,.48.48.48.48,0,0,1-.13.35A.5.5,0,0,1,299.58,49.27Zm.32.77v4h-.64V50Z"/><path d="M303.73,51.45a.84.84,0,0,0-.92-.93,1.34,1.34,0,0,0-.71.18,1,1,0,0,0-.42.58l-.52-.32a1.44,1.44,0,0,1,.59-.73,2.27,2.27,0,0,1,1.86-.13,1.22,1.22,0,0,1,.55.45,1.32,1.32,0,0,1,.21.77v1.94a.26.26,0,0,0,.3.29,1.54,1.54,0,0,0,.3,0l0,.5a1,1,0,0,1-.42.08,1,1,0,0,1-.42-.09.59.59,0,0,1-.28-.26.92.92,0,0,1-.11-.46V53.2l.16,0a1,1,0,0,1-.33.51A1.38,1.38,0,0,1,303,54a1.89,1.89,0,0,1-.56.1,1.76,1.76,0,0,1-.66-.12,1.11,1.11,0,0,1-.48-.37,1.07,1.07,0,0,1,.12-1.34,1.54,1.54,0,0,1,.83-.4l1.59-.31v.53l-1.29.26a1.42,1.42,0,0,0-.59.23.48.48,0,0,0-.19.4.49.49,0,0,0,.2.4.88.88,0,0,0,.55.16,1.63,1.63,0,0,0,.45-.06,1.23,1.23,0,0,0,.38-.19.86.86,0,0,0,.26-.31.89.89,0,0,0,.1-.44Z"/><path d="M306.53,48.2V53a.59.59,0,0,0,.11.42.46.46,0,0,0,.36.12.93.93,0,0,0,.26,0,1.1,1.1,0,0,0,.28-.09l-.1.56a1.31,1.31,0,0,1-.28.09,1.55,1.55,0,0,1-.31,0,.92.92,0,0,1-.73-.27,1.21,1.21,0,0,1-.23-.81V48.2Z"/><path d="M310.66,54v-.52c.53-.39,1-.73,1.33-1a7.58,7.58,0,0,0,.85-.8,2.72,2.72,0,0,0,.46-.68,1.75,1.75,0,0,0,.13-.68,1,1,0,0,0-.3-.76,1.1,1.1,0,0,0-.82-.29,1.12,1.12,0,0,0-.87.35,1.54,1.54,0,0,0-.38.95l-.56-.34a1.8,1.8,0,0,1,.3-.81,1.48,1.48,0,0,1,.61-.55,1.93,1.93,0,0,1,.93-.2,2.11,2.11,0,0,1,.73.12,1.55,1.55,0,0,1,.55.34,1.35,1.35,0,0,1,.36.52,1.81,1.81,0,0,1,.12.67,2.11,2.11,0,0,1-.24,1,3.7,3.7,0,0,1-.79,1,11.32,11.32,0,0,1-1.49,1.15h2.64V54Z"/><path d="M315.21,55.55l-.37-.37a4.55,4.55,0,0,0,.84-1,4,4,0,0,0,.45-1.12,5.6,5.6,0,0,0,.13-1.26,5.73,5.73,0,0,0-.13-1.26,3.87,3.87,0,0,0-.45-1.12,4.55,4.55,0,0,0-.84-1l.37-.37a5,5,0,0,1,1.28,1.68,5.25,5.25,0,0,1,0,4.16A5,5,0,0,1,315.21,55.55Z"/><rect class="cls-2" x="268" y="22" width="54" height="16"/><path d="M275.58,26l.37.37a4.34,4.34,0,0,0-.84,1,3.87,3.87,0,0,0-.45,1.12,5.7,5.7,0,0,0,0,2.51,3.76,3.76,0,0,0,.45,1.12,4.6,4.6,0,0,0,.84,1l-.37.37a5,5,0,0,1-1.28-1.69,5.22,5.22,0,0,1,0-4.15A4.83,4.83,0,0,1,275.58,26Z"/><path d="M279,28v.55h-2.77V28Zm-.66-1.88a1.61,1.61,0,0,1,.39,0,.87.87,0,0,1,.29.14l-.17.52a.67.67,0,0,0-.21-.09.9.9,0,0,0-.25,0,.8.8,0,0,0-.53.16.66.66,0,0,0-.19.53V32H277V27.36a1.24,1.24,0,0,1,.08-.48,1,1,0,0,1,.24-.39,1.29,1.29,0,0,1,.41-.25A2,2,0,0,1,278.35,26.16Z"/><path d="M282,29.45a.93.93,0,0,0-.24-.69.91.91,0,0,0-.68-.24,1.3,1.3,0,0,0-.7.18,1,1,0,0,0-.42.58L279.4,29a1.39,1.39,0,0,1,.59-.73,2,2,0,0,1,1.07-.27,1.94,1.94,0,0,1,.78.14,1.25,1.25,0,0,1,.56.45,1.32,1.32,0,0,1,.2.77v1.94c0,.19.11.29.31.29a1.35,1.35,0,0,0,.29,0l0,.5a1.06,1.06,0,0,1-.83,0,.66.66,0,0,1-.29-.26.92.92,0,0,1-.1-.46V31.2l.16,0a1.1,1.1,0,0,1-.33.51,1.55,1.55,0,0,1-.52.28,1.9,1.9,0,0,1-.57.1A1.75,1.75,0,0,1,280,32a1.09,1.09,0,0,1-.49-.37,1.07,1.07,0,0,1,.12-1.34,1.58,1.58,0,0,1,.84-.4l1.58-.31v.53l-1.29.26a1.37,1.37,0,0,0-.58.23.46.46,0,0,0-.19.4.48.48,0,0,0,.19.4.93.93,0,0,0,.56.16,1.56,1.56,0,0,0,.44-.06,1.13,1.13,0,0,0,.38-.19.89.89,0,0,0,.27-.31,1,1,0,0,0,.09-.44Z"/><path d="M285.81,28a2,2,0,0,1,.73.12,1.62,1.62,0,0,1,.55.37,1.9,1.9,0,0,1,.38.57l-.61.29a1.14,1.14,0,0,0-.39-.59,1,1,0,0,0-.67-.2,1.27,1.27,0,0,0-.69.18,1.13,1.13,0,0,0-.44.52,2.29,2.29,0,0,0,0,1.63,1.16,1.16,0,0,0,.44.53,1.27,1.27,0,0,0,.69.18,1.53,1.53,0,0,0,.54-.1.93.93,0,0,0,.37-.28,1,1,0,0,0,.21-.45l.59.21a1.94,1.94,0,0,1-.37.63,1.66,1.66,0,0,1-.57.41,2,2,0,0,1-.76.14,2.09,2.09,0,0,1-1-.25,1.84,1.84,0,0,1-.69-.72,2.71,2.71,0,0,1,0-2.23,1.84,1.84,0,0,1,.69-.72A2.08,2.08,0,0,1,285.81,28Z"/><path d="M291,28v.55h-2.9V28Zm-1.46-1.14v4a.54.54,0,0,0,.17.44.61.61,0,0,0,.43.15,1,1,0,0,0,.4-.08,1.29,1.29,0,0,0,.3-.22l.23.54a1.28,1.28,0,0,1-.44.26,1.72,1.72,0,0,1-.58.1,1.56,1.56,0,0,1-.57-.11,1,1,0,0,1-.42-.35,1.2,1.2,0,0,1-.16-.62v-4Z"/><path d="M293.64,28a2.07,2.07,0,0,1,1,.24,1.75,1.75,0,0,1,.68.72,2.61,2.61,0,0,1,0,2.23,1.75,1.75,0,0,1-.68.72,2.15,2.15,0,0,1-2,0,1.75,1.75,0,0,1-.68-.72,2.61,2.61,0,0,1,0-2.23,1.75,1.75,0,0,1,.68-.72A2.08,2.08,0,0,1,293.64,28Zm0,.55a1.27,1.27,0,0,0-.69.18,1.24,1.24,0,0,0-.45.53,2.29,2.29,0,0,0,0,1.63,1.24,1.24,0,0,0,.45.53,1.43,1.43,0,0,0,1.39,0,1.16,1.16,0,0,0,.44-.53,2.16,2.16,0,0,0,0-1.63,1.16,1.16,0,0,0-.44-.53A1.28,1.28,0,0,0,293.64,28.51Z"/><path d="M296.79,32V28h.52l.09.65a1.15,1.15,0,0,1,.49-.55,1.59,1.59,0,0,1,.79-.18h.22a.48.48,0,0,1,.22.07l-.12.58-.19-.05h-.29a.93.93,0,0,0-.5.14,1.12,1.12,0,0,0-.42.44,1.38,1.38,0,0,0-.17.74V32Z"/><path d="M300.37,27.27a.45.45,0,0,1-.48-.48.5.5,0,0,1,.13-.35.48.48,0,0,1,.35-.13.45.45,0,0,1,.48.48.48.48,0,0,1-.13.35A.5.5,0,0,1,300.37,27.27Zm.32.77v4h-.64V28Z"/><path d="M304.52,29.45a.84.84,0,0,0-.92-.93,1.31,1.31,0,0,0-.71.18,1,1,0,0,0-.42.58L302,29a1.39,1.39,0,0,1,.59-.73,2.27,2.27,0,0,1,1.86-.13,1.22,1.22,0,0,1,.55.45,1.32,1.32,0,0,1,.21.77v1.94a.26.26,0,0,0,.3.29,1.54,1.54,0,0,0,.3,0l0,.5a1.06,1.06,0,0,1-.83,0,.66.66,0,0,1-.29-.26,1,1,0,0,1-.1-.46V31.2l.16,0a1,1,0,0,1-.33.51,1.46,1.46,0,0,1-.52.28,1.9,1.9,0,0,1-.57.1,1.75,1.75,0,0,1-.65-.12,1.09,1.09,0,0,1-.49-.37,1.07,1.07,0,0,1,.12-1.34,1.58,1.58,0,0,1,.84-.4l1.58-.31v.53l-1.28.26a1.37,1.37,0,0,0-.59.23.46.46,0,0,0-.19.4.49.49,0,0,0,.2.4.88.88,0,0,0,.55.16,1.68,1.68,0,0,0,.45-.06,1.35,1.35,0,0,0,.38-.19.86.86,0,0,0,.26-.31,1,1,0,0,0,.1-.44Z"/><path d="M307.32,26.2V31a.59.59,0,0,0,.11.42.46.46,0,0,0,.36.12,1,1,0,0,0,.26,0,1.24,1.24,0,0,0,.28-.09l-.1.56a1.31,1.31,0,0,1-.28.09,1.63,1.63,0,0,1-.31,0,.92.92,0,0,1-.73-.27,1.15,1.15,0,0,1-.23-.81V26.2Z"/><path d="M312.36,32V28.16c0-.09,0-.18,0-.29s0-.21,0-.32a2.93,2.93,0,0,1-1.37.74l-.17-.58a1.46,1.46,0,0,0,.37-.11,4.92,4.92,0,0,0,.46-.23l.45-.3a1.59,1.59,0,0,0,.32-.31H313V32Z"/><path d="M314.42,33.55l-.37-.37a4.55,4.55,0,0,0,.84-1,4,4,0,0,0,.45-1.12,5.59,5.59,0,0,0,.14-1.26,5.72,5.72,0,0,0-.14-1.26,3.87,3.87,0,0,0-.45-1.12,4.55,4.55,0,0,0-.84-1l.37-.37a5,5,0,0,1,1.28,1.68,5.25,5.25,0,0,1,0,4.16A5,5,0,0,1,314.42,33.55Z"/><rect class="cls-2" x="268" width="54" height="16"/><path d="M295.11,10V5.74c0-.11,0-.22,0-.34a3,3,0,0,1-.65.48,3.21,3.21,0,0,1-.76.29l-.17-.6a1.46,1.46,0,0,0,.37-.11l.48-.24a4.25,4.25,0,0,0,.47-.31,2,2,0,0,0,.33-.32h.58V10Z"/><rect class="cls-2" x="333" y="66" width="54" height="16"/><path d="M339.83,70l.37.37a4.34,4.34,0,0,0-.84,1,3.87,3.87,0,0,0-.45,1.12,6.12,6.12,0,0,0,0,2.51,3.76,3.76,0,0,0,.45,1.12,4.6,4.6,0,0,0,.84,1l-.37.37a5,5,0,0,1-1.28-1.69,5.22,5.22,0,0,1,0-4.15A4.83,4.83,0,0,1,339.83,70Z"/><path d="M343.26,72v.55h-2.77V72Zm-.66-1.88a1.61,1.61,0,0,1,.39,0,.78.78,0,0,1,.29.14l-.17.52a.67.67,0,0,0-.21-.09.88.88,0,0,0-.24,0,.81.81,0,0,0-.54.16.66.66,0,0,0-.19.53V76h-.64V71.36a1.24,1.24,0,0,1,.08-.48,1,1,0,0,1,.24-.39,1.29,1.29,0,0,1,.41-.25A2,2,0,0,1,342.6,70.16Z"/><path d="M346.22,73.45a.84.84,0,0,0-.92-.93,1.31,1.31,0,0,0-.71.18,1,1,0,0,0-.42.58l-.52-.32a1.39,1.39,0,0,1,.59-.73,2,2,0,0,1,1.07-.27,2,2,0,0,1,.79.14,1.22,1.22,0,0,1,.55.45,1.32,1.32,0,0,1,.21.77v1.94a.26.26,0,0,0,.3.29,1.54,1.54,0,0,0,.3,0l0,.5a1.06,1.06,0,0,1-.83,0,.66.66,0,0,1-.29-.26.92.92,0,0,1-.1-.46V75.2l.16,0a1,1,0,0,1-.33.51,1.46,1.46,0,0,1-.52.28,1.9,1.9,0,0,1-.57.1,1.75,1.75,0,0,1-.65-.12,1.14,1.14,0,0,1-.49-.37,1.07,1.07,0,0,1,.12-1.34,1.58,1.58,0,0,1,.84-.4l1.58-.31v.53l-1.28.26a1.37,1.37,0,0,0-.59.23.46.46,0,0,0-.19.4.49.49,0,0,0,.2.4.88.88,0,0,0,.55.16,1.68,1.68,0,0,0,.45-.06,1.35,1.35,0,0,0,.38-.19.86.86,0,0,0,.26-.31,1,1,0,0,0,.1-.44Z"/><path d="M350.06,72a2.09,2.09,0,0,1,.74.12,1.58,1.58,0,0,1,.54.37,1.9,1.9,0,0,1,.38.57l-.61.29a1.14,1.14,0,0,0-.39-.59,1,1,0,0,0-.67-.2,1.27,1.27,0,0,0-.69.18,1.13,1.13,0,0,0-.44.52,2.29,2.29,0,0,0,0,1.63,1.16,1.16,0,0,0,.44.53,1.27,1.27,0,0,0,.69.18,1.44,1.44,0,0,0,.54-.1.87.87,0,0,0,.37-.28,1,1,0,0,0,.21-.45l.59.21a1.94,1.94,0,0,1-.37.63,1.66,1.66,0,0,1-.57.41,2,2,0,0,1-.76.14,2.09,2.09,0,0,1-1-.25,1.75,1.75,0,0,1-.68-.72,2.61,2.61,0,0,1,0-2.23,1.75,1.75,0,0,1,.68-.72A2.08,2.08,0,0,1,350.06,72Z"/><path d="M355.29,72v.55h-2.9V72Zm-1.46-1.14v4a.54.54,0,0,0,.17.44.63.63,0,0,0,.43.15,1,1,0,0,0,.4-.08,1.6,1.6,0,0,0,.31-.22l.22.54a1.28,1.28,0,0,1-.44.26,1.67,1.67,0,0,1-.58.1,1.47,1.47,0,0,1-.56-.11.85.85,0,0,1-.42-.35,1.11,1.11,0,0,1-.17-.62v-4Z"/><path d="M357.9,72a2,2,0,0,1,1,.24,1.75,1.75,0,0,1,.68.72,2.61,2.61,0,0,1,0,2.23,1.75,1.75,0,0,1-.68.72,2.13,2.13,0,0,1-2,0,1.71,1.71,0,0,1-.69-.72,2.61,2.61,0,0,1,0-2.23,1.71,1.71,0,0,1,.69-.72A2,2,0,0,1,357.9,72Zm0,.55a1.28,1.28,0,0,0-.7.18,1.16,1.16,0,0,0-.44.53,2.16,2.16,0,0,0,0,1.63,1.16,1.16,0,0,0,.44.53,1.43,1.43,0,0,0,1.39,0,1.24,1.24,0,0,0,.45-.53,2.29,2.29,0,0,0,0-1.63,1.24,1.24,0,0,0-.45-.53A1.27,1.27,0,0,0,357.9,72.51Z"/><path d="M361,76V72h.52l.09.65a1.15,1.15,0,0,1,.49-.55,1.62,1.62,0,0,1,.79-.18h.23a.48.48,0,0,1,.21.07l-.11.58-.2-.05h-.29a1,1,0,0,0-.5.14,1.12,1.12,0,0,0-.42.44,1.47,1.47,0,0,0-.17.74V76Z"/><path d="M364.62,71.27a.48.48,0,0,1-.34-.13.48.48,0,0,1-.14-.35.47.47,0,0,1,.14-.35.44.44,0,0,1,.34-.13.45.45,0,0,1,.48.48.48.48,0,0,1-.13.35A.5.5,0,0,1,364.62,71.27Zm.32.77v4h-.64V72Z"/><path d="M368.77,73.45a.84.84,0,0,0-.92-.93,1.34,1.34,0,0,0-.71.18,1,1,0,0,0-.42.58L366.2,73a1.44,1.44,0,0,1,.59-.73,2.27,2.27,0,0,1,1.86-.13,1.22,1.22,0,0,1,.55.45,1.32,1.32,0,0,1,.21.77v1.94a.26.26,0,0,0,.3.29,1.54,1.54,0,0,0,.3,0l0,.5a1,1,0,0,1-.42.08,1,1,0,0,1-.42-.09.64.64,0,0,1-.28-.26.92.92,0,0,1-.11-.46V75.2l.16,0a1,1,0,0,1-.33.51,1.38,1.38,0,0,1-.52.28,1.89,1.89,0,0,1-.56.1,1.76,1.76,0,0,1-.66-.12,1.11,1.11,0,0,1-.48-.37,1.07,1.07,0,0,1,.12-1.34,1.58,1.58,0,0,1,.83-.4l1.59-.31v.53l-1.29.26a1.42,1.42,0,0,0-.59.23.48.48,0,0,0-.19.4.49.49,0,0,0,.2.4.88.88,0,0,0,.55.16,1.63,1.63,0,0,0,.45-.06,1.23,1.23,0,0,0,.38-.19.86.86,0,0,0,.26-.31.89.89,0,0,0,.1-.44Z"/><path d="M371.57,70.2V75a.64.64,0,0,0,.11.42.47.47,0,0,0,.36.12.93.93,0,0,0,.26,0,1.1,1.1,0,0,0,.28-.09l-.1.56a1.31,1.31,0,0,1-.28.09,1.63,1.63,0,0,1-.31,0,.92.92,0,0,1-.73-.27,1.21,1.21,0,0,1-.23-.81V70.2Z"/><path d="M377.43,76.12a2.33,2.33,0,0,1-1.24-.34,1.6,1.6,0,0,1-.73-.91l.64-.33a1.69,1.69,0,0,0,.26.52,1.16,1.16,0,0,0,.44.34,1.79,1.79,0,0,0,.7.12,1.32,1.32,0,0,0,.59-.13,1,1,0,0,0,.37-.35,1.07,1.07,0,0,0,.12-.51,1,1,0,0,0-.1-.48.67.67,0,0,0-.34-.28,1.75,1.75,0,0,0-.61-.09h-.19l-.22,0v-.64h.26a1.26,1.26,0,0,0,.84-.23,1,1,0,0,0,.24-.72.79.79,0,0,0-.25-.63,1.13,1.13,0,0,0-.73-.21,1.16,1.16,0,0,0-.77.22,1.45,1.45,0,0,0-.41.59l-.61-.29a1.62,1.62,0,0,1,.38-.59,1.89,1.89,0,0,1,.62-.4,2.29,2.29,0,0,1,.81-.14,1.92,1.92,0,0,1,.91.19,1.25,1.25,0,0,1,.54.5,1.3,1.3,0,0,1,.18.68,1.62,1.62,0,0,1-.08.52,1.71,1.71,0,0,1-.22.4,1.11,1.11,0,0,1-.32.26,1.28,1.28,0,0,1-.37.14h0a1.11,1.11,0,0,1,.46.11.9.9,0,0,1,.35.25,1.07,1.07,0,0,1,.22.37,1.16,1.16,0,0,1,.08.42,1.54,1.54,0,0,1-.23.83,1.46,1.46,0,0,1-.64.56A2,2,0,0,1,377.43,76.12Z"/><path d="M380.17,77.55l-.37-.37a4.55,4.55,0,0,0,.84-1,4,4,0,0,0,.45-1.12,5.6,5.6,0,0,0,.13-1.26,5.73,5.73,0,0,0-.13-1.26,3.87,3.87,0,0,0-.45-1.12,4.55,4.55,0,0,0-.84-1l.37-.37a5,5,0,0,1,1.28,1.68,5.25,5.25,0,0,1,0,4.16A5,5,0,0,1,380.17,77.55Z"/><rect class="cls-2" x="333" y="44" width="54" height="16"/><path d="M339.79,48l.37.37a4.34,4.34,0,0,0-.84,1,3.87,3.87,0,0,0-.45,1.12,6.12,6.12,0,0,0,0,2.51,3.76,3.76,0,0,0,.45,1.12,4.6,4.6,0,0,0,.84,1l-.37.37a5,5,0,0,1-1.28-1.69,5.22,5.22,0,0,1,0-4.15A4.83,4.83,0,0,1,339.79,48Z"/><path d="M343.22,50v.55h-2.77V50Zm-.66-1.88a1.61,1.61,0,0,1,.39,0,.78.78,0,0,1,.29.14l-.17.52a.67.67,0,0,0-.21-.09.88.88,0,0,0-.24,0,.81.81,0,0,0-.54.16.66.66,0,0,0-.19.53V54h-.64V49.36a1.46,1.46,0,0,1,.08-.48,1,1,0,0,1,.24-.39,1.29,1.29,0,0,1,.41-.25A2,2,0,0,1,342.56,48.16Z"/><path d="M346.18,51.45a.84.84,0,0,0-.92-.93,1.31,1.31,0,0,0-.71.18,1,1,0,0,0-.42.58l-.52-.32a1.39,1.39,0,0,1,.59-.73,2.27,2.27,0,0,1,1.86-.13,1.22,1.22,0,0,1,.55.45,1.32,1.32,0,0,1,.21.77v1.94a.26.26,0,0,0,.3.29,1.54,1.54,0,0,0,.3,0l0,.5a1.06,1.06,0,0,1-.83,0,.66.66,0,0,1-.29-.26,1,1,0,0,1-.1-.46V53.2l.16,0a1,1,0,0,1-.33.51,1.46,1.46,0,0,1-.52.28,1.9,1.9,0,0,1-.57.1,1.75,1.75,0,0,1-.65-.12,1.09,1.09,0,0,1-.49-.37,1.07,1.07,0,0,1,.12-1.34,1.58,1.58,0,0,1,.84-.4l1.58-.31v.53l-1.28.26a1.37,1.37,0,0,0-.59.23.46.46,0,0,0-.19.4.49.49,0,0,0,.2.4.88.88,0,0,0,.55.16,1.68,1.68,0,0,0,.45-.06,1.35,1.35,0,0,0,.38-.19.86.86,0,0,0,.26-.31,1,1,0,0,0,.1-.44Z"/><path d="M350,50a2.13,2.13,0,0,1,.74.12,1.58,1.58,0,0,1,.54.37,1.9,1.9,0,0,1,.38.57l-.61.29a1.14,1.14,0,0,0-.39-.59,1,1,0,0,0-.67-.2,1.27,1.27,0,0,0-.69.18,1.13,1.13,0,0,0-.44.52,2.29,2.29,0,0,0,0,1.63,1.16,1.16,0,0,0,.44.53,1.27,1.27,0,0,0,.69.18,1.44,1.44,0,0,0,.54-.1.87.87,0,0,0,.37-.28,1,1,0,0,0,.21-.45l.59.21a1.78,1.78,0,0,1-.37.63,1.66,1.66,0,0,1-.57.41,2,2,0,0,1-.76.14,2.09,2.09,0,0,1-1-.25,1.75,1.75,0,0,1-.68-.72,2.61,2.61,0,0,1,0-2.23,1.75,1.75,0,0,1,.68-.72A2.08,2.08,0,0,1,350,50Z"/><path d="M355.25,50v.55h-2.9V50Zm-1.46-1.14v4a.54.54,0,0,0,.17.44.63.63,0,0,0,.43.15,1,1,0,0,0,.4-.08,1.34,1.34,0,0,0,.31-.22l.22.54a1.28,1.28,0,0,1-.44.26,1.67,1.67,0,0,1-.58.1,1.47,1.47,0,0,1-.56-.11.85.85,0,0,1-.42-.35,1.11,1.11,0,0,1-.17-.62v-4Z"/><path d="M357.86,50a2.05,2.05,0,0,1,1,.24,1.75,1.75,0,0,1,.68.72,2.61,2.61,0,0,1,0,2.23,1.75,1.75,0,0,1-.68.72,2.06,2.06,0,0,1-1,.25,2,2,0,0,1-1-.25,1.71,1.71,0,0,1-.69-.72,2.61,2.61,0,0,1,0-2.23,1.71,1.71,0,0,1,.69-.72A2,2,0,0,1,357.86,50Zm0,.55a1.28,1.28,0,0,0-.7.18,1.16,1.16,0,0,0-.44.53,2.16,2.16,0,0,0,0,1.63,1.16,1.16,0,0,0,.44.53,1.43,1.43,0,0,0,1.39,0,1.24,1.24,0,0,0,.45-.53,2.29,2.29,0,0,0,0-1.63,1.24,1.24,0,0,0-.45-.53A1.27,1.27,0,0,0,357.86,50.51Z"/><path d="M361,54V50h.52l.09.65a1.15,1.15,0,0,1,.49-.55,1.62,1.62,0,0,1,.79-.18h.23a.48.48,0,0,1,.21.07l-.11.58-.2,0h-.29a1,1,0,0,0-.5.14,1.12,1.12,0,0,0-.42.44,1.47,1.47,0,0,0-.17.74V54Z"/><path d="M364.58,49.27a.48.48,0,0,1-.34-.13.48.48,0,0,1-.14-.35.47.47,0,0,1,.14-.35.44.44,0,0,1,.34-.13.45.45,0,0,1,.48.48.48.48,0,0,1-.13.35A.5.5,0,0,1,364.58,49.27Zm.32.77v4h-.64V50Z"/><path d="M368.73,51.45a.84.84,0,0,0-.92-.93,1.34,1.34,0,0,0-.71.18,1,1,0,0,0-.42.58l-.52-.32a1.44,1.44,0,0,1,.59-.73,2.27,2.27,0,0,1,1.86-.13,1.22,1.22,0,0,1,.55.45,1.32,1.32,0,0,1,.21.77v1.94a.26.26,0,0,0,.3.29,1.54,1.54,0,0,0,.3,0l0,.5a1,1,0,0,1-.42.08,1,1,0,0,1-.42-.09.59.59,0,0,1-.28-.26.92.92,0,0,1-.11-.46V53.2l.16,0a1,1,0,0,1-.33.51A1.38,1.38,0,0,1,368,54a1.89,1.89,0,0,1-.56.1,1.76,1.76,0,0,1-.66-.12,1.11,1.11,0,0,1-.48-.37,1.07,1.07,0,0,1,.12-1.34,1.54,1.54,0,0,1,.83-.4l1.59-.31v.53l-1.29.26a1.42,1.42,0,0,0-.59.23.48.48,0,0,0-.19.4.49.49,0,0,0,.2.4.88.88,0,0,0,.55.16,1.63,1.63,0,0,0,.45-.06,1.23,1.23,0,0,0,.38-.19.86.86,0,0,0,.26-.31.89.89,0,0,0,.1-.44Z"/><path d="M371.53,48.2V53a.59.59,0,0,0,.11.42.46.46,0,0,0,.36.12.93.93,0,0,0,.26,0,1.1,1.1,0,0,0,.28-.09l-.1.56a1.31,1.31,0,0,1-.28.09,1.55,1.55,0,0,1-.31,0,.92.92,0,0,1-.73-.27,1.21,1.21,0,0,1-.23-.81V48.2Z"/><path d="M375.66,54v-.52c.53-.39,1-.73,1.33-1a7.58,7.58,0,0,0,.85-.8,2.72,2.72,0,0,0,.46-.68,1.75,1.75,0,0,0,.13-.68,1,1,0,0,0-.3-.76,1.1,1.1,0,0,0-.82-.29,1.12,1.12,0,0,0-.87.35,1.54,1.54,0,0,0-.38.95l-.56-.34a1.8,1.8,0,0,1,.3-.81,1.48,1.48,0,0,1,.61-.55,1.93,1.93,0,0,1,.93-.2,2.11,2.11,0,0,1,.73.12,1.55,1.55,0,0,1,.55.34,1.35,1.35,0,0,1,.36.52,1.81,1.81,0,0,1,.12.67,2.11,2.11,0,0,1-.24,1,3.7,3.7,0,0,1-.79,1,11.32,11.32,0,0,1-1.49,1.15h2.64V54Z"/><path d="M380.21,55.55l-.37-.37a4.55,4.55,0,0,0,.84-1,4,4,0,0,0,.45-1.12,5.6,5.6,0,0,0,.13-1.26,5.73,5.73,0,0,0-.13-1.26,3.87,3.87,0,0,0-.45-1.12,4.55,4.55,0,0,0-.84-1l.37-.37a5,5,0,0,1,1.28,1.68,5.25,5.25,0,0,1,0,4.16A5,5,0,0,1,380.21,55.55Z"/><rect class="cls-2" x="333" y="22" width="54" height="16"/><path d="M349.39,25.83l.38.38a4.36,4.36,0,0,0-.86,1.05,4.1,4.1,0,0,0-.47,1.15,6.11,6.11,0,0,0,0,2.6,4.16,4.16,0,0,0,.47,1.16,4.79,4.79,0,0,0,.86,1l-.38.38a5.22,5.22,0,0,1-1.32-1.74,5.11,5.11,0,0,1,1.32-6Z"/><path d="M350.61,27.1l.95.3.86.4-.05.15-.05.15-.93-.18-.94-.32Zm1.64.76.12.09.13.09-.46.83-.59.8-.43-.31.58-.81Zm.4-1.85v1l-.12.94h-.31L352.1,27V26Zm-.15,1.85.65.69.58.81-.43.31-.6-.8-.45-.83.12-.09Zm1.64-.76.16.5-.94.32-.94.18-.05-.15-.05-.15.86-.4Z"/><path d="M359.1,32V28c0-.09,0-.2,0-.3s0-.22,0-.34a3,3,0,0,1-1.41.77l-.17-.6a1.59,1.59,0,0,0,.37-.11l.48-.24a5.46,5.46,0,0,0,.47-.31,2,2,0,0,0,.33-.32h.57V32Z"/><path d="M365,32V28c0-.09,0-.2,0-.3s0-.22,0-.34a3,3,0,0,1-1.41.77l-.17-.6a1.59,1.59,0,0,0,.37-.11l.48-.24a5.46,5.46,0,0,0,.47-.31,2,2,0,0,0,.33-.32h.58V32Z"/><path d="M367.1,33.6l-.38-.38a4.36,4.36,0,0,0,.86-1,4.1,4.1,0,0,0,.47-1.15,6.11,6.11,0,0,0,0-2.6,4.16,4.16,0,0,0-.47-1.16,4.79,4.79,0,0,0-.86-1.05l.38-.38a5.22,5.22,0,0,1,1.32,1.74,5.11,5.11,0,0,1-1.32,6Z"/><rect class="cls-2" x="399" y="66" width="54" height="16"/><path d="M405.83,70l.37.37a4.34,4.34,0,0,0-.84,1,3.87,3.87,0,0,0-.45,1.12,6.12,6.12,0,0,0,0,2.51,3.76,3.76,0,0,0,.45,1.12,4.6,4.6,0,0,0,.84,1l-.37.37a5,5,0,0,1-1.28-1.69,5.22,5.22,0,0,1,0-4.15A4.83,4.83,0,0,1,405.83,70Z"/><path d="M409.26,72v.55h-2.77V72Zm-.66-1.88a1.61,1.61,0,0,1,.39,0,.78.78,0,0,1,.29.14l-.17.52a.67.67,0,0,0-.21-.09.88.88,0,0,0-.24,0,.81.81,0,0,0-.54.16.66.66,0,0,0-.19.53V76h-.64V71.36a1.24,1.24,0,0,1,.08-.48,1,1,0,0,1,.24-.39,1.29,1.29,0,0,1,.41-.25A2,2,0,0,1,408.6,70.16Z"/><path d="M412.22,73.45a.84.84,0,0,0-.92-.93,1.31,1.31,0,0,0-.71.18,1,1,0,0,0-.42.58l-.52-.32a1.39,1.39,0,0,1,.59-.73,2,2,0,0,1,1.07-.27,2,2,0,0,1,.79.14,1.22,1.22,0,0,1,.55.45,1.32,1.32,0,0,1,.21.77v1.94a.26.26,0,0,0,.3.29,1.54,1.54,0,0,0,.3,0l0,.5a1.06,1.06,0,0,1-.83,0,.66.66,0,0,1-.29-.26.92.92,0,0,1-.1-.46V75.2l.16,0a1,1,0,0,1-.33.51,1.46,1.46,0,0,1-.52.28,1.9,1.9,0,0,1-.57.1,1.75,1.75,0,0,1-.65-.12,1.14,1.14,0,0,1-.49-.37,1.07,1.07,0,0,1,.12-1.34,1.58,1.58,0,0,1,.84-.4l1.58-.31v.53l-1.28.26a1.37,1.37,0,0,0-.59.23.46.46,0,0,0-.19.4.49.49,0,0,0,.2.4.88.88,0,0,0,.55.16,1.68,1.68,0,0,0,.45-.06,1.35,1.35,0,0,0,.38-.19.86.86,0,0,0,.26-.31,1,1,0,0,0,.1-.44Z"/><path d="M416.06,72a2.09,2.09,0,0,1,.74.12,1.58,1.58,0,0,1,.54.37,1.9,1.9,0,0,1,.38.57l-.61.29a1.14,1.14,0,0,0-.39-.59,1,1,0,0,0-.67-.2,1.27,1.27,0,0,0-.69.18,1.13,1.13,0,0,0-.44.52,2.29,2.29,0,0,0,0,1.63,1.16,1.16,0,0,0,.44.53,1.27,1.27,0,0,0,.69.18,1.44,1.44,0,0,0,.54-.1.87.87,0,0,0,.37-.28,1,1,0,0,0,.21-.45l.59.21a1.94,1.94,0,0,1-.37.63,1.66,1.66,0,0,1-.57.41,2,2,0,0,1-.76.14,2.09,2.09,0,0,1-1-.25,1.75,1.75,0,0,1-.68-.72,2.61,2.61,0,0,1,0-2.23,1.75,1.75,0,0,1,.68-.72A2.08,2.08,0,0,1,416.06,72Z"/><path d="M421.29,72v.55h-2.9V72Zm-1.46-1.14v4a.54.54,0,0,0,.17.44.63.63,0,0,0,.43.15,1,1,0,0,0,.4-.08,1.6,1.6,0,0,0,.31-.22l.22.54a1.28,1.28,0,0,1-.44.26,1.67,1.67,0,0,1-.58.1,1.47,1.47,0,0,1-.56-.11.85.85,0,0,1-.42-.35,1.11,1.11,0,0,1-.17-.62v-4Z"/><path d="M423.9,72a2,2,0,0,1,1,.24,1.75,1.75,0,0,1,.68.72,2.61,2.61,0,0,1,0,2.23,1.75,1.75,0,0,1-.68.72,2.13,2.13,0,0,1-2,0,1.71,1.71,0,0,1-.69-.72,2.61,2.61,0,0,1,0-2.23,1.71,1.71,0,0,1,.69-.72A2,2,0,0,1,423.9,72Zm0,.55a1.28,1.28,0,0,0-.7.18,1.16,1.16,0,0,0-.44.53,2.16,2.16,0,0,0,0,1.63,1.16,1.16,0,0,0,.44.53,1.43,1.43,0,0,0,1.39,0,1.24,1.24,0,0,0,.45-.53,2.29,2.29,0,0,0,0-1.63,1.24,1.24,0,0,0-.45-.53A1.27,1.27,0,0,0,423.9,72.51Z"/><path d="M427,76V72h.52l.09.65a1.15,1.15,0,0,1,.49-.55,1.62,1.62,0,0,1,.79-.18h.23a.48.48,0,0,1,.21.07l-.11.58-.2-.05h-.29a1,1,0,0,0-.5.14,1.12,1.12,0,0,0-.42.44,1.47,1.47,0,0,0-.17.74V76Z"/><path d="M430.62,71.27a.48.48,0,0,1-.34-.13.48.48,0,0,1-.14-.35.47.47,0,0,1,.14-.35.44.44,0,0,1,.34-.13.45.45,0,0,1,.48.48.48.48,0,0,1-.13.35A.5.5,0,0,1,430.62,71.27Zm.32.77v4h-.64V72Z"/><path d="M434.77,73.45a.84.84,0,0,0-.92-.93,1.34,1.34,0,0,0-.71.18,1,1,0,0,0-.42.58L432.2,73a1.44,1.44,0,0,1,.59-.73,2.27,2.27,0,0,1,1.86-.13,1.22,1.22,0,0,1,.55.45,1.32,1.32,0,0,1,.21.77v1.94a.26.26,0,0,0,.3.29,1.54,1.54,0,0,0,.3,0l0,.5a1,1,0,0,1-.42.08,1,1,0,0,1-.42-.09.64.64,0,0,1-.28-.26.92.92,0,0,1-.11-.46V75.2l.16,0a1,1,0,0,1-.33.51,1.38,1.38,0,0,1-.52.28,1.89,1.89,0,0,1-.56.1,1.76,1.76,0,0,1-.66-.12,1.11,1.11,0,0,1-.48-.37,1.07,1.07,0,0,1,.12-1.34,1.58,1.58,0,0,1,.83-.4l1.59-.31v.53l-1.29.26a1.42,1.42,0,0,0-.59.23.48.48,0,0,0-.19.4.49.49,0,0,0,.2.4.88.88,0,0,0,.55.16,1.63,1.63,0,0,0,.45-.06,1.23,1.23,0,0,0,.38-.19.86.86,0,0,0,.26-.31.89.89,0,0,0,.1-.44Z"/><path d="M437.57,70.2V75a.64.64,0,0,0,.11.42.47.47,0,0,0,.36.12.93.93,0,0,0,.26,0,1.1,1.1,0,0,0,.28-.09l-.1.56a1.31,1.31,0,0,1-.28.09,1.63,1.63,0,0,1-.31,0,.92.92,0,0,1-.73-.27,1.21,1.21,0,0,1-.23-.81V70.2Z"/><path d="M443.43,76.12a2.33,2.33,0,0,1-1.24-.34,1.6,1.6,0,0,1-.73-.91l.64-.33a1.69,1.69,0,0,0,.26.52,1.16,1.16,0,0,0,.44.34,1.79,1.79,0,0,0,.7.12,1.32,1.32,0,0,0,.59-.13,1,1,0,0,0,.37-.35,1.07,1.07,0,0,0,.12-.51,1,1,0,0,0-.1-.48.67.67,0,0,0-.34-.28,1.75,1.75,0,0,0-.61-.09h-.19l-.22,0v-.64h.26a1.26,1.26,0,0,0,.84-.23,1,1,0,0,0,.24-.72.79.79,0,0,0-.25-.63,1.13,1.13,0,0,0-.73-.21,1.16,1.16,0,0,0-.77.22,1.45,1.45,0,0,0-.41.59l-.61-.29a1.62,1.62,0,0,1,.38-.59,1.89,1.89,0,0,1,.62-.4,2.29,2.29,0,0,1,.81-.14,1.92,1.92,0,0,1,.91.19,1.25,1.25,0,0,1,.54.5,1.3,1.3,0,0,1,.18.68,1.62,1.62,0,0,1-.08.52,1.71,1.71,0,0,1-.22.4,1.11,1.11,0,0,1-.32.26,1.28,1.28,0,0,1-.37.14h0a1.11,1.11,0,0,1,.46.11.9.9,0,0,1,.35.25,1.07,1.07,0,0,1,.22.37,1.16,1.16,0,0,1,.08.42,1.54,1.54,0,0,1-.23.83,1.46,1.46,0,0,1-.64.56A2,2,0,0,1,443.43,76.12Z"/><path d="M446.17,77.55l-.37-.37a4.55,4.55,0,0,0,.84-1,4,4,0,0,0,.45-1.12,5.6,5.6,0,0,0,.13-1.26,5.73,5.73,0,0,0-.13-1.26,3.87,3.87,0,0,0-.45-1.12,4.55,4.55,0,0,0-.84-1l.37-.37a5,5,0,0,1,1.28,1.68,5.25,5.25,0,0,1,0,4.16A5,5,0,0,1,446.17,77.55Z"/><rect class="cls-2" x="399" y="44" width="54" height="16"/><path d="M415.39,47.83l.38.38a4.36,4.36,0,0,0-.86,1,4.1,4.1,0,0,0-.47,1.15,6.11,6.11,0,0,0,0,2.6,4.16,4.16,0,0,0,.47,1.16,4.79,4.79,0,0,0,.86,1l-.38.38a5.22,5.22,0,0,1-1.32-1.74,5.11,5.11,0,0,1,1.32-6Z"/><path d="M416.61,49.1l.95.3.86.4-.05.15-.05.15-.93-.18-.94-.32Zm1.64.76.12.09.13.09-.46.83-.59.8-.43-.31.58-.81Zm.4-1.85v1l-.12.94h-.31L418.1,49V48Zm-.15,1.85.65.69.58.81-.43.31-.6-.8-.45-.83.12-.09Zm1.64-.76.16.5-.94.32-.94.18-.05-.15-.05-.15.86-.4Z"/><path d="M424.16,54V53.5c.55-.4,1-.76,1.37-1.06a9.29,9.29,0,0,0,.88-.82,2.63,2.63,0,0,0,.47-.71,1.86,1.86,0,0,0,.14-.7,1,1,0,0,0-.31-.79,1.18,1.18,0,0,0-.85-.3,1.16,1.16,0,0,0-.9.37,1.65,1.65,0,0,0-.39,1l-.58-.35a2.06,2.06,0,0,1,.31-.84,1.73,1.73,0,0,1,.63-.57,2.06,2.06,0,0,1,1-.21,2,2,0,0,1,.75.13,1.61,1.61,0,0,1,.58.35,1.42,1.42,0,0,1,.36.54,1.73,1.73,0,0,1,.13.69,2.19,2.19,0,0,1-.25,1,3.68,3.68,0,0,1-.81,1,11.6,11.6,0,0,1-1.55,1.19h2.73V54Z"/><path d="M432.73,54V50c0-.09,0-.2,0-.3s0-.22,0-.34a3,3,0,0,1-1.41.77l-.18-.6a1.51,1.51,0,0,0,.38-.11l.48-.24a5.46,5.46,0,0,0,.47-.31,2,2,0,0,0,.33-.32h.57V54Z"/><path d="M434.86,55.6l-.38-.38a4.36,4.36,0,0,0,.86-1,4.1,4.1,0,0,0,.47-1.15,6.11,6.11,0,0,0,0-2.6,4.16,4.16,0,0,0-.47-1.16,4.79,4.79,0,0,0-.86-1l.38-.38a5.26,5.26,0,0,1,1.32,6A5,5,0,0,1,434.86,55.6Z"/><rect class="cls-2" x="463" y="88" width="54" height="16"/><path d="M480.21,98.12a2.61,2.61,0,0,1-1.34-.34,2.36,2.36,0,0,1-.88-1,3.46,3.46,0,0,1-.31-1.5,3.12,3.12,0,0,1,.33-1.49,2.31,2.31,0,0,1,.91-1,2.61,2.61,0,0,1,1.35-.35,2.48,2.48,0,0,1,1.32.31,2.24,2.24,0,0,1,.82.94l-.61.33a1.4,1.4,0,0,0-.57-.71,1.72,1.72,0,0,0-1-.25,1.76,1.76,0,0,0-1.65,1,2.67,2.67,0,0,0-.24,1.18,3,3,0,0,0,.21,1.18,1.65,1.65,0,0,0,.62.75,1.94,1.94,0,0,0,1,.26,2.18,2.18,0,0,0,.63-.09,1.54,1.54,0,0,0,.51-.26,1.07,1.07,0,0,0,.34-.44,1.44,1.44,0,0,0,.13-.61v-.19h-1.74v-.62h2.34V98h-.52l0-1,.15,0a1.67,1.67,0,0,1-.68.8A2.25,2.25,0,0,1,480.21,98.12Z"/><path d="M484.5,92v5a.65.65,0,0,0,.11.43.5.5,0,0,0,.37.12l.28,0,.28-.1-.1.58a1.4,1.4,0,0,1-.29.09,1.73,1.73,0,0,1-.32,0,1,1,0,0,1-.75-.27,1.26,1.26,0,0,1-.24-.84V92Z"/><path d="M488.11,93.82a2,2,0,0,1,1,.26,1.81,1.81,0,0,1,.71.74A2.44,2.44,0,0,1,490.1,96a2.41,2.41,0,0,1-.25,1.15,1.75,1.75,0,0,1-.71.74,2,2,0,0,1-1,.26,2.11,2.11,0,0,1-1-.26,1.75,1.75,0,0,1-.71-.74,2.41,2.41,0,0,1-.25-1.15,2.44,2.44,0,0,1,.25-1.15,1.81,1.81,0,0,1,.71-.74A2.11,2.11,0,0,1,488.11,93.82Zm0,.57a1.33,1.33,0,0,0-.72.19,1.28,1.28,0,0,0-.46.54,2,2,0,0,0-.16.85,1.94,1.94,0,0,0,.16.84,1.28,1.28,0,0,0,2.35,0,1.94,1.94,0,0,0,.16-.84,2,2,0,0,0-.16-.85,1.28,1.28,0,0,0-.46-.54A1.34,1.34,0,0,0,488.11,94.39Z"/><path d="M493.37,98.12a1.53,1.53,0,0,1-.64-.13,1.39,1.39,0,0,1-.51-.34,1.54,1.54,0,0,1-.33-.51L492,97l-.06,1h-.58V92H492v2.83l-.08-.12a1.33,1.33,0,0,1,.56-.64,1.58,1.58,0,0,1,.89-.26,1.8,1.8,0,0,1,.94.26,1.87,1.87,0,0,1,.69.73,2.45,2.45,0,0,1,.25,1.16,2.3,2.3,0,0,1-.26,1.15,1.77,1.77,0,0,1-.69.74A1.8,1.8,0,0,1,493.37,98.12Zm-.06-.58a1.15,1.15,0,0,0,.95-.43A1.78,1.78,0,0,0,494.6,96a1.84,1.84,0,0,0-.33-1.14,1.17,1.17,0,0,0-.95-.43,1.24,1.24,0,0,0-.69.2,1.37,1.37,0,0,0-.45.55A2,2,0,0,0,492,96a1.91,1.91,0,0,0,.16.82,1.28,1.28,0,0,0,.46.54A1.18,1.18,0,0,0,493.31,97.54Z"/><path d="M498.94,95.37a.87.87,0,0,0-.95-1,1.3,1.3,0,0,0-.73.19,1,1,0,0,0-.43.6l-.54-.33a1.44,1.44,0,0,1,.61-.75,2,2,0,0,1,1.11-.29,2.08,2.08,0,0,1,.8.16,1.21,1.21,0,0,1,.58.46,1.4,1.4,0,0,1,.21.8v2c0,.2.1.3.31.3a1.06,1.06,0,0,0,.31,0l0,.52a.92.92,0,0,1-.43.08,1,1,0,0,1-.43-.09.66.66,0,0,1-.3-.27,1,1,0,0,1-.11-.47v-.08l.17,0a1.13,1.13,0,0,1-.34.53,1.57,1.57,0,0,1-.54.29,1.73,1.73,0,0,1-.58.1A1.68,1.68,0,0,1,497,98a1,1,0,0,1-.5-.37,1.11,1.11,0,0,1,.12-1.39,1.69,1.69,0,0,1,.87-.41l1.63-.32v.55l-1.33.27a1.42,1.42,0,0,0-.6.23.5.5,0,0,0-.2.41.53.53,0,0,0,.2.42.91.91,0,0,0,.58.16,1.76,1.76,0,0,0,.46-.06,1.41,1.41,0,0,0,.39-.19,1,1,0,0,0,.27-.32,1,1,0,0,0,.1-.46Z"/><path d="M501.83,92v5a.6.6,0,0,0,.12.43.48.48,0,0,0,.37.12l.27,0,.29-.1-.11.58a1.23,1.23,0,0,1-.29.09,1.66,1.66,0,0,1-.32,0,1,1,0,0,1-.75-.27,1.26,1.26,0,0,1-.24-.84V92Z"/><rect class="cls-2" x="463" y="66" width="54" height="16"/><path d="M479.39,69.83l.38.38a4.36,4.36,0,0,0-.86,1.05,4.1,4.1,0,0,0-.47,1.15,6.11,6.11,0,0,0,0,2.6,4.16,4.16,0,0,0,.47,1.16,4.79,4.79,0,0,0,.86,1l-.38.38a5.22,5.22,0,0,1-1.32-1.74,5.11,5.11,0,0,1,1.32-6Z"/><path d="M480.61,71.1l.95.3.86.4-.05.15-.05.15-.93-.18-.94-.32Zm1.64.76.12.09.13.09-.46.83-.59.8-.43-.31.58-.81Zm.4-1.85v1l-.12.94h-.31L482.1,71V70Zm-.15,1.85.65.69.58.81-.43.31-.6-.8-.45-.83.12-.09Zm1.64-.76.16.5-.94.32-.94.18-.05-.15-.05-.15.86-.4Z"/><path d="M490,76.12a2.48,2.48,0,0,1-1.29-.34,1.72,1.72,0,0,1-.75-1l.66-.34a1.47,1.47,0,0,0,.27.53,1.18,1.18,0,0,0,.46.36,1.85,1.85,0,0,0,.71.12,1.25,1.25,0,0,0,.61-.13A.88.88,0,0,0,491,75a1,1,0,0,0,.13-.53A.94.94,0,0,0,491,74a.7.7,0,0,0-.35-.3,1.83,1.83,0,0,0-.63-.09h-.19l-.23,0V73h.28a1.32,1.32,0,0,0,.86-.23A1,1,0,0,0,491,72a.8.8,0,0,0-.26-.65,1.14,1.14,0,0,0-.75-.23,1.23,1.23,0,0,0-.8.23,1.64,1.64,0,0,0-.43.61l-.62-.29a1.64,1.64,0,0,1,.39-.61,1.87,1.87,0,0,1,.64-.42,2.23,2.23,0,0,1,.83-.15,2,2,0,0,1,.94.2,1.29,1.29,0,0,1,.56.52,1.42,1.42,0,0,1,.19.71,1.51,1.51,0,0,1-.09.53,1.47,1.47,0,0,1-.22.41,1.4,1.4,0,0,1-.33.27,1.07,1.07,0,0,1-.39.14v0a1.26,1.26,0,0,1,.49.1,1.22,1.22,0,0,1,.36.27,1.25,1.25,0,0,1,.22.37,1.33,1.33,0,0,1,.08.45,1.56,1.56,0,0,1-.24.85,1.6,1.6,0,0,1-.65.58A2.17,2.17,0,0,1,490,76.12Z"/><path d="M495.79,76V75.5c.55-.4,1-.76,1.37-1.06a8.2,8.2,0,0,0,.88-.82,2.63,2.63,0,0,0,.47-.71,1.86,1.86,0,0,0,.14-.7,1,1,0,0,0-.31-.79,1.18,1.18,0,0,0-.85-.3,1.16,1.16,0,0,0-.9.37,1.65,1.65,0,0,0-.39,1l-.58-.35a2.06,2.06,0,0,1,.31-.84,1.73,1.73,0,0,1,.63-.57,2.06,2.06,0,0,1,1-.21,2,2,0,0,1,.75.13,1.61,1.61,0,0,1,.58.35,1.42,1.42,0,0,1,.36.54,1.73,1.73,0,0,1,.13.69,2.3,2.3,0,0,1-.24,1,3.94,3.94,0,0,1-.82,1,11.6,11.6,0,0,1-1.55,1.19h2.73V76Z"/><path d="M500.48,77.6l-.38-.38a4.42,4.42,0,0,0,.87-1,4.07,4.07,0,0,0,.46-1.15,6.11,6.11,0,0,0,0-2.6,4.13,4.13,0,0,0-.46-1.16,4.85,4.85,0,0,0-.87-1.05l.38-.38a5,5,0,0,1,1.32,1.74,5.34,5.34,0,0,1,0,4.29A4.8,4.8,0,0,1,500.48,77.6Z"/><rect class="cls-2" x="526" y="88" width="54" height="16"/><path d="M543.21,98.12a2.61,2.61,0,0,1-1.34-.34,2.36,2.36,0,0,1-.88-1,3.46,3.46,0,0,1-.31-1.5,3.12,3.12,0,0,1,.33-1.49,2.31,2.31,0,0,1,.91-1,2.61,2.61,0,0,1,1.35-.35,2.48,2.48,0,0,1,1.32.31,2.24,2.24,0,0,1,.82.94l-.61.33a1.4,1.4,0,0,0-.57-.71,1.72,1.72,0,0,0-1-.25,1.76,1.76,0,0,0-1.65,1,2.67,2.67,0,0,0-.24,1.18,3,3,0,0,0,.21,1.18,1.65,1.65,0,0,0,.62.75,1.94,1.94,0,0,0,1,.26,2.18,2.18,0,0,0,.63-.09,1.54,1.54,0,0,0,.51-.26,1.07,1.07,0,0,0,.34-.44,1.44,1.44,0,0,0,.13-.61v-.19h-1.74v-.62h2.34V98h-.52l0-1,.15,0a1.67,1.67,0,0,1-.68.8A2.25,2.25,0,0,1,543.21,98.12Z"/><path d="M547.5,92v5a.65.65,0,0,0,.11.43.5.5,0,0,0,.37.12l.28,0,.28-.1-.1.58a1.4,1.4,0,0,1-.29.09,1.73,1.73,0,0,1-.32,0,1,1,0,0,1-.75-.27,1.26,1.26,0,0,1-.24-.84V92Z"/><path d="M551.11,93.82a2,2,0,0,1,1,.26,1.81,1.81,0,0,1,.71.74A2.44,2.44,0,0,1,553.1,96a2.41,2.41,0,0,1-.25,1.15,1.75,1.75,0,0,1-.71.74,2,2,0,0,1-1,.26,2.11,2.11,0,0,1-1-.26,1.75,1.75,0,0,1-.71-.74,2.41,2.41,0,0,1-.25-1.15,2.44,2.44,0,0,1,.25-1.15,1.81,1.81,0,0,1,.71-.74A2.11,2.11,0,0,1,551.11,93.82Zm0,.57a1.33,1.33,0,0,0-.72.19,1.28,1.28,0,0,0-.46.54,2,2,0,0,0-.16.85,1.94,1.94,0,0,0,.16.84,1.28,1.28,0,0,0,2.35,0,1.94,1.94,0,0,0,.16-.84,2,2,0,0,0-.16-.85,1.28,1.28,0,0,0-.46-.54A1.34,1.34,0,0,0,551.11,94.39Z"/><path d="M556.37,98.12a1.53,1.53,0,0,1-.64-.13,1.39,1.39,0,0,1-.51-.34,1.54,1.54,0,0,1-.33-.51L555,97l-.06,1h-.58V92H555v2.83l-.08-.12a1.33,1.33,0,0,1,.56-.64,1.58,1.58,0,0,1,.89-.26,1.8,1.8,0,0,1,.94.26,1.87,1.87,0,0,1,.69.73,2.45,2.45,0,0,1,.25,1.16,2.3,2.3,0,0,1-.26,1.15,1.77,1.77,0,0,1-.69.74A1.8,1.8,0,0,1,556.37,98.12Zm-.06-.58a1.15,1.15,0,0,0,1-.43A1.78,1.78,0,0,0,557.6,96a1.84,1.84,0,0,0-.33-1.14,1.17,1.17,0,0,0-.95-.43,1.24,1.24,0,0,0-.69.2,1.37,1.37,0,0,0-.45.55A2,2,0,0,0,555,96a1.91,1.91,0,0,0,.16.82,1.28,1.28,0,0,0,.46.54A1.18,1.18,0,0,0,556.31,97.54Z"/><path d="M561.94,95.37a.87.87,0,0,0-1-1,1.3,1.3,0,0,0-.73.19,1,1,0,0,0-.43.6l-.54-.33a1.44,1.44,0,0,1,.61-.75,2,2,0,0,1,1.11-.29,2.08,2.08,0,0,1,.8.16,1.21,1.21,0,0,1,.58.46,1.4,1.4,0,0,1,.21.8v2c0,.2.1.3.31.3a1.06,1.06,0,0,0,.31,0l0,.52a.92.92,0,0,1-.43.08,1,1,0,0,1-.43-.09.66.66,0,0,1-.3-.27,1,1,0,0,1-.11-.47v-.08l.17,0a1.13,1.13,0,0,1-.34.53,1.57,1.57,0,0,1-.54.29,1.73,1.73,0,0,1-.58.1A1.68,1.68,0,0,1,560,98a1,1,0,0,1-.5-.37,1.11,1.11,0,0,1,.12-1.39,1.69,1.69,0,0,1,.87-.41l1.63-.32v.55l-1.33.27a1.42,1.42,0,0,0-.6.23.5.5,0,0,0-.2.41.53.53,0,0,0,.2.42.91.91,0,0,0,.58.16,1.76,1.76,0,0,0,.46-.06,1.41,1.41,0,0,0,.39-.19,1,1,0,0,0,.27-.32,1,1,0,0,0,.1-.46Z"/><path d="M564.83,92v5a.6.6,0,0,0,.12.43.48.48,0,0,0,.37.12l.27,0,.29-.1-.11.58a1.23,1.23,0,0,1-.29.09,1.66,1.66,0,0,1-.32,0,1,1,0,0,1-.75-.27,1.26,1.26,0,0,1-.24-.84V92Z"/><path d="M311.48,118.27v.9h-2.76v7h-1v-7H305v-.9Z"/><path d="M313.27,119a.7.7,0,0,1-.52-.2.68.68,0,0,1-.2-.52.69.69,0,0,1,.72-.72.68.68,0,0,1,.52.2.7.7,0,0,1,.2.52.69.69,0,0,1-.72.72Zm.48,1.15v6h-1v-6Z"/><path d="M316,126.19v-6h.84l.06.94a2,2,0,0,1,.85-.81,2.37,2.37,0,0,1,1.07-.25,2.65,2.65,0,0,1,1.2.29,1.91,1.91,0,0,1,.86.89,1.71,1.71,0,0,1,.54-.67,2.41,2.41,0,0,1,.77-.38,2.45,2.45,0,0,1,.78-.13,2.63,2.63,0,0,1,1.1.24,2.11,2.11,0,0,1,.86.74,2.34,2.34,0,0,1,.33,1.3v3.84h-1v-3.74a1.33,1.33,0,0,0-1.41-1.54,1.81,1.81,0,0,0-.88.23,1.62,1.62,0,0,0-.65.67,2.17,2.17,0,0,0-.25,1.09v3.29h-1v-3.74a1.47,1.47,0,0,0-.41-1.18,1.45,1.45,0,0,0-1-.36,1.79,1.79,0,0,0-1.5.88,2.32,2.32,0,0,0-.27,1.2v3.2Z"/><path d="M329.92,126.31a3,3,0,0,1-1.51-.37,2.52,2.52,0,0,1-1-1.08,4,4,0,0,1,0-3.34,2.6,2.6,0,0,1,1-1.08,2.87,2.87,0,0,1,1.47-.37,2.75,2.75,0,0,1,1.44.36,2.36,2.36,0,0,1,.9,1,3,3,0,0,1,.31,1.38c0,.14,0,.26,0,.38a2.53,2.53,0,0,1,0,.3h-4.85v-.86h4.43l-.5.1a1.76,1.76,0,0,0-.47-1.33,1.71,1.71,0,0,0-1.24-.47,1.84,1.84,0,0,0-1,.27,1.69,1.69,0,0,0-.66.78,3.25,3.25,0,0,0,0,2.45,1.77,1.77,0,0,0,.68.79,2,2,0,0,0,1,.27,2,2,0,0,0,1.07-.25,1.93,1.93,0,0,0,.67-.69l.75.45a2.47,2.47,0,0,1-1.41,1.17A3.19,3.19,0,0,1,329.92,126.31Z"/></svg>